<svg width="272" height="274" viewBox="0 0 272 274" fill="none" xmlns="http://www.w3.org/2000/svg">
<path opacity="0.18" d="M-25.2886 19.001C-41.8496 28.3625 -56.5216 41.817 -64.8965 58.8818C-73.2715 75.9466 -74.6988 94.9214 -75.5804 113.644C-76.462 134.634 -76.357 155.624 -71.2145 175.984C-66.4498 194.728 -57.4871 212.15 -47.433 228.669C-40.0445 240.801 -31.7115 252.891 -19.7893 260.637C-11.0452 265.907 -1.37945 269.469 8.69398 271.131C42.7168 277.717 77.9617 272.891 108.963 257.404C132.052 245.818 152.118 228.543 176.487 220.336C197.876 213.136 221.888 213.115 241.157 201.445C265.169 186.752 276.168 155.393 270.291 127.876C264.414 100.358 243.739 77.4998 218.677 64.654C204.467 57.3915 189.102 53.1935 174.787 46.4138C160.472 39.6341 147.395 30.3565 133.437 22.8212C83.5649 -4.15082 24.9611 -9.41928 -25.2886 19.001Z" fill="#3AB091"/>
<path d="M145.695 95.1733L148.487 96.3488C149.506 96.6268 150.383 97.2789 150.942 98.1749C151.234 99.1208 151.182 100.139 150.795 101.051C150.418 102.289 149.977 103.527 149.494 104.745C148.864 106.361 148.13 107.956 147.647 109.614C146.702 113.809 146.531 118.141 147.143 122.397C147.143 123.783 145.38 124.496 144.016 124.685C141.443 125.226 138.774 125.089 136.27 124.286C136.039 124.221 135.824 124.107 135.641 123.95C135.413 123.659 135.308 123.29 135.347 122.922C135.2 120.634 135.2 118.262 134.885 116.163C134.76 115.018 134.528 113.886 134.192 112.784C133.955 111.702 133.772 110.61 133.647 109.509C133.458 108.628 133.185 107.767 133.038 106.886C132.857 105.997 132.922 105.075 133.227 104.22C133.605 103.296 134.13 102.436 134.591 101.554C135.085 100.595 135.52 99.6069 135.893 98.5947C136.094 97.8562 136.397 97.1496 136.795 96.4957C137.297 95.8999 137.924 95.4218 138.631 95.0953C139.339 94.7688 140.109 94.602 140.888 94.6066C142.513 94.4452 144.153 94.6386 145.695 95.1733Z" fill="#FFBBAB"/>
<path d="M128.504 84.3215C127.709 83.323 127.065 82.2126 126.594 81.0261C126.066 79.5084 125.741 77.9274 125.629 76.3244C125.543 75.7484 125.586 75.1606 125.755 74.6032C126.027 73.8476 126.699 73.2808 126.909 72.5042C126.94 72.4231 126.94 72.3335 126.909 72.2523C126.909 72.2523 126.804 72.0844 126.636 72.0844L125.755 71.8535C125.902 71.1363 125.783 70.3898 125.419 69.7545C125.312 69.5233 125.14 69.3284 124.923 69.1941C124.707 69.0598 124.456 68.9919 124.201 68.9989C123.656 68.9989 123.383 69.6916 122.921 70.0064C122.459 70.3213 121.955 70.3633 121.557 70.6781C121.133 71.1354 120.893 71.7337 120.885 72.3573C120.856 73.8678 121.083 75.3724 121.557 76.8071C121.858 78.4822 122.265 80.1367 122.774 81.7608C124.388 86.7688 126.97 91.4113 130.372 95.4252C131.674 96.9574 136.669 103.003 138.642 101.449C141.434 99.3503 139.608 95.8869 137.677 94.2287C134.227 91.3129 131.146 87.9857 128.504 84.3215Z" fill="#FFBBAB"/>
<path d="M140.238 94.1658C139.293 95.6141 138.369 97.1044 137.509 98.6156C137.345 98.8399 137.227 99.0946 137.162 99.3649C137.097 99.6351 137.087 99.9155 137.131 100.19C137.288 100.546 137.572 100.831 137.929 100.987C138.661 101.315 139.465 101.452 140.265 101.386C141.065 101.32 141.835 101.053 142.504 100.61C143.823 99.6814 144.991 98.5558 145.968 97.2723C146.495 96.5624 147.15 95.9573 147.899 95.4881C148.28 95.2607 148.715 95.1406 149.158 95.1406C149.602 95.1406 150.037 95.2607 150.418 95.4881C150.601 95.6049 150.756 95.7592 150.875 95.9407C150.994 96.1222 151.073 96.3269 151.107 96.5412C151.14 96.7555 151.128 96.9745 151.071 97.1838C151.014 97.393 150.913 97.5878 150.774 97.755C150.774 97.0834 149.956 96.6636 149.305 96.8315C148.673 97.0912 148.148 97.5573 147.815 98.1538C147.309 98.8744 146.846 99.6244 146.43 100.4C146.094 100.968 145.846 101.584 145.695 102.226C145.652 103.022 145.769 103.818 146.04 104.568C146.31 105.318 146.728 106.006 147.269 106.592C147.659 107.056 147.971 107.581 148.193 108.145C148.353 109.051 148.281 109.982 147.983 110.853C147.217 114.551 147.025 118.346 147.416 122.103C147.514 122.463 147.526 122.841 147.449 123.206C147.372 123.571 147.21 123.912 146.975 124.202C146.57 124.519 146.062 124.676 145.548 124.643C143.134 124.643 140.741 124.097 138.307 124.16C136.815 124.321 135.315 124.398 133.815 124.391C133.705 124.405 133.594 124.39 133.491 124.348C133.389 124.306 133.299 124.239 133.229 124.153C133.16 124.067 133.114 123.965 133.095 123.856C133.076 123.747 133.086 123.635 133.122 123.531C133.794 119.366 133.9 115.13 133.437 110.937C132.932 109.035 132.623 107.087 132.513 105.122C132.494 104.691 132.573 104.26 132.744 103.863C132.938 103.48 133.185 103.127 133.479 102.814C135.056 100.911 136.189 98.6811 136.795 96.2857" fill="white"/>
<path opacity="0.1" d="M146.346 113.581C146.361 113.932 146.296 114.281 146.153 114.601C146.011 114.922 145.797 115.205 145.527 115.429C145.353 115.507 145.184 115.598 145.023 115.701C144.708 115.995 144.75 116.499 144.687 116.919C144.419 117.689 144.005 118.402 143.47 119.018C143.216 119.345 143.079 119.748 143.079 120.162C143.079 120.576 143.216 120.978 143.47 121.306C143.848 121.683 144.478 121.746 144.792 122.187C145.107 122.628 144.792 124.055 145.443 124.496C145.655 124.586 145.892 124.597 146.111 124.528C146.33 124.459 146.518 124.313 146.639 124.118C146.865 123.721 146.987 123.274 146.996 122.817C147.486 118.101 147.934 113.365 148.34 108.607C148.396 108.358 148.388 108.099 148.319 107.853C148.249 107.607 148.119 107.383 147.941 107.2C147.626 106.76 147.206 105.92 146.744 105.689C146.22 106.466 146.618 108.145 146.618 109.048C146.535 110.58 146.472 112.091 146.346 113.581Z" fill="#020202"/>
<path d="M134.843 85.9797C134.568 86.3343 134.387 86.7533 134.319 87.1971C134.371 87.5103 134.485 87.81 134.654 88.0787C134.956 88.7403 135.134 89.4518 135.179 90.1776C135.161 90.7229 135.299 91.2619 135.578 91.7309C135.823 91.9635 136.114 92.1417 136.432 92.2539C136.75 92.366 137.089 92.4095 137.425 92.3816H138.978C139.164 92.3296 139.36 92.3296 139.545 92.3816C139.716 92.4697 139.856 92.6091 139.944 92.7804C140.426 93.914 140.717 95.1198 140.804 96.3487C140.848 96.5571 140.941 96.7516 141.077 96.9154C141.184 97.0683 141.329 97.1911 141.497 97.2722C142.59 97.7026 143.805 97.7026 144.897 97.2722C145.179 97.1873 145.423 97.0097 145.59 96.7685C145.697 96.4627 145.697 96.1297 145.59 95.8239C145.471 94.9789 145.288 94.1439 145.044 93.3261C144.607 92.2529 144.379 91.1058 144.373 89.9468C144.373 88.9182 144.939 87.9737 145.107 86.9662C145.23 85.9023 145.008 84.8272 144.476 83.8981C143.943 82.9691 143.128 82.2348 142.148 81.8027C141.314 81.4734 140.417 81.3363 139.523 81.4018C138.629 81.4672 137.761 81.7334 136.984 82.1805C136.418 82.4744 135.956 82.6213 135.683 83.23C135.41 83.8387 135.347 85.1191 134.843 85.9797Z" fill="#FFBBAB"/>
<path d="M134.99 79.7247C134.899 79.3394 134.849 78.9453 134.843 78.5493C134.843 77.206 135.62 75.6737 136.942 75.6317C137.887 75.6317 138.726 76.3454 139.692 76.3454C140.089 76.2917 140.482 76.2075 140.867 76.0935C141.876 75.8625 142.923 75.8625 143.932 76.0935C146.111 76.479 148.053 77.6988 149.347 79.4939C149.991 80.4092 150.354 81.4925 150.391 82.611C150.428 83.7295 150.138 84.8346 149.557 85.7908C148.864 86.8403 147.794 87.596 147.059 88.6245C146.707 89.2666 146.322 89.8902 145.905 90.4926C145.527 90.9333 144.645 91.647 144.016 91.3321C143.386 91.0173 143.344 89.9888 142.903 89.548C143.335 89.2067 143.749 88.8423 144.142 88.4565C144.333 88.2609 144.465 88.0157 144.525 87.7487C144.584 87.4817 144.568 87.2035 144.477 86.9453C144.226 86.4415 143.365 86.3366 143.155 86.9453C143.22 86.2384 143.122 85.526 142.867 84.8635C142.612 84.201 142.208 83.6061 141.686 83.1251C141.535 82.9378 141.35 82.7811 141.14 82.6633C140.911 82.6211 140.676 82.6211 140.447 82.6633C139.797 82.6633 139.167 82.6633 138.516 82.6633C137.404 82.6633 136.858 82.9782 136.061 82.0336C135.514 81.3673 135.145 80.5727 134.99 79.7247Z" fill="#FC682D"/>
<path d="M141.287 92.5915C141.461 92.5759 141.634 92.6286 141.77 92.7385C141.882 92.8823 141.941 93.0601 141.938 93.2422C142.022 94.1709 142.022 95.1052 141.938 96.0339C141.914 96.2806 141.851 96.5217 141.749 96.7475C141.688 96.8572 141.6 96.9495 141.494 97.0157C141.387 97.0818 141.265 97.1196 141.14 97.1254C140.867 97.1254 140.636 96.8945 140.342 96.8315C140.189 96.7984 140.03 96.8001 139.878 96.8364C139.725 96.8727 139.583 96.9428 139.461 97.0414C139.224 97.2463 139.013 97.4789 138.831 97.7341C138.366 98.3206 137.853 98.8681 137.299 99.3713C137.673 98.0964 138.239 96.886 138.978 95.782C139.146 95.4633 139.41 95.206 139.734 95.0474C139.986 95.0474 140.3 95.0474 140.468 94.7745C140.636 94.5016 140.468 93.9769 140.279 93.62C140.091 93.2632 139.608 92.7595 139.902 92.5076C140.196 92.2557 141.035 92.5706 141.287 92.5915Z" fill="#E0A194"/>
<path d="M161.521 87.6379C162.35 86.862 163.122 86.0272 163.83 85.1402C165.857 82.6077 166.967 79.4633 166.979 76.2195C166.905 75.8664 166.905 75.502 166.979 75.149C167.022 74.9773 167.114 74.8221 167.245 74.7027C167.376 74.5833 167.539 74.5049 167.713 74.4773C167.867 74.4983 168.022 74.4983 168.175 74.4773C168.406 74.4773 168.511 74.1624 168.7 73.9945C168.857 73.8958 169.039 73.8434 169.225 73.8434C169.41 73.8434 169.592 73.8958 169.749 73.9945C170.07 74.1972 170.349 74.4611 170.568 74.7711C170.904 75.2329 171.24 75.7157 171.533 76.1985C171.799 76.5683 171.959 77.0038 171.995 77.4579C171.907 78.19 171.538 78.8595 170.967 79.326C170.316 79.326 169.812 81.0681 169.644 81.4249C169.309 82.3695 168.931 83.314 168.511 84.2166C166.008 89.6736 162.306 94.4952 157.68 98.3218C156.127 99.6022 150.25 104.619 148.487 102.835C146.073 100.274 148.487 97.1883 150.586 95.866C154.562 93.593 158.236 90.8286 161.521 87.6379Z" fill="#FFBBAB"/>
<path d="M133.668 89.59H133.479C133.491 89.5766 133.505 89.5659 133.522 89.5585C133.538 89.5512 133.555 89.5474 133.573 89.5474C133.591 89.5474 133.609 89.5512 133.625 89.5585C133.641 89.5659 133.656 89.5766 133.668 89.59Z" fill="white"/>
<path d="M168.637 84.4475C168.569 85.5823 168.246 86.6872 167.692 87.6799C164.339 94.7179 158.607 100.345 151.509 103.569C151.102 103.701 150.734 103.932 150.439 104.241C150.225 104.536 150.075 104.872 149.998 105.227C148.382 111.524 148.738 117.947 147.584 124.244C147.546 124.807 147.316 125.341 146.933 125.756C146.379 126.148 145.693 126.306 145.023 126.196H143.659C140.418 126.021 137.188 125.678 133.983 125.168C133.419 125.139 132.887 124.899 132.492 124.496C132.221 123.996 132.146 123.412 132.282 122.859C132.433 118.535 132.258 114.206 131.758 109.908C131.579 107.813 131.579 105.706 131.758 103.611C132.021 102.564 132.021 101.468 131.758 100.421C131.637 100.115 131.467 99.8314 131.254 99.5812C130.337 98.7069 129.37 97.8869 128.357 97.1254C126.964 95.5433 125.971 93.6503 125.461 91.605C124.495 88.7084 123.488 85.8328 122.564 82.9362C121.871 80.8372 122.963 79.8507 124.537 79.0531C125.104 78.7592 125.734 78.4864 126.384 78.1925C126.941 80.4357 127.744 82.6108 128.777 84.6784C129.798 86.7206 131.446 88.3827 133.479 89.4221C133.445 89.4221 133.413 89.4354 133.39 89.459C133.366 89.4826 133.353 89.5146 133.353 89.548C133.353 89.6266 133.372 89.7039 133.408 89.7734C133.445 89.8429 133.498 89.9024 133.563 89.9468C134.969 91.2482 136.396 92.5286 137.761 93.851C138.024 94.1247 138.347 94.3332 138.705 94.4597C139.125 94.4597 140.573 94.0818 140.51 94.8585C140.52 94.8999 140.52 94.943 140.51 94.9844C140.51 95.2573 140.258 95.4672 140.217 95.74C140.209 95.9058 140.251 96.0701 140.337 96.212C140.423 96.354 140.549 96.4673 140.699 96.5377C140.998 96.6872 141.333 96.7456 141.665 96.7056C142.031 96.6835 142.392 96.6056 142.735 96.4747C143.302 96.2438 143.764 95.845 144.31 95.5721C145.142 95.2605 146.05 95.2093 146.912 95.4252C147.853 95.4959 148.799 95.4394 149.725 95.2573C152.403 94.6328 154.88 93.3403 156.924 91.5001C159.782 88.73 162.433 85.7556 164.859 82.6004C165.129 82.237 165.482 81.9422 165.887 81.7398C166.23 81.6265 166.598 81.6138 166.947 81.7031C167.297 81.7923 167.614 81.9799 167.86 82.2436C168.14 82.5338 168.354 82.8808 168.488 83.2611C168.622 83.6413 168.673 84.0459 168.637 84.4475Z" fill="white"/>
<path d="M168.637 84.4475C168.569 85.5823 168.246 86.6872 167.692 87.6799C164.339 94.7179 158.607 100.345 151.509 103.569C151.102 103.701 150.734 103.932 150.439 104.241C150.225 104.536 150.075 104.872 149.998 105.227C148.382 111.524 148.738 117.947 147.584 124.244C147.546 124.807 147.316 125.341 146.933 125.756C146.379 126.148 145.693 126.306 145.023 126.196H143.659C140.418 126.021 137.188 125.678 133.983 125.168C133.419 125.139 132.887 124.899 132.492 124.496C132.221 123.996 132.146 123.412 132.282 122.859C132.433 118.535 132.258 114.206 131.758 109.908C131.579 107.813 131.579 105.706 131.758 103.611C132.021 102.564 132.021 101.468 131.758 100.421C131.637 100.115 131.467 99.8314 131.254 99.5812C130.337 98.7069 129.37 97.8869 128.357 97.1254C126.964 95.5433 125.971 93.6503 125.461 91.605C124.495 88.7084 123.488 85.8328 122.564 82.9362C121.871 80.8372 122.963 79.8507 124.537 79.0531C125.104 78.7592 125.734 78.4864 126.384 78.1925C126.941 80.4357 127.744 82.6108 128.777 84.6784C129.798 86.7206 131.446 88.3827 133.479 89.4221C133.445 89.4221 133.413 89.4354 133.39 89.459C133.366 89.4826 133.353 89.5146 133.353 89.548C133.353 89.6266 133.372 89.7039 133.408 89.7734C133.445 89.8429 133.498 89.9024 133.563 89.9468C134.969 91.2482 136.396 92.5286 137.761 93.851C138.024 94.1247 138.347 94.3332 138.705 94.4597C139.125 94.4597 140.573 94.0818 140.51 94.8585C140.52 94.8999 140.52 94.943 140.51 94.9844C140.51 95.2573 140.258 95.4672 140.217 95.74C140.209 95.9058 140.251 96.0701 140.337 96.212C140.423 96.354 140.549 96.4673 140.699 96.5377C140.998 96.6872 141.333 96.7456 141.665 96.7056C142.031 96.6835 142.392 96.6056 142.735 96.4747C143.302 96.2438 143.764 95.845 144.31 95.5721C145.142 95.2605 146.05 95.2093 146.912 95.4252C147.853 95.4959 148.799 95.4394 149.725 95.2573C152.403 94.6328 154.88 93.3403 156.924 91.5001C159.782 88.73 162.433 85.7556 164.859 82.6004C165.129 82.237 165.482 81.9422 165.887 81.7398C166.23 81.6265 166.598 81.6138 166.947 81.7031C167.297 81.7923 167.614 81.9799 167.86 82.2436C168.14 82.5338 168.354 82.8808 168.488 83.2611C168.622 83.6413 168.673 84.0459 168.637 84.4475Z" fill="url(#paint0_linear_375_911)"/>
<path d="M131.8 100.337C131.632 100.085 131.485 99.8121 131.296 99.5812C130.379 98.7069 129.412 97.8869 128.399 97.1254C127.006 95.5434 126.013 93.6503 125.503 91.6051C124.537 88.7084 123.53 85.8328 122.606 82.9362C121.913 80.8372 123.005 79.8507 124.579 79.0531C124.902 79.3542 125.159 79.7186 125.335 80.1236C125.661 81.0134 125.893 81.935 126.027 82.8733C126.545 85.0156 127.441 87.0485 128.672 88.8764C129.91 90.8494 131.086 92.8644 132.324 94.8375C132.397 94.9477 132.454 95.0679 132.492 95.1943C132.543 95.3869 132.543 95.5894 132.492 95.782C132.244 96.5585 132.089 97.3618 132.03 98.1749C131.926 98.6786 132.198 100.064 131.8 100.337Z" fill="url(#paint1_linear_375_911)"/>
<path d="M168.637 84.4475C168.569 85.5823 168.246 86.6872 167.692 87.68C164.339 94.7179 158.607 100.345 151.509 103.569C151.102 103.701 150.734 103.932 150.439 104.241C150.225 104.536 150.075 104.872 149.998 105.227C148.382 111.524 148.739 117.947 147.584 124.244C147.546 124.808 147.316 125.341 146.933 125.756C146.379 126.148 145.693 126.306 145.023 126.196H143.659C143.265 126.169 142.887 126.031 142.568 125.798C142.264 125.508 142.071 125.122 142.022 124.706C141.738 122.324 141.632 119.925 141.707 117.528C141.751 116.32 141.508 115.119 140.997 114.025C140.486 112.93 139.722 111.972 138.768 111.231C138.284 110.999 137.838 110.694 137.446 110.328C137.261 110.136 137.158 109.881 137.158 109.614C137.158 109.348 137.261 109.092 137.446 108.901C137.645 108.768 137.878 108.696 138.118 108.691C139.485 108.594 140.845 108.412 142.19 108.145C143.54 107.896 144.747 107.146 145.569 106.046C146.262 104.997 146.409 103.653 147.164 102.646C148.193 101.605 149.496 100.877 150.921 100.547C155.865 98.6169 160.24 95.4689 163.641 91.3952C165.153 89.569 166.307 86.2736 168.175 84.9093C168.306 84.7339 168.462 84.5783 168.637 84.4475Z" fill="url(#paint2_linear_375_911)"/>
<path d="M62.68 165.615C54.0097 171.877 44.8092 177.369 35.1832 182.029L33.8189 182.197H33.4411C33.0726 182.181 32.7122 182.085 32.3848 181.915C32.0574 181.745 31.7709 181.506 31.5452 181.215C31.3195 180.923 31.16 180.586 31.0778 180.226C30.9956 179.867 30.9926 179.494 31.0692 179.133C31.1577 178.37 31.2909 177.613 31.468 176.866C32.6854 171.157 33.9098 165.454 35.1412 159.759C35.2107 159.551 35.207 159.325 35.1306 159.119C35.0543 158.913 34.91 158.739 34.7214 158.626L12.745 141.561C12.6057 141.425 12.425 141.338 12.2313 141.315C12.0376 141.293 11.8418 141.335 11.6746 141.435C10.3732 142.107 9.02983 142.715 7.68648 143.324C2.96375 145.549 -1.59105 147.648 -6.2508 149.747C-6.55648 149.901 -6.8913 149.99 -7.23339 150.006C-7.57548 150.022 -7.91716 149.966 -8.23609 149.841C-8.55502 149.716 -8.84404 149.526 -9.08426 149.282C-9.32448 149.038 -9.5105 148.746 -9.63017 148.425L-9.90305 147.795C-9.90305 147.795 -9.90305 147.564 -9.90305 147.459C-9.69439 145.773 -9.40015 144.099 -9.02147 142.443C-6.67437 133.731 -3.79331 125.172 -0.394625 116.814C1.19483 112.316 4.30561 108.515 8.40013 106.067C11.5066 104.311 14.9315 103.191 18.4753 102.772C21.2161 102.377 23.9773 102.139 26.7453 102.058C27.6059 102.058 28.4875 102.058 29.369 102.058C29.5515 102.033 29.7272 101.972 29.8858 101.878C30.0443 101.784 30.1826 101.66 30.2926 101.512C32.3916 98.4478 34.3646 95.2153 36.5895 92.2767C39.6893 87.8539 43.0245 83.6008 46.5807 79.5359C50.288 75.76 54.183 72.1732 58.2511 68.7891C62.3646 65.1484 66.7894 61.8754 71.4747 59.0078C78.5099 54.9648 86.0472 51.8666 93.8919 49.7932C95.4032 49.3314 96.9354 48.9326 98.4677 48.5128L101.616 48.177H102.183C102.918 48.2641 103.612 48.5592 104.185 49.0278C104.758 49.4963 105.185 50.1187 105.415 50.8217C105.425 50.9124 105.425 51.0039 105.415 51.0946C105.558 51.7873 105.656 52.4884 105.709 53.1936C106.017 56.8783 105.947 60.5849 105.499 64.2553C105.041 70.8872 103.736 77.4332 101.616 83.7339C99.4912 89.5953 96.9665 95.3039 94.0598 100.82C91.7669 105.531 89.0553 110.027 85.9577 114.253C81.0179 120.723 75.7349 126.924 70.1314 132.829C69.9569 132.987 69.8336 133.193 69.7775 133.421C69.7214 133.649 69.735 133.889 69.8165 134.11C70.1943 135.747 70.5512 137.384 70.845 139.021C71.596 142.416 71.8785 145.898 71.6846 149.369C71.5598 152.593 70.68 155.742 69.1161 158.564C67.5521 161.386 65.3476 163.801 62.68 165.615Z" fill="white"/>
<path d="M26.0526 150.293L12.829 139.987C12.829 139.987 18.5172 122.46 26.7453 102.058C27.6059 102.058 28.4874 102.058 29.369 102.058C29.5515 102.033 29.7272 101.972 29.8857 101.878C30.0443 101.784 30.1826 101.66 30.2926 101.512C32.3915 98.4478 34.3646 95.2153 36.5895 92.2767C39.6893 87.8539 43.0245 83.6008 46.5807 79.5359C50.288 75.76 54.183 72.1732 58.2511 68.7891C62.3646 65.1484 66.7894 61.8754 71.4747 59.0078C78.5099 54.9648 86.0472 51.8666 93.8919 49.7932C95.4032 49.3314 96.9354 48.9326 98.4677 48.5128L101.616 48.177H102.183C102.918 48.2641 103.612 48.5592 104.185 49.0278C104.758 49.4963 105.185 50.1187 105.415 50.8217C105.425 50.9124 105.425 51.0039 105.415 51.0946C97.922 57.1817 43.7891 101.911 26.0526 150.293Z" fill="url(#paint3_linear_375_911)"/>
<path d="M41.2284 111.231C42.9 110.35 44.4001 109.177 45.6572 107.767C48.239 111.189 49.1415 115.555 50.8837 119.459C51.2107 120.419 51.8451 121.246 52.6888 121.809C53.4445 122.126 54.2653 122.255 55.0817 122.187C56.6979 122.187 58.3141 122.187 59.9303 122.187C61.6532 122.195 63.3574 121.83 64.9259 121.117C65.7865 120.697 66.6261 119.857 66.3742 119.018C66.1223 118.178 64.9049 117.8 63.9184 117.8C62.6771 117.88 61.4309 117.766 60.2242 117.465C58.7036 116.806 57.4939 115.589 56.8448 114.064C56.1723 112.645 55.6245 111.17 55.2076 109.656C54.3448 107.085 53.2779 104.586 52.0171 102.184C51.3031 100.688 50.3295 99.3308 49.1415 98.1749C48.5477 97.6024 47.8426 97.1579 47.0699 96.8691C46.2972 96.5802 45.4735 96.4531 44.6497 96.4957C41.6691 96.8105 39.7381 99.8331 36.9674 100.967C35.6471 101.291 34.3609 101.741 33.1262 102.31C32.3437 102.881 31.6746 103.593 31.1532 104.409C29.5281 106.69 28.3396 109.252 27.6479 111.965C32.1241 113.293 36.9215 113.033 41.2284 111.231Z" fill="url(#paint4_linear_375_911)"/>
<path d="M45.6991 94.7325C45.6991 94.7325 49.8971 94.3547 51.4503 95.8869C53.8696 98.6892 55.5507 102.051 56.3409 105.668C56.7188 107.054 57.1805 108.397 57.4954 109.866C57.6933 111.166 58.0749 112.431 58.6288 113.623C58.9697 114.29 59.5456 114.806 60.2451 115.072C60.7953 115.198 61.3614 115.24 61.9242 115.198C62.6267 115.191 63.3286 115.24 64.0232 115.345C64.1576 115.355 64.2874 115.398 64.4011 115.47C64.4801 115.575 64.5307 115.698 64.548 115.827C64.5891 116.189 64.5352 116.556 64.3917 116.891C64.2481 117.226 64.0199 117.517 63.7294 117.737C61.9533 118.589 59.9423 118.818 58.0201 118.388C55.7113 117.611 54.9766 113.33 54.137 111.335C52.9196 108.418 51.6182 105.563 50.2329 102.73C50.0864 102.354 49.8568 102.017 49.5612 101.743C49.2129 101.514 48.819 101.364 48.4068 101.302L43.3482 100.211C43.831 98.3847 45.1743 96.5376 45.6991 94.7325Z" fill="#FFBBAB"/>
<path d="M68.2843 108.565C75.1354 108.565 80.6893 103.011 80.6893 96.1598C80.6893 89.3087 75.1354 83.7548 68.2843 83.7548C61.4332 83.7548 55.8793 89.3087 55.8793 96.1598C55.8793 103.011 61.4332 108.565 68.2843 108.565Z" fill="white"/>
<path d="M68.2842 104.409C72.84 104.409 76.5332 100.716 76.5332 96.1598C76.5332 91.604 72.84 87.9108 68.2842 87.9108C63.7283 87.9108 60.0351 91.604 60.0351 96.1598C60.0351 100.716 63.7283 104.409 68.2842 104.409Z" fill="#3AB091"/>
<path d="M31.6989 102.793L12.0313 141.75L-6.62867 150.146C-6.62867 150.146 -10.2599 152.56 -9.90309 147.606C-9.54626 142.652 0.0880957 114.82 2.96371 110.958C5.83932 107.096 14.5921 100.043 31.6989 102.793Z" fill="white"/>
<path d="M69.6486 133.27L35.1412 159.759L30.1037 183.142C30.8582 184.141 31.9369 184.847 33.1547 185.138C34.3725 185.429 35.6536 185.287 36.7785 184.737C41.5012 183.163 65.9124 166.896 68.9559 163.222C71.9995 159.549 76.5753 149.138 69.6486 133.27Z" fill="white"/>
<path d="M88.8123 51.4304L105.436 64.2762C105.436 64.2762 106.297 50.9686 105.436 48.177C104.576 45.3853 88.8123 51.4304 88.8123 51.4304Z" fill="white"/>
<path d="M12.85 140.008L9.55453 145.864L31.6989 162.866L36.7994 158.5L12.85 140.008Z" fill="white"/>
<path opacity="0.36" d="M9.55461 145.843C9.55461 145.843 -54.3806 213.934 -12.4428 245.209C29.495 276.484 77.9606 255.872 77.9606 255.872C77.9606 255.872 8.69402 271.173 -1.40211 232.321C-7.30027 209.589 31.6989 162.866 31.6989 162.866L9.55461 145.843Z" fill="url(#paint5_linear_375_911)"/>
<path d="M145.149 206.42L160.724 215.886H121.179L136.753 205.811V197.604L134.15 194.518V184.737C108.669 175.921 109.277 121.264 109.277 121.264H172.625C172.625 121.264 172.625 121.474 172.625 121.914C173.003 127.917 175.123 173.927 151.257 183.96C150.317 184.365 149.349 184.702 148.361 184.968V193.364L146.262 196.072L145.149 197.478V206.42Z" fill="white"/>
<path d="M111.964 168.638C111.195 168.664 110.429 168.539 109.709 168.268C108.988 167.998 108.328 167.589 107.766 167.064C107.088 166.323 106.633 165.407 106.451 164.42C106.269 163.432 106.368 162.414 106.738 161.48L109.634 162.32C109.45 162.75 109.387 163.222 109.454 163.685C109.52 164.148 109.714 164.584 110.012 164.944C110.458 165.291 110.983 165.521 111.54 165.612C112.098 165.704 112.669 165.655 113.203 165.468C113.593 165.393 113.96 165.224 114.271 164.975C114.582 164.726 114.827 164.406 114.987 164.041C114.735 163.16 110.789 159.843 107.724 157.052C99.3283 149.705 88.8333 140.574 92.2547 133.228C92.727 132.072 93.4687 131.047 94.418 130.236C95.3674 129.425 96.4968 128.854 97.712 128.568C104.429 127.015 113.329 134.236 113.706 134.55L111.796 136.88C109.55 135.033 102.75 130.583 98.3837 131.507C97.6167 131.695 96.9067 132.067 96.3145 132.59C95.7224 133.112 95.2656 133.771 94.9833 134.508C92.5065 139.798 102.855 148.802 109.676 154.764C115.763 160.074 118.429 162.509 117.904 164.755C117.633 165.652 117.129 166.46 116.443 167.098C115.757 167.736 114.914 168.181 114 168.386C113.334 168.553 112.651 168.638 111.964 168.638Z" fill="white"/>
<path d="M171.911 168.638C171.237 168.64 170.566 168.548 169.917 168.365C168.999 168.163 168.152 167.72 167.462 167.082C166.772 166.444 166.265 165.633 165.992 164.734C165.467 162.488 168.091 160.053 174.22 154.743C181.063 148.781 191.411 139.777 188.913 134.487C188.642 133.804 188.21 133.196 187.655 132.714C187.1 132.232 186.437 131.89 185.723 131.717C180.958 130.667 173.129 135.915 170.589 138.014L168.784 135.663C169.225 135.327 179.279 127.267 186.499 128.799C187.667 129.063 188.755 129.602 189.672 130.373C190.589 131.143 191.307 132.122 191.768 133.228C195.21 140.574 184.715 149.705 176.298 157.051C173.171 159.78 169.288 163.16 169.036 164.251C169.204 164.776 170.064 165.259 170.82 165.468C171.349 165.661 171.918 165.713 172.473 165.621C173.028 165.53 173.551 165.296 173.989 164.944C174.267 164.575 174.439 164.139 174.487 163.68C174.535 163.222 174.457 162.759 174.262 162.341L177.18 161.501C177.549 162.436 177.646 163.457 177.461 164.444C177.275 165.432 176.814 166.348 176.13 167.085C175.565 167.61 174.9 168.017 174.176 168.284C173.452 168.551 172.682 168.671 171.911 168.638Z" fill="white"/>
<path opacity="0.28" d="M151.299 183.981C150.359 184.386 149.391 184.723 148.403 184.989V185.199H134.15V184.737C108.669 175.921 109.277 121.264 109.277 121.264H124.81C124.81 121.264 117.925 157.471 141.077 179.406C146.01 184.107 147.794 182.932 151.299 183.981Z" fill="white"/>
<path d="M159.779 185.178C158.819 185.319 157.843 185.319 156.883 185.178H159.779Z" fill="white"/>
<path opacity="0.28" d="M138.81 185.199V194.33L141.077 197.373V205.832L134.948 215.928H123.152L138.432 206.399V197.562L135.41 193.868V184.674L138.81 185.199Z" fill="white"/>
<path d="M134.15 185.22V184.758C108.669 175.942 109.277 121.285 109.277 121.285H113.79C113.79 121.285 111.02 169.414 135.41 184.674L136.249 185.22H134.15Z" fill="url(#paint6_linear_375_911)"/>
<path d="M148.403 184.989V193.385L146.304 196.093C141.854 194.56 141.161 191.286 148.403 184.989Z" fill="white"/>
<path d="M151.299 183.981C150.359 184.386 149.391 184.723 148.403 184.989C171.995 164.524 159.779 121.285 159.779 121.285L172.667 121.935C172.982 127.938 175.081 173.948 151.299 183.981Z" fill="url(#paint7_linear_375_911)"/>
<path d="M33.9448 65.9134L35.4141 62.9119C36.7801 59.9444 38.3878 57.0941 40.2208 54.39C44.02 49.1635 45.993 42.8456 49.2674 37.2623C49.4822 36.9589 49.6126 36.604 49.6453 36.2337C49.6453 35.4151 48.6797 34.9534 47.8611 34.7435C46.7861 34.3854 45.6378 34.3059 44.5237 34.5126C43.9686 34.6236 43.4573 34.8927 43.0514 35.2874C42.6455 35.6821 42.3623 36.1857 42.2358 36.7375C42.2221 37.3775 42.2713 38.0173 42.3828 38.6476C42.3178 40.4343 41.7019 42.1572 40.6196 43.5802L32.3496 56.9718C31.2105 58.4719 30.4866 60.2455 30.2506 62.1143C30.2988 63.0886 30.7005 64.0119 31.3805 64.7112C32.0606 65.4106 32.9723 65.838 33.9448 65.9134Z" fill="#FFBBAB"/>
<path d="M33.9449 65.9134C34.615 64.892 34.8633 63.6507 34.6376 62.4501C34.3965 60.871 34.3965 59.2645 34.6376 57.6854C35.137 56.1682 35.224 54.5455 34.8894 52.9836C34.8894 52.9836 34.8895 52.8367 34.7635 52.7947C34.7132 52.763 34.655 52.7462 34.5956 52.7462C34.5362 52.7462 34.4779 52.763 34.4277 52.7947C33.9155 53.1027 33.5345 53.5883 33.3572 54.1591C32.4756 56.2581 29.7889 59.8054 30.1667 62.0933C30.2119 63.0847 30.6233 64.0242 31.3212 64.7299C32.0191 65.4356 32.954 65.8573 33.9449 65.9134Z" fill="url(#paint8_linear_375_911)"/>
<path d="M27.0811 67.2778L31.405 61.7994L36.5475 66.5012L31.6989 70.8671L27.0811 67.2778Z" fill="white"/>
<path d="M27.0811 67.2778L31.405 61.7994L36.5475 66.5012L31.6989 70.8671L27.0811 67.2778Z" fill="url(#paint9_linear_375_911)"/>
<path d="M38.1428 74.0365L40.1368 74.7291C40.8295 74.96 42.2358 75.8836 42.8865 75.2539C43.5372 74.6242 42.8865 72.7141 42.8865 72.0215C42.5555 69.5365 41.9574 67.0945 41.1024 64.738C40.7847 64.1749 40.5887 63.5514 40.5273 62.9078C40.4658 62.2641 40.5402 61.6148 40.7456 61.0018C40.926 60.6806 41.1879 60.4126 41.5047 60.2247C41.8216 60.0368 42.1823 59.9356 42.5507 59.9313C42.9142 59.9372 43.2708 60.0322 43.5891 60.2078C43.9075 60.3835 44.1779 60.6344 44.3768 60.9388C44.6613 61.6122 44.8656 62.3167 44.9855 63.0378C45.2088 63.5082 45.296 64.0317 45.2374 64.5491C45.1216 64.7792 45.0234 65.0178 44.9435 65.2627C44.9291 65.5364 44.9794 65.8097 45.0905 66.0603L47.7142 72.966C48.4411 74.4418 48.7185 76.0986 48.5118 77.7307C48.1475 78.8039 47.4305 79.7222 46.4776 80.3358C45.5247 80.9495 44.3921 81.2224 43.2643 81.1101C40.7618 80.8618 38.3529 80.0277 36.2327 78.6752C36.0018 78.5493 35.729 78.3184 35.8129 78.0665C35.8765 77.9571 35.9716 77.8693 36.0858 77.8147C36.7646 77.4226 37.3346 76.867 37.744 76.1984C37.9724 75.8931 38.1272 75.5391 38.1964 75.1641C38.2656 74.7891 38.2472 74.4032 38.1428 74.0365Z" fill="#FFBBAB"/>
<path d="M32.2236 62.8069C32.1736 63.0945 32.0341 63.359 31.8248 63.5626C31.5016 63.7651 31.1345 63.8875 30.7544 63.9194C30.3633 63.9631 29.9923 64.1158 29.6839 64.3602C29.6361 64.447 29.611 64.5445 29.611 64.6435C29.611 64.7426 29.6361 64.8401 29.6839 64.9269L30.2506 67.3407C30.313 67.5173 30.313 67.7099 30.2506 67.8865C30.1387 68.0953 29.9508 68.2531 29.7259 68.3273C28.8863 68.7261 27.8158 69.0829 27.0811 68.5162C26.7112 68.183 26.4544 67.7428 26.3465 67.2568C25.2656 64.577 24.614 61.7436 24.4154 58.8608C24.3365 57.9926 24.4456 57.1176 24.7354 56.2953C25.0252 55.4731 25.4888 54.723 26.0946 54.0961C27.274 53.1393 28.78 52.68 30.2926 52.8157C30.6314 52.8323 30.9611 52.9306 31.2535 53.1025C31.546 53.2743 31.7924 53.5144 31.9718 53.8023C32.2027 54.2221 31.9718 54.6628 32.1187 55.1246C32.1848 55.7977 32.3041 56.4644 32.4755 57.1187C32.5616 57.4326 32.6667 57.7411 32.7904 58.0422C32.9314 58.2902 33.0306 58.5597 33.0842 58.8398C33.086 59.3556 32.9712 59.865 32.7484 60.3301C32.5381 60.9002 32.3903 61.4913 32.3076 62.0933C32.3496 62.3871 32.3496 62.597 32.2236 62.8069Z" fill="#FFBBAB"/>
<path d="M32.8744 52.5429C32.7903 53.0774 32.5759 53.5829 32.2501 54.0149C31.9243 54.4469 31.4971 54.7919 31.0063 55.0197C28.7394 56.0902 25.507 55.9433 26.3676 59.2177C26.8629 60.496 27.0562 61.8715 26.9324 63.2369C26.8086 64.6022 26.3711 65.9205 25.6539 67.0889C25.1292 67.8655 24.4785 68.5372 24.0167 69.3558C23.2611 70.6152 23.0302 72.1475 22.2116 73.3649C20.5744 75.7787 17.258 76.2825 14.3614 76.2825C13.2533 76.2586 12.1524 76.4659 11.1289 76.8912C8.75706 78.0666 7.68657 81.5509 5.06284 81.6769C2.4391 81.8028 1.53654 78.3815 0.067245 76.7023C-0.936443 75.6917 -1.61168 74.4016 -1.87009 73.001C-2.1285 71.6003 -1.95805 70.1542 -1.38105 68.852C1.32664 63.3107 10.1634 63.6466 13.5008 58.3571C15.5578 55.2926 15.5578 51.0946 19.1261 49.1216C21.0871 48.2088 23.2403 47.7854 25.4009 47.8878C27.5616 47.9902 29.6651 48.6152 31.5311 49.7093C32.0235 49.9815 32.418 50.4014 32.6591 50.9098C32.9001 51.4182 32.9754 51.9894 32.8744 52.5429Z" fill="#3AB091"/>
<path d="M36.7574 91.9198C37.0123 92.1271 37.3044 92.2838 37.618 92.3816C38.7169 92.6514 39.8582 92.7014 40.9764 92.5285C42.5915 92.4446 44.2099 92.4446 45.8251 92.5285C46.2174 92.5084 46.6063 92.6112 46.9375 92.8224C47.4833 93.2842 47.3153 94.1448 47.0845 94.8164C46.0784 97.8718 44.9083 100.871 43.5792 103.8C43.1201 105.08 42.3221 106.212 41.2703 107.075C40.4395 107.59 39.51 107.926 38.5416 108.061C36.5951 108.46 34.625 108.734 32.6434 108.88C30.714 109.161 28.7442 108.899 26.9552 108.124C25.0443 106.972 23.6359 105.144 23.0091 103.002C22.2053 100.939 22.0086 98.6884 22.4423 96.5166C22.9671 94.2077 24.0166 93.5361 23.3659 91.0593C22.5044 87.9874 21.9006 84.849 21.5608 81.6768C21.2879 78.7974 21.5585 75.8924 22.3584 73.1129C22.6761 71.8259 23.216 70.6041 23.9536 69.5026C24.7069 68.4211 25.8123 67.6346 27.0811 67.2777C27.7102 67.1158 28.3708 67.1218 28.9969 67.2949C29.623 67.468 30.1928 67.8022 30.6494 68.2642C33.1052 70.93 36.4636 71.0769 39.2552 73.3648C39.4185 73.4696 39.5436 73.6241 39.6121 73.8056C39.6848 73.9947 39.6848 74.2041 39.6121 74.3933L37.7859 78.7802C37.6059 79.2524 37.3735 79.703 37.0933 80.1235C36.8414 80.4804 36.5266 80.7742 36.2957 81.131C35.6618 82.2037 35.3418 83.4328 35.3721 84.6783C35.3511 86.7773 34.8474 90.4296 36.7574 91.9198Z" fill="white"/>
<path d="M34.0917 94.7325C33.7598 94.8949 33.391 94.9669 33.0224 94.9411C32.6539 94.9153 32.2987 94.7927 31.9927 94.5856C30.5234 93.4941 31.6568 92.7385 31.9927 91.605C32.4423 90.0375 32.5637 88.394 32.3495 86.7774C32.1186 83.6499 31.8667 80.4804 31.6358 77.3739C31.7618 78.1505 35.456 79.242 36.9043 80.2285C36.6524 80.5854 36.3376 80.8792 36.1067 81.236C34.4695 83.6289 35.3301 88.4146 35.372 91.1223C35.477 92.4236 35.3091 94.0609 34.0917 94.7325Z" fill="url(#paint10_linear_375_911)"/>
<path d="M51.1145 54.348C51.7395 56.7428 51.7395 59.2578 51.1145 61.6525C51.0024 61.7656 50.866 61.8518 50.7157 61.9044C50.6001 61.9444 50.4745 61.9444 50.3589 61.9044C49.4143 61.7155 44.0619 58.2102 37.765 60.4141C37.4463 60.5333 37.1052 60.5806 36.7661 60.5526C36.427 60.5246 36.0982 60.422 35.8034 60.2521C35.5086 60.0822 35.255 59.8493 35.0607 59.57C34.8664 59.2906 34.7362 58.9718 34.6795 58.6363C34.6228 58.3008 34.641 57.9569 34.7327 57.6293C34.8244 57.3016 34.9873 56.9982 35.21 56.7409C35.4326 56.4836 35.7093 56.2787 36.0204 56.1408C36.3315 56.0029 36.6692 55.9354 37.0093 55.9433C37.0093 55.9433 45.2583 53.1936 47.0425 48.3029C47.2734 47.5683 47.7352 47.2954 48.2599 47.3794C48.5901 47.4449 48.8996 47.5889 49.1625 47.7992C50.2148 49.8417 50.8768 52.0627 51.1145 54.348Z" fill="white"/>
<path d="M51.1146 54.348C51.7396 56.7428 51.7396 59.2578 51.1146 61.6525C51.0846 61.7156 51.0406 61.771 50.9861 61.8146C50.9316 61.8583 50.8678 61.889 50.7997 61.9044C49.9601 61.9044 48.7007 58.7559 48.113 54.8728C47.5253 50.9897 47.5673 47.9461 48.26 47.3794H48.4279C48.6588 47.3794 48.8897 47.5263 49.1625 47.8832C50.205 49.8998 50.8667 52.0914 51.1146 54.348Z" fill="url(#paint11_linear_375_911)"/>
<path d="M63.3517 114.862C63.0665 114.945 62.8216 115.13 62.663 115.381C62.5045 115.632 62.4434 115.933 62.4911 116.226C62.4911 116.562 62.89 116.898 62.743 117.213C62.6921 117.299 62.6221 117.372 62.5384 117.426C62.4547 117.481 62.3595 117.516 62.2603 117.528C60.2915 118.13 58.1701 117.988 56.2991 117.129C56.2533 117.294 56.2524 117.469 56.2967 117.635C56.341 117.801 56.4288 117.952 56.551 118.073C56.8384 118.606 57.2669 119.049 57.7894 119.354C58.1379 119.488 58.5075 119.559 58.8809 119.564C61.8105 119.525 64.6532 118.563 67.004 116.814C67.228 116.673 67.4267 116.496 67.5917 116.289C67.6624 116.176 67.6999 116.045 67.6999 115.911C67.6999 115.778 67.6624 115.647 67.5917 115.533C67.4657 115.219 67.0879 115.114 66.7521 115.051C66.1677 114.964 65.5792 114.908 64.9889 114.883C64.4503 114.765 63.8932 114.758 63.3517 114.862Z" fill="white"/>
<defs>
<linearGradient id="paint0_linear_375_911" x1="140.217" y1="146.787" x2="146.472" y2="71.7276" gradientUnits="userSpaceOnUse">
<stop offset="0.01"/>
<stop offset="0.08" stop-opacity="0.69"/>
<stop offset="0.21" stop-opacity="0.32"/>
<stop offset="1" stop-opacity="0"/>
</linearGradient>
<linearGradient id="paint1_linear_375_911" x1="1157.45" y1="1584.03" x2="1519.14" y2="1040.29" gradientUnits="userSpaceOnUse">
<stop offset="0.01"/>
<stop offset="0.08" stop-opacity="0.69"/>
<stop offset="0.21" stop-opacity="0.32"/>
<stop offset="1" stop-opacity="0"/>
</linearGradient>
<linearGradient id="paint2_linear_375_911" x1="-2471.35" y1="13313.9" x2="-3445.75" y2="12573.2" gradientUnits="userSpaceOnUse">
<stop offset="0.01"/>
<stop offset="0.08" stop-opacity="0.69"/>
<stop offset="0.21" stop-opacity="0.32"/>
<stop offset="1" stop-opacity="0"/>
</linearGradient>
<linearGradient id="paint3_linear_375_911" x1="-32.3202" y1="80.1026" x2="164.733" y2="119.291" gradientUnits="userSpaceOnUse">
<stop offset="0.01"/>
<stop offset="0.13" stop-opacity="0.69"/>
<stop offset="0.25" stop-opacity="0.32"/>
<stop offset="1" stop-opacity="0"/>
</linearGradient>
<linearGradient id="paint4_linear_375_911" x1="2760.28" y1="1368.72" x2="2662.23" y2="2571.26" gradientUnits="userSpaceOnUse">
<stop offset="0.01"/>
<stop offset="0.13" stop-opacity="0.69"/>
<stop offset="0.25" stop-opacity="0.32"/>
<stop offset="1" stop-opacity="0"/>
</linearGradient>
<linearGradient id="paint5_linear_375_911" x1="2635.87" y1="7674.9" x2="13011.1" y2="26286.8" gradientUnits="userSpaceOnUse">
<stop offset="0.01"/>
<stop offset="0.08" stop-opacity="0.69"/>
<stop offset="0.21" stop-opacity="0.32"/>
<stop offset="1" stop-opacity="0"/>
</linearGradient>
<linearGradient id="paint6_linear_375_911" x1="2016.83" y1="6112.01" x2="3830.23" y2="5973.68" gradientUnits="userSpaceOnUse">
<stop offset="0.01"/>
<stop offset="0.13" stop-opacity="0.69"/>
<stop offset="0.25" stop-opacity="0.32"/>
<stop offset="1" stop-opacity="0"/>
</linearGradient>
<linearGradient id="paint7_linear_375_911" x1="3888.1" y1="5987.81" x2="1927.34" y2="5882.51" gradientUnits="userSpaceOnUse">
<stop offset="0.01"/>
<stop offset="0.13" stop-opacity="0.69"/>
<stop offset="0.25" stop-opacity="0.32"/>
<stop offset="1" stop-opacity="0"/>
</linearGradient>
<linearGradient id="paint8_linear_375_911" x1="910.237" y1="-1705.57" x2="947.804" y2="-1716.69" gradientUnits="userSpaceOnUse">
<stop offset="0.01"/>
<stop offset="0.13" stop-opacity="0.69"/>
<stop offset="0.25" stop-opacity="0.32"/>
<stop offset="1" stop-opacity="0"/>
</linearGradient>
<linearGradient id="paint9_linear_375_911" x1="2577.98" y1="-1352.51" x2="2707.19" y2="-1393.49" gradientUnits="userSpaceOnUse">
<stop offset="0.01"/>
<stop offset="0.13" stop-opacity="0.69"/>
<stop offset="0.25" stop-opacity="0.32"/>
<stop offset="1" stop-opacity="0"/>
</linearGradient>
<linearGradient id="paint10_linear_375_911" x1="1043.64" y1="-2208.08" x2="1153.24" y2="-2218.55" gradientUnits="userSpaceOnUse">
<stop offset="0.01"/>
<stop offset="0.13" stop-opacity="0.69"/>
<stop offset="0.25" stop-opacity="0.32"/>
<stop offset="1" stop-opacity="0"/>
</linearGradient>
<linearGradient id="paint11_linear_375_911" x1="523.739" y1="-1907.51" x2="572.34" y2="-1911.61" gradientUnits="userSpaceOnUse">
<stop offset="0.01"/>
<stop offset="0.13" stop-opacity="0.69"/>
<stop offset="0.25" stop-opacity="0.32"/>
<stop offset="1" stop-opacity="0"/>
</linearGradient>
</defs>
</svg>
