<svg width="285" height="272" viewBox="0 0 285 272" fill="none" xmlns="http://www.w3.org/2000/svg">
<path d="M122.644 272C182.447 272 230.927 269.023 230.927 265.35C230.927 261.677 182.447 258.699 122.644 258.699C62.8404 258.699 14.3602 261.677 14.3602 265.35C14.3602 269.023 62.8404 272 122.644 272Z" fill="#3AB091"/>
<path opacity="0.8" d="M122.644 272C182.447 272 230.927 269.023 230.927 265.35C230.927 261.677 182.447 258.699 122.644 258.699C62.8404 258.699 14.3602 261.677 14.3602 265.35C14.3602 269.023 62.8404 272 122.644 272Z" fill="white"/>
<path d="M204.014 12.4611H95.135C87.618 12.4611 81.5243 18.4686 81.5243 25.8793V252.491C81.5243 259.901 87.618 265.909 95.135 265.909H204.014C211.531 265.909 217.625 259.901 217.625 252.491V25.8793C217.625 18.4686 211.531 12.4611 204.014 12.4611Z" fill="#263238"/>
<path d="M211.572 40.292H87.5696V238.078H211.572V40.292Z" fill="white" stroke="#263238" stroke-width="1.33739" stroke-miterlimit="10"/>
<path d="M168.58 120.381C179.077 110.033 179.077 93.2555 168.58 82.9074C158.084 72.5592 141.065 72.5592 130.569 82.9074C120.072 93.2555 120.072 110.033 130.569 120.381C141.065 130.729 158.084 130.729 168.58 120.381Z" fill="#3AB091"/>
<path d="M184.862 225.64H114.294C114.135 225.641 113.977 225.611 113.83 225.552C113.683 225.493 113.55 225.405 113.437 225.295C113.325 225.185 113.235 225.053 113.174 224.909C113.113 224.764 113.082 224.609 113.082 224.453C113.081 224.296 113.112 224.14 113.172 223.994C113.233 223.849 113.322 223.717 113.435 223.606C113.547 223.495 113.681 223.407 113.829 223.347C113.976 223.287 114.134 223.257 114.294 223.258H184.862C185.021 223.258 185.178 223.289 185.325 223.349C185.472 223.409 185.605 223.497 185.717 223.608C185.829 223.719 185.917 223.851 185.977 223.996C186.038 224.141 186.068 224.296 186.067 224.453C186.067 224.768 185.94 225.07 185.714 225.293C185.488 225.515 185.182 225.64 184.862 225.64Z" fill="#3AB091"/>
<path d="M187.16 143.039H111.989C110.438 143.039 109.18 144.278 109.18 145.808V154.544C109.18 156.073 110.438 157.313 111.989 157.313H187.16C188.711 157.313 189.969 156.073 189.969 154.544V145.808C189.969 144.278 188.711 143.039 187.16 143.039Z" fill="#3AB091"/>
<path d="M187.16 169.737H111.989C110.438 169.737 109.18 170.977 109.18 172.506V181.242C109.18 182.772 110.438 184.011 111.989 184.011H187.16C188.711 184.011 189.969 182.772 189.969 181.242V172.506C189.969 170.977 188.711 169.737 187.16 169.737Z" fill="#3AB091"/>
<path d="M162.958 114.862L155.049 110.373V106.665C156.194 105.299 157.024 103.704 157.48 101.99C157.752 102.085 158.038 102.134 158.327 102.135C159.308 102.135 159.931 99.1375 160.036 96.9967C161.178 94.6141 159.623 93.2191 159.623 93.2191C159.623 93.2191 160.268 92.5838 160.695 90.0355C161.122 87.4872 159.189 88.5507 157.683 86.2165C156.177 83.8823 155.098 81.3409 150.152 81.3409C148.79 81.2967 147.445 81.6577 146.293 82.377C145.141 83.0962 144.236 84.1405 143.694 85.374C142.463 85.3783 141.236 85.5197 140.037 85.7952C138.524 86.2165 138.097 91.099 139.386 93.0119C139.963 94.0574 140.271 95.2264 140.282 96.4166C139.939 96.0022 139.582 95.8917 139.386 96.8309C138.958 98.951 140.682 101.921 140.682 101.921L141.571 101.672C142.019 103.504 142.884 105.211 144.1 106.665V110.373L136.191 114.862C135.268 115.388 134.501 116.144 133.967 117.054C133.433 117.965 133.152 118.997 133.151 120.049V122.618C137.855 126.2 143.631 128.143 149.574 128.143C155.518 128.143 161.294 126.2 165.998 122.618V120.049C165.998 118.997 165.718 117.964 165.184 117.053C164.65 116.143 163.882 115.387 162.958 114.862Z" fill="#263238"/>
<path d="M119.414 180.462C119.233 180.459 119.06 180.387 118.931 180.262C118.862 180.201 118.807 180.126 118.77 180.043C118.732 179.96 118.713 179.869 118.714 179.778C118.716 179.654 118.752 179.532 118.819 179.426L120.08 177.437L117.621 177.513C117.528 177.519 117.436 177.505 117.349 177.473C117.262 177.441 117.183 177.391 117.117 177.327C117.003 177.2 116.939 177.037 116.939 176.867C116.939 176.698 117.003 176.534 117.117 176.408C117.181 176.341 117.26 176.289 117.347 176.256C117.434 176.223 117.528 176.208 117.621 176.215L120.045 176.304L118.798 174.322C118.73 174.215 118.694 174.09 118.693 173.963C118.692 173.872 118.711 173.782 118.749 173.699C118.786 173.615 118.841 173.541 118.91 173.48C119.039 173.354 119.212 173.282 119.393 173.28C119.513 173.28 119.629 173.315 119.73 173.378C119.83 173.442 119.91 173.532 119.961 173.639L121.159 175.773L122.342 173.653C122.399 173.539 122.485 173.444 122.593 173.375C122.7 173.307 122.824 173.269 122.952 173.266C123.04 173.266 123.128 173.285 123.209 173.321C123.29 173.356 123.362 173.408 123.421 173.473C123.55 173.604 123.62 173.781 123.617 173.963C123.617 174.082 123.586 174.198 123.526 174.302L122.258 176.304L124.717 176.215C124.81 176.208 124.904 176.223 124.991 176.256C125.078 176.289 125.157 176.341 125.222 176.408C125.341 176.53 125.406 176.694 125.404 176.864C125.403 177.035 125.338 177.2 125.222 177.327C125.156 177.391 125.077 177.441 124.99 177.473C124.903 177.505 124.81 177.519 124.717 177.513L122.244 177.437L123.477 179.405C123.546 179.515 123.583 179.642 123.582 179.771C123.582 179.954 123.509 180.13 123.377 180.26C123.246 180.389 123.068 180.462 122.882 180.462C122.762 180.46 122.645 180.424 122.545 180.358C122.446 180.292 122.368 180.198 122.321 180.089L121.152 178.017L119.989 180.089C119.937 180.197 119.856 180.289 119.755 180.355C119.654 180.421 119.536 180.458 119.414 180.462Z" fill="#263238"/>
<path d="M130.777 180.462C130.595 180.459 130.422 180.387 130.293 180.262C130.224 180.201 130.169 180.126 130.132 180.043C130.094 179.96 130.075 179.869 130.076 179.778C130.078 179.654 130.114 179.532 130.181 179.426L131.442 177.437L128.99 177.513C128.897 177.517 128.803 177.503 128.715 177.471C128.628 177.439 128.547 177.39 128.479 177.327C128.386 177.232 128.324 177.112 128.301 176.982C128.278 176.852 128.295 176.719 128.351 176.599C128.406 176.479 128.496 176.378 128.61 176.31C128.724 176.241 128.857 176.208 128.99 176.215L131.407 176.304L130.16 174.322C130.092 174.215 130.056 174.09 130.055 173.963C130.054 173.872 130.073 173.782 130.111 173.699C130.148 173.615 130.203 173.541 130.272 173.48C130.401 173.354 130.574 173.282 130.756 173.28C130.875 173.28 130.992 173.315 131.092 173.378C131.192 173.442 131.273 173.532 131.323 173.639L132.521 175.773L133.705 173.653C133.761 173.539 133.847 173.444 133.955 173.375C134.062 173.307 134.186 173.269 134.314 173.266C134.403 173.265 134.49 173.284 134.571 173.319C134.652 173.355 134.725 173.408 134.783 173.473C134.848 173.538 134.9 173.614 134.935 173.698C134.969 173.782 134.987 173.872 134.987 173.963C134.984 174.083 134.95 174.199 134.888 174.302L133.621 176.304L136.086 176.228C136.179 176.222 136.271 176.236 136.357 176.27C136.443 176.303 136.521 176.355 136.584 176.422C136.703 176.544 136.769 176.708 136.766 176.878C136.765 177.049 136.7 177.214 136.584 177.34C136.519 177.405 136.441 177.454 136.355 177.487C136.27 177.519 136.178 177.532 136.086 177.527L133.607 177.451L134.839 179.419C134.909 179.529 134.945 179.656 134.945 179.785C134.945 179.968 134.871 180.144 134.739 180.273C134.608 180.403 134.43 180.476 134.244 180.476C134.124 180.474 134.007 180.438 133.907 180.372C133.808 180.305 133.73 180.212 133.684 180.103L132.514 178.031L131.351 180.103C131.297 180.208 131.216 180.298 131.114 180.361C131.013 180.424 130.896 180.459 130.777 180.462Z" fill="#263238"/>
<path d="M142.146 180.462C141.962 180.461 141.786 180.389 141.655 180.262C141.586 180.201 141.531 180.126 141.494 180.043C141.457 179.96 141.437 179.869 141.438 179.778C141.44 179.654 141.477 179.532 141.543 179.426L142.804 177.437L140.352 177.513C140.22 177.518 140.09 177.484 139.977 177.416C139.865 177.348 139.775 177.248 139.72 177.13C139.666 177.011 139.648 176.879 139.669 176.751C139.691 176.622 139.751 176.503 139.841 176.408C139.907 176.342 139.987 176.29 140.075 176.256C140.164 176.223 140.258 176.209 140.352 176.215L142.769 176.304L141.522 174.322C141.454 174.215 141.418 174.09 141.417 173.963C141.419 173.873 141.44 173.783 141.477 173.7C141.514 173.617 141.568 173.542 141.634 173.48C141.765 173.352 141.941 173.28 142.125 173.28C142.243 173.282 142.358 173.316 142.457 173.38C142.556 173.443 142.635 173.533 142.685 173.639L143.883 175.773L145.067 173.653C145.123 173.539 145.209 173.444 145.317 173.375C145.424 173.307 145.549 173.269 145.676 173.266C145.765 173.265 145.853 173.284 145.934 173.319C146.014 173.355 146.087 173.408 146.146 173.473C146.21 173.538 146.262 173.614 146.297 173.698C146.332 173.782 146.349 173.872 146.349 173.963C146.346 174.083 146.312 174.199 146.251 174.302L144.983 176.304L147.448 176.215C147.539 176.206 147.631 176.216 147.717 176.245C147.803 176.274 147.882 176.321 147.949 176.382C148.015 176.444 148.067 176.518 148.102 176.602C148.136 176.685 148.152 176.774 148.149 176.864C148.15 177.034 148.088 177.199 147.974 177.327C147.908 177.391 147.829 177.441 147.742 177.473C147.655 177.505 147.562 177.519 147.469 177.513L144.997 177.437L146.223 179.405C146.292 179.515 146.328 179.642 146.328 179.771C146.325 179.862 146.305 179.951 146.268 180.034C146.231 180.117 146.177 180.192 146.111 180.255C146.05 180.319 145.976 180.371 145.894 180.407C145.812 180.442 145.724 180.461 145.634 180.462C145.515 180.46 145.399 180.423 145.301 180.357C145.202 180.291 145.126 180.198 145.081 180.089L143.904 178.017L142.741 180.089C142.689 180.201 142.605 180.296 142.499 180.362C142.393 180.428 142.271 180.463 142.146 180.462Z" fill="#263238"/>
<path d="M153.508 180.462C153.324 180.461 153.148 180.389 153.017 180.262C152.885 180.134 152.81 179.96 152.807 179.778C152.805 179.654 152.839 179.532 152.905 179.426L154.166 177.437L151.715 177.513C151.621 177.517 151.528 177.503 151.44 177.471C151.352 177.439 151.271 177.39 151.203 177.327C151.089 177.2 151.026 177.037 151.026 176.867C151.026 176.698 151.089 176.534 151.203 176.408C151.271 176.344 151.351 176.293 151.439 176.26C151.527 176.227 151.62 176.211 151.715 176.215L154.138 176.304L152.898 174.322C152.831 174.215 152.794 174.09 152.793 173.963C152.796 173.873 152.816 173.783 152.853 173.7C152.89 173.617 152.944 173.542 153.01 173.48C153.141 173.352 153.317 173.28 153.501 173.28C153.62 173.28 153.737 173.315 153.837 173.378C153.938 173.442 154.018 173.532 154.068 173.639L155.259 175.773L156.443 173.653C156.499 173.539 156.586 173.444 156.693 173.375C156.8 173.307 156.925 173.269 157.052 173.266C157.141 173.265 157.229 173.284 157.31 173.319C157.391 173.355 157.463 173.408 157.522 173.473C157.587 173.538 157.638 173.614 157.673 173.698C157.708 173.782 157.725 173.872 157.725 173.963C157.722 174.083 157.689 174.199 157.627 174.302L156.359 176.304L158.825 176.215C158.915 176.206 159.007 176.216 159.093 176.245C159.179 176.274 159.258 176.321 159.325 176.382C159.391 176.444 159.443 176.518 159.478 176.602C159.512 176.685 159.529 176.774 159.525 176.864C159.527 177.034 159.464 177.199 159.35 177.327C159.284 177.391 159.205 177.441 159.118 177.473C159.031 177.505 158.938 177.519 158.846 177.513L156.373 177.437L157.599 179.405C157.668 179.515 157.704 179.642 157.704 179.771C157.704 179.862 157.685 179.953 157.648 180.036C157.611 180.119 157.556 180.194 157.487 180.255C157.426 180.319 157.352 180.371 157.27 180.407C157.188 180.442 157.1 180.461 157.01 180.462C156.891 180.46 156.775 180.423 156.677 180.357C156.579 180.291 156.502 180.198 156.457 180.089L155.28 178.017L154.117 180.089C154.064 180.203 153.978 180.299 153.869 180.365C153.761 180.432 153.635 180.465 153.508 180.462Z" fill="#263238"/>
<path d="M164.87 180.462C164.686 180.461 164.51 180.389 164.38 180.262C164.271 180.153 164.202 180.012 164.183 179.861C164.164 179.71 164.196 179.557 164.275 179.426L165.528 177.437L163.077 177.513C162.983 177.517 162.89 177.503 162.802 177.471C162.714 177.439 162.634 177.39 162.565 177.327C162.451 177.2 162.388 177.037 162.388 176.867C162.388 176.698 162.451 176.535 162.565 176.408C162.633 176.344 162.713 176.293 162.801 176.26C162.889 176.227 162.983 176.211 163.077 176.215L165.5 176.304L164.253 174.322C164.186 174.215 164.149 174.09 164.148 173.963C164.151 173.781 164.227 173.607 164.359 173.48C164.489 173.352 164.665 173.28 164.849 173.28C164.968 173.28 165.085 173.315 165.185 173.378C165.286 173.442 165.366 173.532 165.416 173.639L166.607 175.773L167.791 173.653C167.847 173.539 167.934 173.444 168.041 173.375C168.148 173.307 168.273 173.269 168.4 173.266C168.49 173.265 168.579 173.284 168.661 173.319C168.743 173.355 168.817 173.407 168.877 173.473C169.005 173.604 169.076 173.781 169.073 173.963C169.07 174.083 169.037 174.199 168.975 174.302L167.707 176.304L170.173 176.215C170.263 176.206 170.355 176.216 170.441 176.245C170.527 176.274 170.606 176.321 170.673 176.382C170.739 176.444 170.791 176.518 170.826 176.602C170.861 176.685 170.877 176.774 170.873 176.864C170.875 177.034 170.812 177.199 170.698 177.327C170.632 177.391 170.553 177.441 170.466 177.473C170.379 177.505 170.286 177.519 170.194 177.513L167.721 177.437L168.947 179.405C169.016 179.515 169.052 179.642 169.052 179.771C169.053 179.862 169.034 179.953 168.996 180.036C168.959 180.119 168.904 180.194 168.835 180.255C168.774 180.319 168.7 180.371 168.618 180.407C168.536 180.442 168.448 180.461 168.358 180.462C168.239 180.46 168.123 180.423 168.025 180.357C167.927 180.291 167.85 180.198 167.805 180.089L166.628 178.017L165.465 180.089C165.413 180.201 165.329 180.296 165.223 180.362C165.118 180.428 164.995 180.463 164.87 180.462Z" fill="#263238"/>
<path d="M176.232 180.462C176.051 180.459 175.877 180.387 175.749 180.262C175.68 180.201 175.625 180.126 175.587 180.043C175.55 179.96 175.531 179.869 175.532 179.778C175.534 179.654 175.57 179.532 175.637 179.426L176.891 177.437L174.439 177.513C174.349 177.52 174.258 177.508 174.173 177.478C174.087 177.448 174.009 177.402 173.943 177.341C173.878 177.279 173.825 177.206 173.79 177.123C173.755 177.041 173.737 176.953 173.738 176.864C173.738 176.779 173.754 176.696 173.787 176.617C173.819 176.539 173.867 176.468 173.927 176.408C173.992 176.341 174.071 176.289 174.158 176.256C174.245 176.223 174.338 176.208 174.432 176.215L176.856 176.304L175.609 174.322C175.541 174.215 175.504 174.09 175.504 173.963C175.506 173.781 175.582 173.607 175.714 173.48C175.844 173.352 176.02 173.28 176.204 173.28C176.323 173.28 176.44 173.315 176.541 173.378C176.641 173.442 176.721 173.532 176.771 173.639L177.962 175.773L179.153 173.653C179.209 173.54 179.294 173.445 179.4 173.377C179.506 173.309 179.629 173.271 179.756 173.266C179.845 173.265 179.934 173.284 180.016 173.319C180.098 173.355 180.172 173.407 180.232 173.473C180.36 173.604 180.431 173.781 180.428 173.963C180.428 174.082 180.396 174.198 180.337 174.302L179.069 176.304L181.528 176.215C181.621 176.208 181.715 176.223 181.802 176.256C181.889 176.289 181.968 176.341 182.032 176.408C182.152 176.53 182.217 176.694 182.214 176.864C182.214 177.035 182.149 177.2 182.032 177.327C181.966 177.391 181.887 177.441 181.8 177.473C181.713 177.505 181.62 177.519 181.528 177.513L179.055 177.437L180.281 179.405C180.35 179.515 180.386 179.642 180.386 179.771C180.383 179.953 180.308 180.127 180.176 180.255C180.048 180.383 179.875 180.457 179.693 180.462C179.573 180.46 179.458 180.423 179.359 180.357C179.261 180.291 179.184 180.198 179.139 180.089L177.962 178.017L176.799 180.089C176.749 180.197 176.669 180.289 176.569 180.354C176.469 180.42 176.352 180.457 176.232 180.462Z" fill="#263238"/>
<g style="mix-blend-mode:multiply">
<path d="M211.572 40.5544H87.5696V48.2131H211.572V40.5544Z" fill="#3AB091"/>
</g>
<path d="M163.056 26.4456H136.086C135.6 26.4456 135.133 26.2549 134.789 25.9156C134.444 25.5763 134.251 25.1161 134.251 24.6362C134.251 24.1563 134.444 23.6961 134.789 23.3568C135.133 23.0175 135.6 22.8268 136.086 22.8268H163.056C163.542 22.8268 164.009 23.0175 164.353 23.3568C164.698 23.6961 164.891 24.1563 164.891 24.6362C164.891 25.1161 164.698 25.5763 164.353 25.9156C164.009 26.2549 163.542 26.4456 163.056 26.4456Z" fill="#3AB091" stroke="#263238" stroke-width="1.33739" stroke-linecap="round" stroke-linejoin="round"/>
<path d="M156.926 249.252C156.928 247.817 156.497 246.414 155.69 245.221C154.882 244.027 153.733 243.097 152.389 242.547C151.045 241.997 149.565 241.853 148.138 242.133C146.71 242.412 145.399 243.103 144.37 244.118C143.341 245.132 142.64 246.425 142.357 247.832C142.073 249.239 142.219 250.698 142.777 252.023C143.335 253.348 144.278 254.481 145.489 255.277C146.7 256.073 148.123 256.498 149.578 256.496C151.526 256.494 153.394 255.731 154.772 254.372C156.15 253.014 156.924 251.173 156.926 249.252Z" fill="#3AB091"/>
<path d="M153.305 245.578H145.851V252.926H153.305V245.578Z" fill="#3AB091" stroke="#263238" stroke-width="1.33739" stroke-linecap="round" stroke-linejoin="round"/>
<path d="M238.36 165.87C238.36 165.87 228.595 141.409 237.288 138.501C246.338 135.47 245.939 151.623 245.589 159.495C244.853 176.318 242.969 179.447 241.561 175.338L238.36 165.87ZM235.424 184.951C238.107 188.404 238.864 184.826 234.023 168.673C231.754 161.077 226.822 145.711 219.257 151.478C211.993 157.002 229.281 177.03 229.281 177.03L235.424 184.951ZM230.241 198.97C232.798 201.207 232.847 198.383 226.773 186.719C223.922 181.256 217.891 170.2 212.952 175.669C208.21 180.945 224.371 193.77 224.371 193.77L230.241 198.97ZM224.637 215.641C227.194 217.885 227.243 215.054 221.169 203.396C218.318 197.934 212.287 186.871 207.348 192.347C202.634 197.637 218.746 210.461 218.746 210.461L224.637 215.641ZM240.818 181.705C236.727 183.279 239.978 184.992 257.063 184.944C265.077 184.944 281.44 184.585 277.952 175.807C274.611 167.375 250.275 178.114 250.275 178.114L240.818 181.705ZM236.16 192.92C231.831 193.659 234.675 195.979 251.431 199.281C259.284 200.834 275.388 203.7 273.742 194.446C272.166 185.524 246.149 191.283 246.149 191.283L236.16 192.92ZM230.948 206.615C227.264 207.139 229.617 209.163 243.704 212.34C250.31 213.831 263.865 216.628 262.688 208.735C261.567 201.138 239.431 205.434 239.431 205.434L230.948 206.615ZM226.99 219.301C223.383 220.205 225.94 221.973 240.3 223.658C247.025 224.446 260.804 225.813 258.793 218.085C256.853 210.668 235.305 217.236 235.305 217.236L226.99 219.301ZM248.104 167.941C246.002 172.582 250.366 171.878 265.203 159.116C272.152 153.128 286.092 140.601 275.052 134.365C264.453 128.37 253.056 157.292 253.056 157.292L248.104 167.941ZM227.537 235.827C225.316 237.104 227.495 237.602 237.68 235.599C242.457 234.667 252.173 232.595 248.888 228.506C245.708 224.57 232.679 232.857 232.679 232.857L227.537 235.827Z" fill="#3AB091"/>
<path opacity="0.3" d="M238.36 165.87C238.36 165.87 228.595 141.409 237.288 138.501C246.338 135.47 245.939 151.623 245.589 159.495C244.853 176.318 242.969 179.447 241.561 175.338L238.36 165.87ZM235.424 184.951C238.107 188.404 238.864 184.826 234.023 168.673C231.754 161.077 226.822 145.711 219.257 151.478C211.993 157.002 229.281 177.03 229.281 177.03L235.424 184.951ZM230.241 198.97C232.798 201.207 232.847 198.383 226.773 186.719C223.922 181.256 217.891 170.2 212.952 175.669C208.21 180.945 224.371 193.77 224.371 193.77L230.241 198.97ZM224.637 215.641C227.194 217.885 227.243 215.054 221.169 203.396C218.318 197.934 212.287 186.871 207.348 192.347C202.634 197.637 218.746 210.461 218.746 210.461L224.637 215.641ZM240.818 181.705C236.727 183.279 239.978 184.992 257.063 184.944C265.077 184.944 281.44 184.585 277.952 175.807C274.611 167.375 250.275 178.114 250.275 178.114L240.818 181.705ZM236.16 192.92C231.831 193.659 234.675 195.979 251.431 199.281C259.284 200.834 275.388 203.7 273.742 194.446C272.166 185.524 246.149 191.283 246.149 191.283L236.16 192.92ZM230.948 206.615C227.264 207.139 229.617 209.163 243.704 212.34C250.31 213.831 263.865 216.628 262.688 208.735C261.567 201.138 239.431 205.434 239.431 205.434L230.948 206.615ZM226.99 219.301C223.383 220.205 225.94 221.973 240.3 223.658C247.025 224.446 260.804 225.813 258.793 218.085C256.853 210.668 235.305 217.236 235.305 217.236L226.99 219.301ZM248.104 167.941C246.002 172.582 250.366 171.878 265.203 159.116C272.152 153.128 286.092 140.601 275.052 134.365C264.453 128.37 253.056 157.292 253.056 157.292L248.104 167.941ZM227.537 235.827C225.316 237.104 227.495 237.602 237.68 235.599C242.457 234.667 252.173 232.595 248.888 228.506C245.708 224.57 232.679 232.857 232.679 232.857L227.537 235.827Z" fill="white"/>
<path d="M242.668 177.257L240.965 149.337L242.668 177.257ZM237.281 186.47L226.521 162.458L237.281 186.47ZM265.049 179.488L239.263 183.134L265.049 179.488ZM231.705 199.412L217.744 181.753L231.705 199.412ZM234.157 193.997L253.392 194.95L234.157 193.997ZM229.603 207.54L244.314 208.976L229.603 207.54ZM226.052 216.145L218.746 205.309L226.052 216.145ZM225.211 219.971L242.507 220.13L225.211 219.971ZM221.709 251.959C221.825 251.95 221.932 251.897 222.008 251.81C222.084 251.723 222.123 251.611 222.115 251.496C221.015 235.212 227.404 208.541 237.652 186.649C244.202 172.658 269.875 145.159 270.148 144.882C270.231 144.801 270.277 144.69 270.277 144.575C270.277 144.46 270.231 144.349 270.148 144.268C270.108 144.228 270.06 144.196 270.007 144.174C269.954 144.152 269.897 144.141 269.84 144.141C269.783 144.141 269.726 144.152 269.673 144.174C269.62 144.196 269.572 144.228 269.532 144.268C269.273 144.544 243.494 172.147 236.889 186.263C226.451 208.686 220.147 234.874 221.267 251.552C221.276 251.661 221.326 251.764 221.408 251.84C221.49 251.915 221.597 251.958 221.709 251.959ZM242.661 177.686C242.777 177.678 242.885 177.627 242.962 177.541C243.04 177.456 243.08 177.344 243.074 177.23L241.4 149.295C241.397 149.238 241.383 149.183 241.358 149.131C241.333 149.08 241.298 149.034 241.255 148.996C241.212 148.958 241.162 148.929 241.107 148.91C241.053 148.892 240.995 148.884 240.937 148.888C240.822 148.895 240.713 148.947 240.636 149.032C240.559 149.117 240.518 149.229 240.524 149.344L242.226 177.264C242.232 177.374 242.28 177.478 242.361 177.554C242.442 177.63 242.549 177.672 242.661 177.672V177.686ZM237.435 186.864C237.54 186.817 237.622 186.731 237.664 186.625C237.706 186.52 237.704 186.402 237.659 186.297L226.892 162.285C226.846 162.181 226.759 162.099 226.652 162.058C226.544 162.016 226.424 162.019 226.318 162.064C226.212 162.11 226.129 162.196 226.087 162.302C226.045 162.408 226.047 162.526 226.094 162.631L236.854 186.643C236.887 186.72 236.943 186.785 237.014 186.832C237.085 186.879 237.168 186.904 237.253 186.905C237.325 186.909 237.398 186.894 237.463 186.864H237.435ZM239.298 183.549L265.07 179.916C265.132 179.915 265.193 179.901 265.249 179.874C265.306 179.848 265.356 179.81 265.396 179.764C265.437 179.717 265.467 179.663 265.484 179.604C265.502 179.545 265.506 179.483 265.498 179.422C265.489 179.361 265.468 179.303 265.435 179.251C265.402 179.199 265.358 179.154 265.307 179.12C265.255 179.086 265.197 179.063 265.135 179.052C265.074 179.042 265.011 179.045 264.951 179.06L239.179 182.692C239.064 182.7 238.956 182.752 238.88 182.837C238.804 182.923 238.765 183.035 238.773 183.148C238.78 183.262 238.833 183.368 238.92 183.443C239.007 183.518 239.12 183.556 239.235 183.549H239.298ZM231.95 199.757C232.042 199.686 232.101 199.583 232.115 199.469C232.13 199.355 232.098 199.24 232.027 199.149L218.059 181.456C217.988 181.365 217.882 181.305 217.766 181.29C217.65 181.275 217.532 181.306 217.439 181.377C217.346 181.447 217.286 181.551 217.27 181.666C217.255 181.781 217.287 181.896 217.359 181.988L231.355 199.709C231.395 199.76 231.447 199.802 231.507 199.831C231.566 199.859 231.632 199.874 231.698 199.874C231.802 199.869 231.902 199.828 231.978 199.757H231.95ZM253.778 194.971C253.781 194.857 253.739 194.746 253.661 194.662C253.582 194.578 253.473 194.528 253.357 194.522L234.157 193.562C234.049 193.57 233.947 193.616 233.872 193.692C233.796 193.768 233.751 193.869 233.746 193.976C233.741 194.082 233.776 194.187 233.843 194.27C233.911 194.353 234.008 194.408 234.115 194.426L253.35 195.386C253.466 195.389 253.579 195.348 253.664 195.27C253.749 195.193 253.8 195.085 253.806 194.971H253.778ZM244.72 209.018C244.727 208.961 244.722 208.903 244.706 208.849C244.69 208.794 244.663 208.742 244.626 208.698C244.589 208.654 244.544 208.617 244.493 208.59C244.442 208.563 244.386 208.546 244.328 208.541L229.617 207.112C229.56 207.106 229.503 207.112 229.448 207.128C229.393 207.144 229.342 207.171 229.297 207.207C229.253 207.243 229.216 207.287 229.19 207.337C229.163 207.387 229.146 207.442 229.141 207.499C229.131 207.612 229.167 207.724 229.24 207.812C229.313 207.9 229.419 207.956 229.533 207.968L244.244 209.405H244.286C244.399 209.412 244.51 209.376 244.597 209.304C244.683 209.232 244.737 209.129 244.748 209.018H244.72ZM226.262 216.504C226.359 216.44 226.427 216.342 226.451 216.229C226.474 216.117 226.452 215.999 226.388 215.903L219.117 205.068C219.05 204.974 218.95 204.91 218.836 204.888C218.722 204.866 218.605 204.888 218.507 204.95C218.41 205.014 218.342 205.112 218.319 205.225C218.295 205.338 218.318 205.455 218.381 205.551L225.652 216.386C225.694 216.446 225.75 216.494 225.814 216.528C225.879 216.562 225.951 216.579 226.024 216.58C226.119 216.585 226.212 216.558 226.29 216.504H226.262ZM242.948 220.13C242.946 220.016 242.9 219.907 242.819 219.826C242.738 219.745 242.629 219.698 242.514 219.694L225.218 219.536C225.103 219.536 224.993 219.581 224.911 219.661C224.83 219.741 224.784 219.85 224.784 219.964C224.782 220.021 224.792 220.078 224.813 220.131C224.834 220.184 224.866 220.232 224.906 220.273C224.947 220.314 224.996 220.346 225.049 220.368C225.103 220.389 225.16 220.4 225.218 220.399L242.514 220.558C242.573 220.56 242.632 220.551 242.687 220.531C242.743 220.511 242.794 220.48 242.837 220.44C242.88 220.4 242.914 220.352 242.938 220.299C242.962 220.245 242.975 220.188 242.976 220.13H242.948ZM219.74 245.626C219.775 245.55 222.724 237.539 231.593 235.626C231.707 235.602 231.807 235.533 231.87 235.436C231.933 235.339 231.954 235.221 231.929 235.108C231.901 234.998 231.83 234.903 231.732 234.842C231.634 234.782 231.517 234.761 231.404 234.784C222.052 236.8 218.949 245.26 218.914 245.343C218.878 245.452 218.886 245.571 218.937 245.674C218.988 245.777 219.078 245.856 219.187 245.896H219.327C219.42 245.903 219.513 245.882 219.593 245.833C219.672 245.785 219.734 245.712 219.768 245.626H219.74ZM221.709 251.959C221.825 251.95 221.932 251.897 222.008 251.81C222.084 251.723 222.123 251.611 222.115 251.496C221.015 235.212 227.404 208.541 237.652 186.649C244.202 172.658 269.875 145.159 270.148 144.882C270.231 144.801 270.277 144.69 270.277 144.575C270.277 144.46 270.231 144.349 270.148 144.268C270.108 144.228 270.06 144.196 270.007 144.174C269.954 144.152 269.897 144.141 269.84 144.141C269.783 144.141 269.726 144.152 269.673 144.174C269.62 144.196 269.572 144.228 269.532 144.268C269.273 144.544 243.494 172.147 236.889 186.263C226.451 208.686 220.147 234.874 221.267 251.552C221.276 251.661 221.326 251.764 221.408 251.84C221.49 251.915 221.597 251.958 221.709 251.959ZM242.661 177.686C242.777 177.678 242.885 177.627 242.962 177.541C243.04 177.456 243.08 177.344 243.074 177.23L241.4 149.295C241.397 149.238 241.383 149.183 241.358 149.131C241.333 149.08 241.298 149.034 241.255 148.996C241.212 148.958 241.162 148.929 241.107 148.91C241.053 148.892 240.995 148.884 240.937 148.888C240.822 148.895 240.713 148.947 240.636 149.032C240.559 149.117 240.518 149.229 240.524 149.344L242.226 177.264C242.232 177.374 242.28 177.478 242.361 177.554C242.442 177.63 242.549 177.672 242.661 177.672V177.686ZM237.435 186.864C237.54 186.817 237.622 186.731 237.664 186.625C237.706 186.52 237.704 186.402 237.659 186.297L226.892 162.285C226.846 162.181 226.759 162.099 226.652 162.058C226.544 162.016 226.424 162.019 226.318 162.064C226.212 162.11 226.129 162.196 226.087 162.302C226.045 162.408 226.047 162.526 226.094 162.631L236.854 186.643C236.887 186.72 236.943 186.785 237.014 186.832C237.085 186.879 237.168 186.904 237.253 186.905C237.325 186.909 237.398 186.894 237.463 186.864H237.435ZM239.298 183.549L265.07 179.916C265.132 179.915 265.193 179.901 265.249 179.874C265.306 179.848 265.356 179.81 265.396 179.764C265.437 179.717 265.467 179.663 265.484 179.604C265.502 179.545 265.506 179.483 265.498 179.422C265.489 179.361 265.468 179.303 265.435 179.251C265.402 179.199 265.358 179.154 265.307 179.12C265.255 179.086 265.197 179.063 265.135 179.052C265.074 179.042 265.011 179.045 264.951 179.06L239.179 182.692C239.064 182.7 238.956 182.752 238.88 182.837C238.804 182.923 238.765 183.035 238.773 183.148C238.78 183.262 238.833 183.368 238.92 183.443C239.007 183.518 239.12 183.556 239.235 183.549H239.298ZM231.95 199.757C232.042 199.686 232.101 199.583 232.115 199.469C232.13 199.355 232.098 199.24 232.027 199.149L218.059 181.456C218.024 181.411 217.979 181.373 217.929 181.344C217.879 181.316 217.823 181.297 217.766 181.29C217.708 181.283 217.65 181.286 217.594 181.301C217.538 181.316 217.485 181.342 217.439 181.377C217.393 181.412 217.355 181.455 217.326 181.505C217.297 181.554 217.278 181.609 217.27 181.666C217.263 181.723 217.267 181.78 217.282 181.836C217.297 181.891 217.323 181.943 217.359 181.988L231.355 199.709C231.395 199.76 231.447 199.802 231.507 199.831C231.566 199.859 231.632 199.874 231.698 199.874C231.802 199.869 231.902 199.828 231.978 199.757H231.95ZM253.778 194.971C253.781 194.857 253.739 194.746 253.661 194.662C253.582 194.578 253.473 194.528 253.357 194.522L234.157 193.562C234.049 193.57 233.947 193.616 233.872 193.692C233.796 193.768 233.751 193.869 233.746 193.976C233.741 194.082 233.776 194.187 233.843 194.27C233.911 194.353 234.008 194.408 234.115 194.426L253.35 195.386C253.466 195.389 253.579 195.348 253.664 195.27C253.749 195.193 253.8 195.085 253.806 194.971H253.778ZM244.72 209.018C244.727 208.961 244.722 208.903 244.706 208.849C244.69 208.794 244.663 208.742 244.626 208.698C244.589 208.654 244.544 208.617 244.493 208.59C244.442 208.563 244.386 208.546 244.328 208.541L229.617 207.112C229.56 207.106 229.503 207.112 229.448 207.128C229.393 207.144 229.342 207.171 229.297 207.207C229.253 207.243 229.216 207.287 229.19 207.337C229.163 207.387 229.146 207.442 229.141 207.499C229.131 207.612 229.167 207.724 229.24 207.812C229.313 207.9 229.419 207.956 229.533 207.968L244.244 209.405H244.286C244.399 209.412 244.51 209.376 244.597 209.304C244.683 209.232 244.737 209.129 244.748 209.018H244.72ZM226.262 216.504C226.359 216.44 226.427 216.342 226.451 216.229C226.474 216.117 226.452 215.999 226.388 215.903L219.117 205.068C219.05 204.974 218.95 204.91 218.836 204.888C218.722 204.866 218.605 204.888 218.507 204.95C218.41 205.014 218.342 205.112 218.319 205.225C218.295 205.338 218.318 205.455 218.381 205.551L225.652 216.386C225.694 216.446 225.75 216.494 225.814 216.528C225.879 216.562 225.951 216.579 226.024 216.58C226.119 216.585 226.212 216.558 226.29 216.504H226.262ZM242.948 220.13C242.946 220.016 242.9 219.907 242.819 219.826C242.738 219.745 242.629 219.698 242.514 219.694L225.218 219.536C225.103 219.536 224.993 219.581 224.911 219.661C224.83 219.741 224.784 219.85 224.784 219.964C224.782 220.021 224.792 220.078 224.813 220.131C224.834 220.184 224.866 220.232 224.906 220.273C224.947 220.314 224.996 220.346 225.049 220.368C225.103 220.389 225.16 220.4 225.218 220.399L242.514 220.558C242.573 220.56 242.632 220.551 242.687 220.531C242.743 220.511 242.794 220.48 242.837 220.44C242.88 220.4 242.914 220.352 242.938 220.299C242.962 220.245 242.975 220.188 242.976 220.13H242.948ZM219.74 245.626C219.775 245.55 222.724 237.539 231.593 235.626C231.707 235.602 231.807 235.533 231.87 235.436C231.933 235.339 231.954 235.221 231.929 235.108C231.901 234.998 231.83 234.903 231.732 234.842C231.634 234.782 231.517 234.761 231.404 234.784C222.052 236.8 218.949 245.26 218.914 245.343C218.878 245.452 218.886 245.571 218.937 245.674C218.988 245.777 219.078 245.856 219.187 245.896H219.327C219.42 245.903 219.513 245.882 219.593 245.833C219.672 245.785 219.734 245.712 219.768 245.626H219.74Z" fill="#3AB091"/>
<path opacity="0.2" d="M242.668 177.257L240.965 149.337L242.668 177.257ZM237.281 186.47L226.521 162.458L237.281 186.47ZM265.049 179.488L239.263 183.134L265.049 179.488ZM231.705 199.412L217.744 181.753L231.705 199.412ZM234.157 193.997L253.392 194.95L234.157 193.997ZM229.603 207.54L244.314 208.976L229.603 207.54ZM226.052 216.145L218.746 205.309L226.052 216.145ZM225.211 219.971L242.507 220.13L225.211 219.971ZM221.709 251.959C221.825 251.95 221.932 251.897 222.008 251.81C222.084 251.723 222.123 251.611 222.115 251.496C221.015 235.212 227.404 208.541 237.652 186.649C244.202 172.658 269.875 145.159 270.148 144.882C270.231 144.801 270.277 144.69 270.277 144.575C270.277 144.46 270.231 144.349 270.148 144.268C270.108 144.228 270.06 144.196 270.007 144.174C269.954 144.152 269.897 144.141 269.84 144.141C269.783 144.141 269.726 144.152 269.673 144.174C269.62 144.196 269.572 144.228 269.532 144.268C269.273 144.544 243.494 172.147 236.889 186.263C226.451 208.686 220.147 234.874 221.267 251.552C221.276 251.661 221.326 251.764 221.408 251.84C221.49 251.915 221.597 251.958 221.709 251.959ZM242.661 177.686C242.777 177.678 242.885 177.627 242.962 177.541C243.04 177.456 243.08 177.344 243.074 177.23L241.4 149.295C241.397 149.238 241.383 149.183 241.358 149.131C241.333 149.08 241.298 149.034 241.255 148.996C241.212 148.958 241.162 148.929 241.107 148.91C241.053 148.892 240.995 148.884 240.937 148.888C240.822 148.895 240.713 148.947 240.636 149.032C240.559 149.117 240.518 149.229 240.524 149.344L242.226 177.264C242.232 177.374 242.28 177.478 242.361 177.554C242.442 177.63 242.549 177.672 242.661 177.672V177.686ZM237.435 186.864C237.54 186.817 237.622 186.731 237.664 186.625C237.706 186.52 237.704 186.402 237.659 186.297L226.892 162.285C226.846 162.181 226.759 162.099 226.652 162.058C226.544 162.016 226.424 162.019 226.318 162.064C226.212 162.11 226.129 162.196 226.087 162.302C226.045 162.408 226.047 162.526 226.094 162.631L236.854 186.643C236.887 186.72 236.943 186.785 237.014 186.832C237.085 186.879 237.168 186.904 237.253 186.905C237.325 186.909 237.398 186.894 237.463 186.864H237.435ZM239.298 183.549L265.07 179.916C265.132 179.915 265.193 179.901 265.249 179.874C265.306 179.848 265.356 179.81 265.396 179.764C265.437 179.717 265.467 179.663 265.484 179.604C265.502 179.545 265.506 179.483 265.498 179.422C265.489 179.361 265.468 179.303 265.435 179.251C265.402 179.199 265.358 179.154 265.307 179.12C265.255 179.086 265.197 179.063 265.135 179.052C265.074 179.042 265.011 179.045 264.951 179.06L239.179 182.692C239.064 182.7 238.956 182.752 238.88 182.837C238.804 182.923 238.765 183.035 238.773 183.148C238.78 183.262 238.833 183.368 238.92 183.443C239.007 183.518 239.12 183.556 239.235 183.549H239.298ZM231.95 199.757C232.042 199.686 232.101 199.583 232.115 199.469C232.13 199.355 232.098 199.24 232.027 199.149L218.059 181.456C217.988 181.365 217.882 181.305 217.766 181.29C217.65 181.275 217.532 181.306 217.439 181.377C217.346 181.447 217.286 181.551 217.27 181.666C217.255 181.781 217.287 181.896 217.359 181.988L231.355 199.709C231.395 199.76 231.447 199.802 231.507 199.831C231.566 199.859 231.632 199.874 231.698 199.874C231.802 199.869 231.902 199.828 231.978 199.757H231.95ZM253.778 194.971C253.781 194.857 253.739 194.746 253.661 194.662C253.582 194.578 253.473 194.528 253.357 194.522L234.157 193.562C234.049 193.57 233.947 193.616 233.872 193.692C233.796 193.768 233.751 193.869 233.746 193.976C233.741 194.082 233.776 194.187 233.843 194.27C233.911 194.353 234.008 194.408 234.115 194.426L253.35 195.386C253.466 195.389 253.579 195.348 253.664 195.27C253.749 195.193 253.8 195.085 253.806 194.971H253.778ZM244.72 209.018C244.727 208.961 244.722 208.903 244.706 208.849C244.69 208.794 244.663 208.742 244.626 208.698C244.589 208.654 244.544 208.617 244.493 208.59C244.442 208.563 244.386 208.546 244.328 208.541L229.617 207.112C229.56 207.106 229.503 207.112 229.448 207.128C229.393 207.144 229.342 207.171 229.297 207.207C229.253 207.243 229.216 207.287 229.19 207.337C229.163 207.387 229.146 207.442 229.141 207.499C229.131 207.612 229.167 207.724 229.24 207.812C229.313 207.9 229.419 207.956 229.533 207.968L244.244 209.405H244.286C244.399 209.412 244.51 209.376 244.597 209.304C244.683 209.232 244.737 209.129 244.748 209.018H244.72ZM226.262 216.504C226.359 216.44 226.427 216.342 226.451 216.229C226.474 216.117 226.452 215.999 226.388 215.903L219.117 205.068C219.05 204.974 218.95 204.91 218.836 204.888C218.722 204.866 218.605 204.888 218.507 204.95C218.41 205.014 218.342 205.112 218.319 205.225C218.295 205.338 218.318 205.455 218.381 205.551L225.652 216.386C225.694 216.446 225.75 216.494 225.814 216.528C225.879 216.562 225.951 216.579 226.024 216.58C226.119 216.585 226.212 216.558 226.29 216.504H226.262ZM242.948 220.13C242.946 220.016 242.9 219.907 242.819 219.826C242.738 219.745 242.629 219.698 242.514 219.694L225.218 219.536C225.103 219.536 224.993 219.581 224.911 219.661C224.83 219.741 224.784 219.85 224.784 219.964C224.782 220.021 224.792 220.078 224.813 220.131C224.834 220.184 224.866 220.232 224.906 220.273C224.947 220.314 224.996 220.346 225.049 220.368C225.103 220.389 225.16 220.4 225.218 220.399L242.514 220.558C242.573 220.56 242.632 220.551 242.687 220.531C242.743 220.511 242.794 220.48 242.837 220.44C242.88 220.4 242.914 220.352 242.938 220.299C242.962 220.245 242.975 220.188 242.976 220.13H242.948ZM219.74 245.626C219.775 245.55 222.724 237.539 231.593 235.626C231.707 235.602 231.807 235.533 231.87 235.436C231.933 235.339 231.954 235.221 231.929 235.108C231.901 234.998 231.83 234.903 231.732 234.842C231.634 234.782 231.517 234.761 231.404 234.784C222.052 236.8 218.949 245.26 218.914 245.343C218.878 245.452 218.886 245.571 218.937 245.674C218.988 245.777 219.078 245.856 219.187 245.896H219.327C219.42 245.903 219.513 245.882 219.593 245.833C219.672 245.785 219.734 245.712 219.768 245.626H219.74ZM221.709 251.959C221.825 251.95 221.932 251.897 222.008 251.81C222.084 251.723 222.123 251.611 222.115 251.496C221.015 235.212 227.404 208.541 237.652 186.649C244.202 172.658 269.875 145.159 270.148 144.882C270.231 144.801 270.277 144.69 270.277 144.575C270.277 144.46 270.231 144.349 270.148 144.268C270.108 144.228 270.06 144.196 270.007 144.174C269.954 144.152 269.897 144.141 269.84 144.141C269.783 144.141 269.726 144.152 269.673 144.174C269.62 144.196 269.572 144.228 269.532 144.268C269.273 144.544 243.494 172.147 236.889 186.263C226.451 208.686 220.147 234.874 221.267 251.552C221.276 251.661 221.326 251.764 221.408 251.84C221.49 251.915 221.597 251.958 221.709 251.959ZM242.661 177.686C242.777 177.678 242.885 177.627 242.962 177.541C243.04 177.456 243.08 177.344 243.074 177.23L241.4 149.295C241.397 149.238 241.383 149.183 241.358 149.131C241.333 149.08 241.298 149.034 241.255 148.996C241.212 148.958 241.162 148.929 241.107 148.91C241.053 148.892 240.995 148.884 240.937 148.888C240.822 148.895 240.713 148.947 240.636 149.032C240.559 149.117 240.518 149.229 240.524 149.344L242.226 177.264C242.232 177.374 242.28 177.478 242.361 177.554C242.442 177.63 242.549 177.672 242.661 177.672V177.686ZM237.435 186.864C237.54 186.817 237.622 186.731 237.664 186.625C237.706 186.52 237.704 186.402 237.659 186.297L226.892 162.285C226.846 162.181 226.759 162.099 226.652 162.058C226.544 162.016 226.424 162.019 226.318 162.064C226.212 162.11 226.129 162.196 226.087 162.302C226.045 162.408 226.047 162.526 226.094 162.631L236.854 186.643C236.887 186.72 236.943 186.785 237.014 186.832C237.085 186.879 237.168 186.904 237.253 186.905C237.325 186.909 237.398 186.894 237.463 186.864H237.435ZM239.298 183.549L265.07 179.916C265.132 179.915 265.193 179.901 265.249 179.874C265.306 179.848 265.356 179.81 265.396 179.764C265.437 179.717 265.467 179.663 265.484 179.604C265.502 179.545 265.506 179.483 265.498 179.422C265.489 179.361 265.468 179.303 265.435 179.251C265.402 179.199 265.358 179.154 265.307 179.12C265.255 179.086 265.197 179.063 265.135 179.052C265.074 179.042 265.011 179.045 264.951 179.06L239.179 182.692C239.064 182.7 238.956 182.752 238.88 182.837C238.804 182.923 238.765 183.035 238.773 183.148C238.78 183.262 238.833 183.368 238.92 183.443C239.007 183.518 239.12 183.556 239.235 183.549H239.298ZM231.95 199.757C232.042 199.686 232.101 199.583 232.115 199.469C232.13 199.355 232.098 199.24 232.027 199.149L218.059 181.456C218.024 181.411 217.979 181.373 217.929 181.344C217.879 181.316 217.823 181.297 217.766 181.29C217.708 181.283 217.65 181.286 217.594 181.301C217.538 181.316 217.485 181.342 217.439 181.377C217.393 181.412 217.355 181.455 217.326 181.505C217.297 181.554 217.278 181.609 217.27 181.666C217.263 181.723 217.267 181.78 217.282 181.836C217.297 181.891 217.323 181.943 217.359 181.988L231.355 199.709C231.395 199.76 231.447 199.802 231.507 199.831C231.566 199.859 231.632 199.874 231.698 199.874C231.802 199.869 231.902 199.828 231.978 199.757H231.95ZM253.778 194.971C253.781 194.857 253.739 194.746 253.661 194.662C253.582 194.578 253.473 194.528 253.357 194.522L234.157 193.562C234.049 193.57 233.947 193.616 233.872 193.692C233.796 193.768 233.751 193.869 233.746 193.976C233.741 194.082 233.776 194.187 233.843 194.27C233.911 194.353 234.008 194.408 234.115 194.426L253.35 195.386C253.466 195.389 253.579 195.348 253.664 195.27C253.749 195.193 253.8 195.085 253.806 194.971H253.778ZM244.72 209.018C244.727 208.961 244.722 208.903 244.706 208.849C244.69 208.794 244.663 208.742 244.626 208.698C244.589 208.654 244.544 208.617 244.493 208.59C244.442 208.563 244.386 208.546 244.328 208.541L229.617 207.112C229.56 207.106 229.503 207.112 229.448 207.128C229.393 207.144 229.342 207.171 229.297 207.207C229.253 207.243 229.216 207.287 229.19 207.337C229.163 207.387 229.146 207.442 229.141 207.499C229.131 207.612 229.167 207.724 229.24 207.812C229.313 207.9 229.419 207.956 229.533 207.968L244.244 209.405H244.286C244.399 209.412 244.51 209.376 244.597 209.304C244.683 209.232 244.737 209.129 244.748 209.018H244.72ZM226.262 216.504C226.359 216.44 226.427 216.342 226.451 216.229C226.474 216.117 226.452 215.999 226.388 215.903L219.117 205.068C219.05 204.974 218.95 204.91 218.836 204.888C218.722 204.866 218.605 204.888 218.507 204.95C218.41 205.014 218.342 205.112 218.319 205.225C218.295 205.338 218.318 205.455 218.381 205.551L225.652 216.386C225.694 216.446 225.75 216.494 225.814 216.528C225.879 216.562 225.951 216.579 226.024 216.58C226.119 216.585 226.212 216.558 226.29 216.504H226.262ZM242.948 220.13C242.946 220.016 242.9 219.907 242.819 219.826C242.738 219.745 242.629 219.698 242.514 219.694L225.218 219.536C225.103 219.536 224.993 219.581 224.911 219.661C224.83 219.741 224.784 219.85 224.784 219.964C224.782 220.021 224.792 220.078 224.813 220.131C224.834 220.184 224.866 220.232 224.906 220.273C224.947 220.314 224.996 220.346 225.049 220.368C225.103 220.389 225.16 220.4 225.218 220.399L242.514 220.558C242.573 220.56 242.632 220.551 242.687 220.531C242.743 220.511 242.794 220.48 242.837 220.44C242.88 220.4 242.914 220.352 242.938 220.299C242.962 220.245 242.975 220.188 242.976 220.13H242.948ZM219.74 245.626C219.775 245.55 222.724 237.539 231.593 235.626C231.707 235.602 231.807 235.533 231.87 235.436C231.933 235.339 231.954 235.221 231.929 235.108C231.901 234.998 231.83 234.903 231.732 234.842C231.634 234.782 231.517 234.761 231.404 234.784C222.052 236.8 218.949 245.26 218.914 245.343C218.878 245.452 218.886 245.571 218.937 245.674C218.988 245.777 219.078 245.856 219.187 245.896H219.327C219.42 245.903 219.513 245.882 219.593 245.833C219.672 245.785 219.734 245.712 219.768 245.626H219.74Z" fill="black"/>
<path d="M233.148 239.784H213.317V243.831H215.047L218.626 265.909H227.838L231.418 243.831H233.148V239.784Z" fill="#3AB091"/>
<path opacity="0.3" d="M233.148 239.784H213.317V243.831H215.047L218.626 265.909H227.838L231.418 243.831H233.148V239.784Z" fill="white"/>
<path d="M54.604 117.411L31.5365 109.987L29.484 104.642L24.7977 104.497L16.2936 102.908L17.3163 104.642L28.02 112.3L30.6609 113.599L54.7861 126.022L54.604 117.411Z" fill="white" stroke="#263238" stroke-width="1.00396" stroke-miterlimit="10"/>
<path d="M29.484 104.642L27.2844 103.343L22.8923 104.932L23.6208 105.795L29.484 104.642Z" fill="white" stroke="#263238" stroke-width="1.00396" stroke-linejoin="round"/>
<path d="M54.604 117.411L31.5365 109.987L29.484 104.642L24.7977 104.497L16.2936 102.908L17.3163 104.642L28.02 112.3L30.6609 113.599L54.7861 126.022L54.604 117.411Z" fill="white"/>
<mask id="mask0_375_1022" style="mask-type:luminance" maskUnits="userSpaceOnUse" x="16" y="102" width="39" height="25">
<path d="M54.604 117.411L31.5365 109.987L29.484 104.642L24.7977 104.497L16.2936 102.908L17.3163 104.642L28.02 112.3L30.6609 113.599L54.7861 126.022L54.604 117.411Z" fill="white"/>
</mask>
<g mask="url(#mask0_375_1022)">
<path opacity="0.5" d="M54.604 117.411L31.5365 109.987L29.484 104.642L24.7977 104.497L16.2936 102.908L17.3163 104.642L28.02 112.3L30.6609 113.599L54.7861 126.022L54.604 117.411Z" fill="#3AB091" stroke="#263238" stroke-width="1.00396" stroke-miterlimit="10"/>
</g>
<path d="M54.604 117.411L31.5365 109.987L29.484 104.642L24.7977 104.497L16.2936 102.908L17.3163 104.642L28.02 112.3L30.6609 113.599L54.7861 126.022L54.604 117.411Z" stroke="#263238" stroke-width="1.00396" stroke-miterlimit="10"/>
<path d="M29.484 104.642L27.2844 103.343L22.8923 104.932L23.6208 105.795L29.484 104.642Z" fill="white"/>
<mask id="mask1_375_1022" style="mask-type:luminance" maskUnits="userSpaceOnUse" x="22" y="103" width="8" height="3">
<path d="M29.484 104.642L27.2844 103.343L22.8923 104.932L23.6208 105.795L29.484 104.642Z" fill="white"/>
</mask>
<g mask="url(#mask1_375_1022)">
<path opacity="0.5" d="M29.484 104.642L27.2844 103.343L22.8923 104.932L23.6208 105.795L29.484 104.642Z" fill="#3AB091" stroke="#263238" stroke-width="1.00396" stroke-linejoin="round"/>
</g>
<path d="M29.484 104.642L27.2844 103.343L22.8923 104.932L23.6208 105.795L29.484 104.642Z" stroke="#263238" stroke-width="1.00396" stroke-linejoin="round"/>
<path d="M59.5005 69.2278C59.5005 69.2278 59.1432 72.3355 60.0329 74.3313C60.9225 76.3271 65.8611 83.0881 65.8611 83.0881L56.6424 90.3738C56.6424 90.3738 52.8177 82.7773 52.0892 81.548C51.3607 80.3188 50.485 75.0288 52.8597 71.2375C55.2344 67.4461 58.6529 66.424 59.5005 69.2278Z" fill="white"/>
<mask id="mask2_375_1022" style="mask-type:luminance" maskUnits="userSpaceOnUse" x="51" y="67" width="15" height="24">
<path d="M59.5005 69.2278C59.5005 69.2278 59.1432 72.3355 60.0329 74.3313C60.9225 76.3271 65.8611 83.0881 65.8611 83.0881L56.6424 90.3738C56.6424 90.3738 52.8177 82.7773 52.0892 81.548C51.3607 80.3188 50.485 75.0288 52.8597 71.2375C55.2344 67.4461 58.6529 66.424 59.5005 69.2278Z" fill="white"/>
</mask>
<g mask="url(#mask2_375_1022)">
<g style="mix-blend-mode:multiply" opacity="0.5">
<path d="M54.7651 79.2138L58.765 87.3904L56.6354 90.3807L52.6146 83.3021L54.7651 79.2138Z" fill="#3AB091"/>
</g>
</g>
<path d="M59.5005 69.2278C59.5005 69.2278 59.1432 72.3355 60.0329 74.3313C60.9225 76.3271 65.8611 83.0881 65.8611 83.0881L56.6424 90.3738C56.6424 90.3738 52.8177 82.7773 52.0892 81.548C51.3607 80.3188 50.485 75.0288 52.8597 71.2375C55.2344 67.4461 58.6529 66.424 59.5005 69.2278Z" stroke="#263238" stroke-width="1.00396" stroke-miterlimit="10"/>
<path d="M62.3585 63.5373C61.7911 60.0844 57.7773 53.061 51.4097 53.3303C47.2767 53.5099 45.3434 54.3317 43.5501 55.3331C42.0883 56.1821 40.7258 57.1872 39.4872 58.3302C36.3769 62.0111 35.2842 63.0194 35.8866 65.837C35.8372 66.9608 36.0158 68.0831 36.412 69.138C37.3646 71.6449 38.0161 73.2816 38.8427 74.4763C38.5905 75.6434 37.9321 78.7235 37.897 79.4279C37.862 80.1323 39.9985 79.642 41.0773 79.3726C43.0807 83.7924 46.7514 86.8587 47.8932 87.2109C49.8826 87.8255 53.0279 84.6004 54.6951 82.1005C56.3622 79.6005 55.1013 76.7898 55.1084 75.6711C55.1154 74.5523 58.856 72.0938 60.243 71.3134C61.63 70.533 62.9189 66.9834 62.3585 63.5373Z" fill="white"/>
<mask id="mask3_375_1022" style="mask-type:luminance" maskUnits="userSpaceOnUse" x="35" y="53" width="28" height="35">
<path d="M62.3585 63.5373C61.7911 60.0844 57.7773 53.061 51.4097 53.3303C47.2767 53.5099 45.3434 54.3317 43.5501 55.3331C42.0883 56.1821 40.7258 57.1872 39.4872 58.3302C36.3769 62.0111 35.2842 63.0194 35.8866 65.837C35.8372 66.9608 36.0158 68.0831 36.412 69.138C37.3646 71.6449 38.0161 73.2816 38.8427 74.4763C38.5905 75.6434 37.9321 78.7235 37.897 79.4279C37.862 80.1323 39.9985 79.642 41.0773 79.3726C43.0807 83.7924 46.7514 86.8587 47.8932 87.2109C49.8826 87.8255 53.0279 84.6004 54.6951 82.1005C56.3622 79.6005 55.1013 76.7898 55.1084 75.6711C55.1154 74.5523 58.856 72.0938 60.243 71.3134C61.63 70.533 62.9189 66.9834 62.3585 63.5373Z" fill="white"/>
</mask>
<g mask="url(#mask3_375_1022)">
<g style="mix-blend-mode:multiply" opacity="0.5">
<path d="M35.9146 65.837C35.8652 66.9609 36.0438 68.0832 36.44 69.1381C37.3927 71.6449 38.0441 73.2816 38.8707 74.4764C38.6185 75.6435 37.9601 78.7235 37.9251 79.4279C37.89 80.1323 40.0266 79.642 41.1053 79.3727C43.1088 83.7925 46.7794 86.8587 47.9212 87.2109C49.9106 87.8256 53.0559 84.6005 54.7231 82.1005C55.1396 81.4764 55.41 80.7687 55.5146 80.0287C55.4236 79.7042 55.3605 79.5039 55.3605 79.5039C55.3605 79.5039 54.4219 83.0604 52.5585 82.5977C50.6952 82.1351 47.8442 78.4542 46.254 77.1835C44.6639 75.9128 45.3153 74.2416 45.0001 72.3493C44.6849 70.4571 39.9775 68.7928 39.6623 67.7085C39.3471 66.6243 40.4469 62.1354 40.4469 62.1354C40.4469 62.1354 42.2331 59.7874 41.8479 60.7543C41.5756 61.5926 41.4768 62.4763 41.5574 63.3529C41.638 64.2296 41.8964 65.0814 42.3172 65.8577C42.6125 66.4704 43.0809 66.9859 43.6662 67.3424C44.2515 67.6989 44.9287 67.8812 45.6166 67.8674L47.3258 59.5181L43.7182 56.5762L39.5152 58.3027C36.3769 62.0112 35.3052 63.0194 35.9146 65.837Z" fill="#3AB091"/>
</g>
</g>
<path d="M62.3585 63.5373C61.7911 60.0844 57.7773 53.061 51.4097 53.3303C47.2767 53.5099 45.3434 54.3317 43.5501 55.3331C42.0883 56.1821 40.7258 57.1872 39.4872 58.3302C36.3769 62.0111 35.2842 63.0194 35.8866 65.837C35.8372 66.9608 36.0158 68.0831 36.412 69.138C37.3646 71.6449 38.0161 73.2816 38.8427 74.4763C38.5905 75.6434 37.9321 78.7235 37.897 79.4279C37.862 80.1323 39.9985 79.642 41.0773 79.3726C43.0807 83.7924 46.7514 86.8587 47.8932 87.2109C49.8826 87.8255 53.0279 84.6004 54.6951 82.1005C56.3622 79.6005 55.1013 76.7898 55.1084 75.6711C55.1154 74.5523 58.856 72.0938 60.243 71.3134C61.63 70.533 62.9189 66.9834 62.3585 63.5373Z" stroke="#263238" stroke-miterlimit="10"/>
<path d="M39.7113 72.3908L40.4118 74.3659C40.4118 74.3659 41.9179 74.8562 43.7532 72.8811" stroke="#263238" stroke-miterlimit="10" stroke-linecap="round"/>
<path d="M44.888 81.6171C44.888 81.6171 46.5552 81.4514 47.2277 79.1448" stroke="#263238" stroke-miterlimit="10" stroke-linecap="round"/>
<path d="M38.5415 70.7403C38.5415 70.7403 39.0388 69.2555 42.044 69.2555" stroke="#263238" stroke-miterlimit="10" stroke-linecap="round"/>
<path d="M53.9455 50.5818C51.7619 50.2723 49.5598 50.1062 47.3538 50.0846C47.3538 50.0846 40.7551 46.3347 34.4155 50.3332C28.076 54.3318 31.1232 61.3344 31.1232 63.0816C31.1232 64.8288 29.0917 64.8357 30.3596 67.087C31.6275 69.3384 35.9146 68.0953 35.9146 68.0953C35.9599 67.2462 36.1875 66.4162 36.5824 65.6602C36.9773 64.9043 37.5304 64.2396 38.2052 63.71C40.4889 61.9628 42.3102 61.583 43.0667 62.0871C43.0667 62.0871 42.5624 65.8371 43.3189 67.3356C43.3189 67.3356 45.8547 68.5856 46.6183 68.5856C47.3818 68.5856 46.1209 69.6422 48.6497 70.5814C49.1104 70.7446 49.6033 70.8001 50.0894 70.7438C50.5756 70.6875 51.0419 70.5208 51.4517 70.2569C51.823 68.7375 52.6356 66.4517 54.1487 66.9834C56.3693 67.7638 58.3937 73.1504 55.3886 74.9874C59.0031 75.6366 63.3813 69.3315 63.6405 63.5857C63.8997 57.84 57.7002 51.231 53.9455 50.5818Z" fill="#263238"/>
<path d="M43.1788 59.6217C43.1788 59.6217 45.0422 58.6342 47.3258 60.7474C49.6094 62.8606 54.0506 65.6851 59.9348 64.1313" stroke="white" stroke-width="0.5" stroke-linecap="round" stroke-linejoin="round"/>
<path d="M42.9196 57.9298C42.9196 57.9298 44.2015 55.9547 46.3451 55.9547C48.4886 55.9547 53.4972 58.9173 57.4971 58.9173" stroke="white" stroke-width="0.5" stroke-linecap="round" stroke-linejoin="round"/>
<path d="M41.4626 61.7349C41.4626 61.7349 39.0318 58.7792 36.7482 61.1755C34.4646 63.5719 35.9146 65.837 35.9146 65.837" stroke="white" stroke-width="0.5" stroke-linecap="round" stroke-linejoin="round"/>
<path d="M31.7466 63.71C33.1396 62.4716 34.0055 60.7593 34.1704 58.9173C34.4576 55.8165 38.7516 53.137 41.4626 55.6784" stroke="white" stroke-width="0.5" stroke-linecap="round" stroke-linejoin="round"/>
<path d="M36.1738 52.4326C36.1738 52.4326 40.4679 48.3443 44.0404 53.5583" stroke="white" stroke-width="0.5" stroke-linecap="round" stroke-linejoin="round"/>
<path d="M71.1218 253.444C71.1218 253.444 73.7627 257.491 73.4685 260.094L73.1813 262.698C73.1813 262.698 63.4934 265.315 61.4409 265.315C59.3884 265.315 48.5236 264.3 48.5236 264.3L48.0543 262.463C48.0215 262.327 48.0369 262.185 48.0982 262.059C48.1594 261.933 48.2626 261.832 48.3905 261.772L58.0785 257.318L61.1327 254.024L71.1218 253.444Z" fill="white" stroke="#263238" stroke-width="1.00396" stroke-miterlimit="10"/>
<path d="M62.9119 263.278C65.5388 263.478 70.5264 261.897 73.4195 260.888L73.2163 262.698C73.2163 262.698 63.4934 265.315 61.4409 265.315C59.3884 265.315 48.5236 264.3 48.5236 264.3L48.1874 262.988C49.9246 262.995 59.4374 263.015 62.9119 263.278Z" fill="#3AB091" stroke="#263238" stroke-width="1.00396" stroke-miterlimit="10"/>
<path d="M58.0925 257.318L43.9914 263.368C43.9914 263.368 42.7865 266.344 43.9914 266.938C45.1963 267.532 71.4651 266.938 71.4651 266.938C71.4651 266.938 73.2794 262.235 70.4143 259.079C67.5493 255.923 58.0925 257.318 58.0925 257.318Z" fill="white" stroke="#263238" stroke-width="1.00396" stroke-miterlimit="10"/>
<path d="M71.4651 266.938C71.4651 266.938 45.1963 267.532 43.9914 266.938C43.41 266.648 43.389 265.812 43.5221 265.018H71.9274C71.8346 265.671 71.6798 266.314 71.4651 266.938Z" fill="#3AB091" stroke="#263238" stroke-width="1.00396" stroke-miterlimit="10"/>
<path d="M51.4237 152.203C51.4237 152.203 47.7391 168.3 46.3451 178.369C44.9511 188.438 44.1315 208.61 44.4257 210.924C44.7199 213.237 59.3884 252 59.3884 252L60.8525 255.453L71.1218 253.43C71.1218 253.43 66.4285 238.679 64.6702 230.578C62.912 222.478 59.0662 209.17 59.0662 206.856C59.0662 204.543 68.1727 160.359 68.8242 157.458C69.4756 154.558 72.4318 150.103 72.4318 150.103L52.7687 149.71L51.4237 152.203Z" fill="#3AB091" stroke="#263238" stroke-width="1.00396" stroke-miterlimit="10"/>
<path d="M51.4237 152.203C51.4237 152.203 49.2662 166.905 50.1558 177.126C51.0454 187.347 52.9578 209.108 52.9578 212.347C52.9578 215.585 58.2606 234.929 58.5618 241.006C59.0312 249.784 58.3727 254.128 58.3727 254.128L58.0575 257.311C58.0575 257.311 64.2429 258.181 65.5949 258.561C67.1564 258.958 68.7678 259.13 70.3793 259.072C70.3793 259.072 72.6279 249.314 72.6279 240.999C72.6279 232.685 70.7576 215.572 69.8259 208.638C68.8942 201.705 71.8293 174.958 73.4965 169.965C75.1637 164.972 78.8063 154.399 76.3546 148.998C73.9028 143.598 51.4237 152.203 51.4237 152.203Z" fill="#3AB091" stroke="#263238" stroke-width="1.00396" stroke-miterlimit="10"/>
<path d="M79.0795 146.291L78.8554 152.866C78.8554 152.866 74.8625 153.646 69.4826 154.565C65.0415 155.324 53.8895 154.364 50.1348 154.005C49.7926 153.975 49.4763 153.813 49.2546 153.555C49.0329 153.296 48.9238 152.962 48.9509 152.624L49.3152 146.685L79.0795 146.291Z" fill="#263238"/>
<path d="M63.4723 80.7539C63.4723 80.7539 57.1678 87.4734 54.7931 91.6515C52.4184 95.8296 51.4798 102.231 50.5901 107.273C49.7005 112.314 52.1102 124.151 51.4307 129.586L49.2802 146.706C49.2802 146.706 48.8178 147.866 50.366 149.137C51.9141 150.407 59.4725 150.87 66.3024 151.208C68.7962 151.333 76.2425 149.751 77.4614 149.675C78.9324 149.585 78.9815 147.742 79.0445 146.291C79.3387 139.475 80.5856 121.306 81.4052 113.391C83.0934 97.2522 73.8538 81.6724 63.4723 80.7539Z" fill="white" stroke="#263238" stroke-width="1.00396" stroke-miterlimit="10"/>
<g style="mix-blend-mode:multiply">
<path d="M80.6346 122.569C80.9148 118.985 81.195 115.732 81.4402 113.391C81.5103 112.701 81.5523 112.01 81.5873 111.32L64.8383 114.082L50.45 109.248C50.4516 112.183 50.62 115.116 50.9544 118.032L65.0695 121.927L80.6346 122.569Z" fill="#3AB091"/>
</g>
<g style="mix-blend-mode:multiply">
<path d="M62.8489 81.4307C61.8962 82.4735 60.0049 84.5936 58.2046 86.8449L68.8382 97.5008L72.3407 96.1196L62.8489 81.4307Z" fill="#3AB091"/>
</g>
<path d="M63.4723 80.7539C63.4723 80.7539 57.1678 87.4734 54.7931 91.6515C54.089 92.9212 53.5186 94.2588 53.0909 95.6431L65.77 81.2028C65.0209 80.9791 64.2513 80.8287 63.4723 80.7539Z" fill="#263238"/>
<g style="mix-blend-mode:multiply">
<path d="M51.0805 104.552L64.8383 109.013L81.5453 107.121C81.2834 103.018 80.3588 98.9822 78.8063 95.1666L65.3357 100.491L53.2941 95.1113C52.3094 98.1969 51.5693 101.353 51.0805 104.552Z" fill="#3AB091"/>
</g>
<g style="mix-blend-mode:multiply">
<path d="M74.7644 139.475C67.7865 140.63 60.6267 140.053 53.9315 137.797L50.5761 136.664L49.5324 144.951L53.3571 146.008C60.6281 148.012 68.2275 148.589 75.7241 147.707L78.8133 147.341C78.9741 147.005 79.0646 146.641 79.0795 146.271C79.1636 144.427 79.3107 141.747 79.4998 138.674L74.7644 139.475Z" fill="#3AB091"/>
</g>
<g style="mix-blend-mode:multiply">
<path d="M76.6348 128.191C69.6566 129.35 62.495 128.771 55.8018 126.506L51.5288 125.062C51.6348 126.567 51.6137 128.078 51.4657 129.579L50.9684 133.564L55.2274 134.738C62.4956 136.744 70.0927 137.323 77.5875 136.443L79.689 136.195C79.8641 133.432 80.0672 130.49 80.2844 127.583L76.6348 128.191Z" fill="#3AB091"/>
</g>
<path d="M10.9146 98.987L24.459 109.723L25.0428 109.007L11.4984 98.2711L10.9146 98.987Z" fill="#263238"/>
<path d="M69.994 88.2054C69.994 88.2054 74.9606 91.541 75.0726 99.4206C75.1217 102.874 74.7574 106.099 73.9519 111.755C73.1463 117.411 68.1447 135.829 64.2499 138.066C60.3551 140.304 54.3098 136.077 54.3098 136.077L25.0708 116.941L18.0028 111.313L14.5003 104.793L15.6001 102.722L24.2232 109.241L19.5789 105.008L20.4896 103.868L22.1708 105.021L27.0743 106.831L28.146 113.737L29.6591 114.759L57.6302 124.834C57.6302 124.834 57.2799 109.994 57.5391 107.155C57.7983 104.317 58.1555 97.1831 61.2377 92.0106" fill="white"/>
<mask id="mask4_375_1022" style="mask-type:luminance" maskUnits="userSpaceOnUse" x="14" y="88" width="62" height="51">
<path d="M69.994 88.2054C69.994 88.2054 74.9606 91.541 75.0726 99.4206C75.1217 102.874 74.7574 106.099 73.9519 111.755C73.1463 117.411 68.1447 135.829 64.2499 138.066C60.3551 140.304 54.3098 136.077 54.3098 136.077L25.0708 116.941L18.0028 111.313L14.5003 104.793L15.6001 102.722L24.2232 109.241L19.5789 105.008L20.4896 103.868L22.1708 105.021L27.0743 106.831L28.146 113.737L29.6591 114.759L57.6302 124.834C57.6302 124.834 57.2799 109.994 57.5391 107.155C57.7983 104.317 58.1555 97.1831 61.2377 92.0106" fill="white"/>
</mask>
<g mask="url(#mask4_375_1022)">
<g style="mix-blend-mode:multiply" opacity="0.5">
<path d="M57.434 113.619C57.434 118.743 57.6091 124.834 57.6091 124.834L29.6661 114.8L28.1531 113.778L27.0813 106.872L22.1778 105.063L20.5036 103.889L19.5929 105.028L24.2232 109.241L15.6001 102.722L14.5563 104.759L18.0588 111.278L25.1269 116.941L26.9062 118.108L65.5388 130.38L57.434 113.619Z" fill="#3AB091"/>
</g>
</g>
<path d="M69.994 88.2054C69.994 88.2054 74.9606 91.541 75.0726 99.4206C75.1217 102.874 74.7574 106.099 73.9518 111.755C73.1463 117.411 68.1447 135.829 64.2499 138.066C60.3551 140.304 54.3098 136.077 54.3098 136.077L25.0708 116.941L18.0028 111.313L14.5003 104.793L15.6001 102.722L24.2232 109.241L19.5789 105.008L20.4896 103.868L22.1708 105.021L27.0743 106.831L28.146 113.737L29.6591 114.759L57.6302 124.834C57.6302 124.834 57.2799 109.994 57.5391 107.155C57.7983 104.317 58.1555 97.1831 61.2377 92.0106" stroke="#263238" stroke-width="1.00396" stroke-miterlimit="10"/>
<path d="M57.6302 124.834L68.3058 132.431L71.0728 127.597C71.0728 127.597 72.9852 126.112 73.2654 124.993C73.5456 123.875 73.1883 122.058 73.4755 120.94C73.7627 119.821 75.1917 118.771 75.3248 116.064C75.4579 113.357 75.3248 111.099 75.3248 111.099C75.3248 111.099 77.6365 101.727 77.3843 97.6527C77.1321 93.5782 73.1463 86.3753 69.952 86.2164C66.7577 86.0576 62.6037 86.5341 59.3814 91.3406C56.1591 96.1472 56.8176 110.18 56.3132 111.057C55.8089 111.934 56.5094 116.264 56.5094 116.264C56.2294 116.47 55.9971 116.732 55.828 117.034C55.6589 117.335 55.5569 117.668 55.5286 118.011C55.4726 119.137 56.7055 121.906 56.7055 121.906L57.6302 124.834Z" fill="white" stroke="#263238" stroke-width="1.00396" stroke-miterlimit="10"/>
<g style="mix-blend-mode:multiply">
<path d="M56.5934 107.452C56.6154 108.657 56.5239 109.862 56.3202 111.05C55.8719 111.838 56.3833 115.394 56.4953 116.119C62.4999 117.958 68.8492 118.43 75.0656 117.5C75.1992 117.02 75.2791 116.527 75.3038 116.029C75.4439 113.329 75.3038 111.064 75.3038 111.064C75.3038 111.064 75.507 110.228 75.7872 108.958C69.3492 109.361 62.8857 108.854 56.5934 107.452Z" fill="#3AB091"/>
</g>
<g style="mix-blend-mode:multiply">
<path d="M58.9471 92.1072C57.9454 94.0892 57.385 97.0657 57.0628 100.084C63.422 102.476 70.2783 103.299 77.0341 102.48C77.3036 100.883 77.4232 99.2646 77.3913 97.6458C77.27 96.3662 76.9633 95.1104 76.4807 93.9166C70.5818 94.0523 64.6896 93.4443 58.9471 92.1072Z" fill="#3AB091"/>
</g>
<path d="M56.7055 121.982L57.6091 124.834L68.2848 132.431L71.0518 127.597C71.0518 127.597 72.9641 126.112 73.2443 124.993C73.2943 124.799 73.3248 124.6 73.3354 124.399C67.7096 124.304 62.12 123.491 56.7055 121.982Z" fill="#263238"/>
<path d="M64.432 258.471C64.432 258.471 64.6702 252.491 65.8331 243.748C66.9959 235.005 64.2009 222.588 63.7315 220.516C63.2622 218.444 63.9697 213.845 63.5004 212.229C63.031 210.613 60.7614 203.721 62.0994 195.724C63.4373 187.727 64.5231 166.588 64.5231 166.588C64.5231 166.588 61.1537 163.888 60.166 160.372C59.1783 156.857 59.9348 155.752 59.9348 155.752" stroke="#263238" stroke-width="1.00396" stroke-miterlimit="10"/>
<path d="M65.9941 156.077L64.6982 163.149" stroke="#263238" stroke-width="1.00396" stroke-miterlimit="10"/>
</svg>
