<svg width="275" height="236" viewBox="0 0 275 236" fill="none" xmlns="http://www.w3.org/2000/svg">
<path d="M229.817 69.3799C232.483 69.3799 234.039 67.9517 235.911 65.0635L241.338 56.5576H249.336C259.048 56.5576 264.983 50.5591 264.983 40.9424V15.6152C264.983 5.99854 259.048 0 249.336 0H209.632C199.952 0 194.017 5.9668 194.017 15.6152V40.9424C194.017 50.5908 199.952 56.5576 209.632 56.5576H218.233L223.724 65.0952C225.533 67.9199 227.151 69.3799 229.817 69.3799Z" fill="white"/>
<path d="M201.836 38.7642V21.4842H204.344V28.9362H212.984V21.4842H215.504V38.7642H212.984V31.3002H204.344V38.7642H201.836ZM224.623 39.1242C223.335 39.1242 222.203 38.8442 221.227 38.2842C220.259 37.7162 219.503 36.9282 218.959 35.9202C218.423 34.9042 218.155 33.7282 218.155 32.3922C218.155 30.9762 218.419 29.7482 218.947 28.7082C219.483 27.6682 220.227 26.8642 221.179 26.2962C222.131 25.7282 223.239 25.4442 224.503 25.4442C225.823 25.4442 226.947 25.7522 227.875 26.3682C228.803 26.9762 229.495 27.8442 229.951 28.9722C230.415 30.1002 230.599 31.4402 230.503 32.9922H227.995V32.0802C227.979 30.5762 227.691 29.4642 227.131 28.7442C226.579 28.0242 225.735 27.6642 224.599 27.6642C223.343 27.6642 222.399 28.0602 221.767 28.8522C221.135 29.6442 220.819 30.7882 220.819 32.2842C220.819 33.7082 221.135 34.8122 221.767 35.5962C222.399 36.3722 223.311 36.7602 224.503 36.7602C225.287 36.7602 225.963 36.5842 226.531 36.2322C227.107 35.8722 227.555 35.3602 227.875 34.6962L230.335 35.4762C229.831 36.6362 229.067 37.5362 228.043 38.1762C227.019 38.8082 225.879 39.1242 224.623 39.1242ZM220.003 32.9922V31.0362H229.255V32.9922H220.003ZM233.436 38.7642V21.1242H235.944V38.7642H233.436ZM239.787 38.7642V21.1242H242.295V38.7642H239.787ZM251.527 39.1242C250.231 39.1242 249.107 38.8322 248.155 38.2482C247.203 37.6642 246.467 36.8602 245.947 35.8362C245.435 34.8042 245.179 33.6162 245.179 32.2722C245.179 30.9202 245.443 29.7322 245.971 28.7082C246.499 27.6762 247.239 26.8762 248.191 26.3082C249.143 25.7322 250.255 25.4442 251.527 25.4442C252.823 25.4442 253.947 25.7362 254.899 26.3202C255.851 26.9042 256.587 27.7082 257.107 28.7322C257.627 29.7562 257.887 30.9362 257.887 32.2722C257.887 33.6242 257.623 34.8162 257.095 35.8482C256.575 36.8722 255.839 37.6762 254.887 38.2602C253.935 38.8362 252.815 39.1242 251.527 39.1242ZM251.527 36.7602C252.767 36.7602 253.691 36.3442 254.299 35.5122C254.915 34.6722 255.223 33.5922 255.223 32.2722C255.223 30.9202 254.911 29.8402 254.287 29.0322C253.671 28.2162 252.751 27.8082 251.527 27.8082C250.687 27.8082 249.995 28.0002 249.451 28.3842C248.907 28.7602 248.503 29.2842 248.239 29.9562C247.975 30.6202 247.843 31.3922 247.843 32.2722C247.843 33.6322 248.155 34.7202 248.779 35.5362C249.403 36.3522 250.319 36.7602 251.527 36.7602Z" fill="#3AB091"/>
<path d="M217.319 112.124C216.103 112.124 215.007 111.912 214.031 111.488C213.055 111.064 212.223 110.46 211.535 109.676C210.855 108.892 210.335 107.948 209.975 106.844C209.615 105.732 209.435 104.492 209.435 103.124C209.435 101.316 209.747 99.7402 210.371 98.3962C211.003 97.0442 211.907 95.9962 213.083 95.2522C214.259 94.5082 215.671 94.1362 217.319 94.1362C219.159 94.1362 220.655 94.5682 221.807 95.4322C222.967 96.2882 223.775 97.4402 224.231 98.8882L222.455 99.3202C222.079 98.2642 221.459 97.4202 220.595 96.7882C219.739 96.1562 218.671 95.8402 217.391 95.8402C216.039 95.8322 214.915 96.1362 214.019 96.7522C213.123 97.3602 212.447 98.2162 211.991 99.3202C211.543 100.416 211.315 101.684 211.307 103.124C211.299 104.564 211.519 105.832 211.967 106.928C212.423 108.016 213.103 108.872 214.007 109.496C214.911 110.112 216.039 110.424 217.391 110.432C218.631 110.432 219.655 110.192 220.463 109.712C221.271 109.232 221.883 108.544 222.299 107.648C222.723 106.752 222.963 105.692 223.019 104.468H219.035V102.956H224.867C224.891 103.14 224.903 103.336 224.903 103.544C224.911 103.744 224.915 103.888 224.915 103.976C224.915 105.536 224.635 106.932 224.075 108.164C223.515 109.388 222.671 110.356 221.543 111.068C220.423 111.772 219.015 112.124 217.319 112.124ZM232.801 112.124C231.537 112.124 230.441 111.844 229.513 111.284C228.593 110.724 227.877 109.936 227.365 108.92C226.853 107.904 226.597 106.712 226.597 105.344C226.597 103.928 226.849 102.704 227.353 101.672C227.857 100.64 228.565 99.8442 229.477 99.2842C230.397 98.7242 231.481 98.4442 232.729 98.4442C234.009 98.4442 235.101 98.7402 236.005 99.3322C236.909 99.9162 237.593 100.756 238.057 101.852C238.521 102.948 238.733 104.256 238.693 105.776H236.893V105.152C236.861 103.472 236.497 102.204 235.801 101.348C235.113 100.492 234.105 100.064 232.777 100.064C231.385 100.064 230.317 100.516 229.573 101.42C228.837 102.324 228.469 103.612 228.469 105.284C228.469 106.916 228.837 108.184 229.573 109.088C230.317 109.984 231.369 110.432 232.729 110.432C233.657 110.432 234.465 110.22 235.153 109.796C235.849 109.364 236.397 108.744 236.797 107.936L238.441 108.572C237.929 109.7 237.173 110.576 236.173 111.2C235.181 111.816 234.057 112.124 232.801 112.124ZM227.845 105.776V104.3H237.745V105.776H227.845ZM248.412 111.764C247.684 111.916 246.964 111.976 246.252 111.944C245.548 111.912 244.916 111.76 244.356 111.488C243.804 111.216 243.384 110.792 243.096 110.216C242.864 109.736 242.736 109.252 242.712 108.764C242.696 108.268 242.688 107.704 242.688 107.072V95.2042H244.44V107C244.44 107.544 244.444 108 244.452 108.368C244.468 108.728 244.552 109.048 244.704 109.328C244.992 109.864 245.448 110.184 246.072 110.288C246.704 110.392 247.484 110.368 248.412 110.216V111.764ZM239.916 100.316V98.8042H248.412V100.316H239.916ZM191.024 146.124C189.816 146.124 188.728 145.924 187.76 145.524C186.8 145.116 186.004 144.54 185.372 143.796C184.748 143.052 184.34 142.168 184.148 141.144L185.948 140.844C186.236 141.964 186.844 142.844 187.772 143.484C188.7 144.116 189.808 144.432 191.096 144.432C191.944 144.432 192.704 144.3 193.376 144.036C194.048 143.764 194.576 143.38 194.96 142.884C195.344 142.388 195.536 141.8 195.536 141.12C195.536 140.672 195.456 140.292 195.296 139.98C195.136 139.66 194.924 139.396 194.66 139.188C194.396 138.98 194.108 138.808 193.796 138.672C193.484 138.528 193.18 138.412 192.884 138.324L188.504 137.016C187.976 136.864 187.488 136.672 187.04 136.44C186.592 136.2 186.2 135.916 185.864 135.588C185.536 135.252 185.28 134.86 185.096 134.412C184.912 133.964 184.82 133.452 184.82 132.876C184.82 131.9 185.076 131.056 185.588 130.344C186.1 129.632 186.8 129.084 187.688 128.7C188.576 128.316 189.588 128.128 190.724 128.136C191.876 128.136 192.904 128.34 193.808 128.748C194.72 129.156 195.472 129.74 196.064 130.5C196.656 131.252 197.048 132.144 197.24 133.176L195.392 133.512C195.272 132.76 194.996 132.108 194.564 131.556C194.132 131.004 193.58 130.58 192.908 130.284C192.244 129.98 191.512 129.824 190.712 129.816C189.936 129.816 189.244 129.948 188.636 130.212C188.036 130.468 187.56 130.82 187.208 131.268C186.856 131.716 186.68 132.228 186.68 132.804C186.68 133.388 186.84 133.856 187.16 134.208C187.488 134.56 187.888 134.836 188.36 135.036C188.84 135.236 189.304 135.4 189.752 135.528L193.136 136.524C193.488 136.62 193.9 136.76 194.372 136.944C194.852 137.12 195.316 137.376 195.764 137.712C196.22 138.04 196.596 138.472 196.892 139.008C197.188 139.544 197.336 140.224 197.336 141.048C197.336 141.848 197.176 142.564 196.856 143.196C196.544 143.828 196.1 144.36 195.524 144.792C194.956 145.224 194.288 145.552 193.52 145.776C192.76 146.008 191.928 146.124 191.024 146.124ZM206.869 145.764C206.141 145.916 205.421 145.976 204.709 145.944C204.005 145.912 203.373 145.76 202.813 145.488C202.261 145.216 201.841 144.792 201.553 144.216C201.321 143.736 201.193 143.252 201.169 142.764C201.153 142.268 201.145 141.704 201.145 141.072V129.204H202.897V141C202.897 141.544 202.901 142 202.909 142.368C202.925 142.728 203.009 143.048 203.161 143.328C203.449 143.864 203.905 144.184 204.529 144.288C205.161 144.392 205.941 144.368 206.869 144.216V145.764ZM198.373 134.316V132.804H206.869V134.316H198.373ZM213.13 146.124C212.154 146.124 211.334 145.948 210.67 145.596C210.014 145.244 209.522 144.776 209.194 144.192C208.866 143.608 208.702 142.972 208.702 142.284C208.702 141.58 208.842 140.98 209.122 140.484C209.41 139.98 209.798 139.568 210.286 139.248C210.782 138.928 211.354 138.684 212.002 138.516C212.658 138.356 213.382 138.216 214.174 138.096C214.974 137.968 215.754 137.86 216.514 137.772C217.282 137.676 217.954 137.584 218.53 137.496L217.906 137.88C217.93 136.6 217.682 135.652 217.162 135.036C216.642 134.42 215.738 134.112 214.45 134.112C213.562 134.112 212.81 134.312 212.194 134.712C211.586 135.112 211.158 135.744 210.91 136.608L209.194 136.104C209.49 134.944 210.086 134.044 210.982 133.404C211.878 132.764 213.042 132.444 214.474 132.444C215.658 132.444 216.662 132.668 217.486 133.116C218.318 133.556 218.906 134.196 219.25 135.036C219.41 135.412 219.514 135.832 219.562 136.296C219.61 136.76 219.634 137.232 219.634 137.712V145.764H218.062V142.512L218.518 142.704C218.078 143.816 217.394 144.664 216.466 145.248C215.538 145.832 214.426 146.124 213.13 146.124ZM213.334 144.6C214.158 144.6 214.878 144.452 215.494 144.156C216.11 143.86 216.606 143.456 216.982 142.944C217.358 142.424 217.602 141.84 217.714 141.192C217.81 140.776 217.862 140.32 217.87 139.824C217.878 139.32 217.882 138.944 217.882 138.696L218.554 139.044C217.954 139.124 217.302 139.204 216.598 139.284C215.902 139.364 215.214 139.456 214.534 139.56C213.862 139.664 213.254 139.788 212.71 139.932C212.342 140.036 211.986 140.184 211.642 140.376C211.298 140.56 211.014 140.808 210.79 141.12C210.574 141.432 210.466 141.82 210.466 142.284C210.466 142.66 210.558 143.024 210.742 143.376C210.934 143.728 211.238 144.02 211.654 144.252C212.078 144.484 212.638 144.6 213.334 144.6ZM222.758 145.764V132.804H224.342V135.924L224.03 135.516C224.174 135.132 224.362 134.78 224.594 134.46C224.826 134.132 225.078 133.864 225.35 133.656C225.686 133.36 226.078 133.136 226.526 132.984C226.974 132.824 227.426 132.732 227.882 132.708C228.338 132.676 228.754 132.708 229.13 132.804V134.46C228.658 134.34 228.142 134.312 227.582 134.376C227.022 134.44 226.506 134.664 226.034 135.048C225.602 135.384 225.278 135.788 225.062 136.26C224.846 136.724 224.702 137.22 224.63 137.748C224.558 138.268 224.522 138.784 224.522 139.296V145.764H222.758ZM238.463 145.764C237.735 145.916 237.015 145.976 236.303 145.944C235.599 145.912 234.967 145.76 234.407 145.488C233.855 145.216 233.435 144.792 233.147 144.216C232.915 143.736 232.787 143.252 232.763 142.764C232.747 142.268 232.739 141.704 232.739 141.072V129.204H234.491V141C234.491 141.544 234.495 142 234.503 142.368C234.519 142.728 234.603 143.048 234.755 143.328C235.043 143.864 235.499 144.184 236.123 144.288C236.755 144.392 237.535 144.368 238.463 144.216V145.764ZM229.967 134.316V132.804H238.463V134.316H229.967ZM246.031 146.124C244.767 146.124 243.671 145.844 242.743 145.284C241.823 144.724 241.107 143.936 240.595 142.92C240.083 141.904 239.827 140.712 239.827 139.344C239.827 137.928 240.079 136.704 240.583 135.672C241.087 134.64 241.795 133.844 242.707 133.284C243.627 132.724 244.711 132.444 245.959 132.444C247.239 132.444 248.331 132.74 249.235 133.332C250.139 133.916 250.823 134.756 251.287 135.852C251.751 136.948 251.963 138.256 251.923 139.776H250.123V139.152C250.091 137.472 249.727 136.204 249.031 135.348C248.343 134.492 247.335 134.064 246.007 134.064C244.615 134.064 243.547 134.516 242.803 135.42C242.067 136.324 241.699 137.612 241.699 139.284C241.699 140.916 242.067 142.184 242.803 143.088C243.547 143.984 244.599 144.432 245.959 144.432C246.887 144.432 247.695 144.22 248.383 143.796C249.079 143.364 249.627 142.744 250.027 141.936L251.671 142.572C251.159 143.7 250.403 144.576 249.403 145.2C248.411 145.816 247.287 146.124 246.031 146.124ZM241.075 139.776V138.3H250.975V139.776H241.075ZM259.614 146.124C258.406 146.124 257.374 145.824 256.518 145.224C255.662 144.616 255.006 143.796 254.55 142.764C254.094 141.732 253.866 140.568 253.866 139.272C253.866 137.984 254.09 136.824 254.538 135.792C254.994 134.76 255.646 133.944 256.494 133.344C257.342 132.744 258.358 132.444 259.542 132.444C260.758 132.444 261.782 132.74 262.614 133.332C263.446 133.924 264.074 134.736 264.498 135.768C264.93 136.792 265.146 137.96 265.146 139.272C265.146 140.56 264.934 141.724 264.51 142.764C264.086 143.796 263.462 144.616 262.638 145.224C261.814 145.824 260.806 146.124 259.614 146.124ZM259.794 144.48C260.714 144.48 261.474 144.256 262.074 143.808C262.674 143.36 263.122 142.744 263.418 141.96C263.714 141.168 263.862 140.272 263.862 139.272C263.862 138.256 263.714 137.36 263.418 136.584C263.122 135.8 262.674 135.188 262.074 134.748C261.482 134.308 260.734 134.088 259.83 134.088C258.902 134.088 258.134 134.316 257.526 134.772C256.918 135.228 256.466 135.848 256.17 136.632C255.882 137.416 255.738 138.296 255.738 139.272C255.738 140.256 255.886 141.144 256.182 141.936C256.486 142.72 256.938 143.34 257.538 143.796C258.138 144.252 258.89 144.48 259.794 144.48ZM263.862 145.764V136.008H263.67V128.484H265.446V145.764H263.862ZM270.013 145.764V143.784H271.777V145.764H270.013ZM270.013 141.444V128.484H271.777V141.444H270.013Z" fill="white"/>
<path d="M9.50791 229.375C7.71624 229.375 6.19541 228.979 4.94541 228.187C3.69541 227.396 2.74124 226.296 2.08291 224.887C1.43291 223.479 1.10791 221.85 1.10791 220C1.10791 218.15 1.43291 216.521 2.08291 215.112C2.74124 213.704 3.69541 212.604 4.94541 211.812C6.19541 211.021 7.71624 210.625 9.50791 210.625C11.5912 210.625 13.3037 211.154 14.6454 212.212C15.9954 213.271 16.9246 214.696 17.4329 216.487L15.1704 217.087C14.8037 215.746 14.1496 214.687 13.2079 213.912C12.2662 213.137 11.0329 212.75 9.50791 212.75C8.16624 212.75 7.04958 213.054 6.15791 213.662C5.26624 214.271 4.59541 215.121 4.14541 216.212C3.69541 217.296 3.46624 218.558 3.45791 220C3.44958 221.433 3.67041 222.696 4.12041 223.787C4.57041 224.871 5.24541 225.721 6.14541 226.337C7.04541 226.946 8.16624 227.25 9.50791 227.25C11.0329 227.25 12.2662 226.862 13.2079 226.087C14.1496 225.304 14.8037 224.246 15.1704 222.912L17.4329 223.512C16.9246 225.296 15.9954 226.721 14.6454 227.787C13.3037 228.846 11.5912 229.375 9.50791 229.375ZM20.1743 229V215.5H22.1618V218.762L21.8368 218.337C21.9951 217.921 22.1993 217.537 22.4493 217.187C22.7076 216.837 22.9951 216.55 23.3118 216.325C23.6618 216.042 24.0577 215.825 24.4993 215.675C24.941 215.525 25.391 215.437 25.8493 215.412C26.3077 215.379 26.7368 215.408 27.1368 215.5V217.587C26.6702 217.462 26.1577 217.429 25.5993 217.487C25.041 217.546 24.5243 217.75 24.0493 218.1C23.616 218.408 23.2785 218.783 23.0368 219.225C22.8035 219.667 22.641 220.146 22.5493 220.662C22.4576 221.171 22.4118 221.692 22.4118 222.225V229H20.1743ZM35.1063 229.375C33.7813 229.375 32.623 229.083 31.6313 228.5C30.648 227.908 29.8813 227.087 29.3313 226.037C28.7813 224.979 28.5063 223.746 28.5063 222.337C28.5063 220.862 28.7772 219.587 29.3188 218.512C29.8605 217.429 30.6147 216.596 31.5813 216.012C32.5563 215.421 33.698 215.125 35.0063 215.125C36.3647 215.125 37.5188 215.437 38.4688 216.062C39.4272 216.687 40.1438 217.579 40.6188 218.737C41.1022 219.896 41.3105 221.275 41.2438 222.875H38.9938V222.075C38.9688 220.417 38.6313 219.179 37.9813 218.362C37.3313 217.537 36.3647 217.125 35.0813 217.125C33.7063 217.125 32.6605 217.567 31.9438 218.45C31.2272 219.333 30.8688 220.6 30.8688 222.25C30.8688 223.842 31.2272 225.075 31.9438 225.95C32.6605 226.825 33.6813 227.262 35.0063 227.262C35.898 227.262 36.673 227.058 37.3313 226.65C37.9897 226.242 38.5063 225.654 38.8813 224.887L41.0188 225.625C40.4938 226.817 39.7022 227.742 38.6438 228.4C37.5938 229.05 36.4147 229.375 35.1063 229.375ZM30.1188 222.875V221.087H40.0938V222.875H30.1188ZM47.6202 229.375C46.6119 229.375 45.766 229.192 45.0827 228.825C44.4077 228.45 43.8952 227.958 43.5452 227.35C43.2035 226.742 43.0327 226.075 43.0327 225.35C43.0327 224.642 43.166 224.029 43.4327 223.512C43.7077 222.987 44.091 222.554 44.5827 222.212C45.0744 221.862 45.6619 221.587 46.3452 221.387C46.9869 221.212 47.7035 221.062 48.4952 220.937C49.2952 220.804 50.1035 220.683 50.9202 220.575C51.7369 220.467 52.4994 220.362 53.2077 220.262L52.4077 220.725C52.4327 219.525 52.191 218.637 51.6827 218.062C51.1827 217.487 50.316 217.2 49.0827 217.2C48.266 217.2 47.5494 217.387 46.9327 217.762C46.3244 218.129 45.8952 218.729 45.6452 219.562L43.5327 218.925C43.8577 217.742 44.4869 216.812 45.4202 216.137C46.3535 215.462 47.5827 215.125 49.1077 215.125C50.3327 215.125 51.3827 215.346 52.2577 215.787C53.141 216.221 53.7744 216.879 54.1577 217.762C54.3494 218.179 54.4702 218.633 54.5202 219.125C54.5702 219.608 54.5952 220.117 54.5952 220.65V229H52.6202V225.762L53.0827 226.062C52.5744 227.154 51.8619 227.979 50.9452 228.537C50.0369 229.096 48.9285 229.375 47.6202 229.375ZM47.9577 227.512C48.7577 227.512 49.4494 227.371 50.0327 227.087C50.6244 226.796 51.0994 226.417 51.4577 225.95C51.816 225.475 52.0494 224.958 52.1577 224.4C52.2827 223.983 52.3494 223.521 52.3577 223.012C52.3744 222.496 52.3827 222.1 52.3827 221.825L53.1577 222.162C52.4327 222.262 51.7202 222.358 51.0202 222.45C50.3202 222.542 49.6577 222.642 49.0327 222.75C48.4077 222.85 47.8452 222.971 47.3452 223.112C46.9785 223.229 46.6327 223.379 46.3077 223.562C45.991 223.746 45.7327 223.983 45.5327 224.275C45.341 224.558 45.2452 224.912 45.2452 225.337C45.2452 225.704 45.3369 226.054 45.5202 226.387C45.7119 226.721 46.0035 226.992 46.3952 227.2C46.7952 227.408 47.316 227.512 47.9577 227.512ZM65.3827 229C64.5827 229.158 63.791 229.221 63.0077 229.188C62.2327 229.163 61.541 229.008 60.9327 228.725C60.3244 228.433 59.8619 227.983 59.5452 227.375C59.2785 226.842 59.1327 226.304 59.1077 225.762C59.091 225.212 59.0827 224.592 59.0827 223.9V211.75H61.3077V223.8C61.3077 224.35 61.3119 224.821 61.3202 225.212C61.3369 225.604 61.4244 225.942 61.5827 226.225C61.8827 226.758 62.3577 227.071 63.0077 227.163C63.666 227.254 64.4577 227.229 65.3827 227.087V229ZM56.3452 217.337V215.5H65.3827V217.337H56.3452ZM73.412 229.375C72.087 229.375 70.9287 229.083 69.937 228.5C68.9537 227.908 68.187 227.087 67.637 226.037C67.087 224.979 66.812 223.746 66.812 222.337C66.812 220.862 67.0828 219.587 67.6245 218.512C68.1662 217.429 68.9203 216.596 69.887 216.012C70.862 215.421 72.0037 215.125 73.312 215.125C74.6703 215.125 75.8245 215.437 76.7745 216.062C77.7328 216.687 78.4495 217.579 78.9245 218.737C79.4078 219.896 79.6162 221.275 79.5495 222.875H77.2995V222.075C77.2745 220.417 76.937 219.179 76.287 218.362C75.637 217.537 74.6703 217.125 73.387 217.125C72.012 217.125 70.9662 217.567 70.2495 218.45C69.5328 219.333 69.1745 220.6 69.1745 222.25C69.1745 223.842 69.5328 225.075 70.2495 225.95C70.9662 226.825 71.987 227.262 73.312 227.262C74.2037 227.262 74.9787 227.058 75.637 226.65C76.2953 226.242 76.812 225.654 77.187 224.887L79.3245 225.625C78.7995 226.817 78.0078 227.742 76.9495 228.4C75.8995 229.05 74.7203 229.375 73.412 229.375ZM68.4245 222.875V221.087H78.3995V222.875H68.4245ZM91.1749 229.375C90.1666 229.375 89.3207 229.192 88.6374 228.825C87.9624 228.45 87.4499 227.958 87.0999 227.35C86.7582 226.742 86.5874 226.075 86.5874 225.35C86.5874 224.642 86.7207 224.029 86.9874 223.512C87.2624 222.987 87.6457 222.554 88.1374 222.212C88.6291 221.862 89.2166 221.587 89.8999 221.387C90.5416 221.212 91.2582 221.062 92.0499 220.937C92.8499 220.804 93.6582 220.683 94.4749 220.575C95.2916 220.467 96.0541 220.362 96.7624 220.262L95.9624 220.725C95.9874 219.525 95.7457 218.637 95.2374 218.062C94.7374 217.487 93.8707 217.2 92.6374 217.2C91.8207 217.2 91.1041 217.387 90.4874 217.762C89.8791 218.129 89.4499 218.729 89.1999 219.562L87.0874 218.925C87.4124 217.742 88.0416 216.812 88.9749 216.137C89.9082 215.462 91.1374 215.125 92.6624 215.125C93.8874 215.125 94.9374 215.346 95.8124 215.787C96.6957 216.221 97.3291 216.879 97.7124 217.762C97.9041 218.179 98.0249 218.633 98.0749 219.125C98.1249 219.608 98.1499 220.117 98.1499 220.65V229H96.1749V225.762L96.6374 226.062C96.1291 227.154 95.4166 227.979 94.4999 228.537C93.5916 229.096 92.4832 229.375 91.1749 229.375ZM91.5124 227.512C92.3124 227.512 93.0041 227.371 93.5874 227.087C94.1791 226.796 94.6541 226.417 95.0124 225.95C95.3707 225.475 95.6041 224.958 95.7124 224.4C95.8374 223.983 95.9041 223.521 95.9124 223.012C95.9291 222.496 95.9374 222.1 95.9374 221.825L96.7124 222.162C95.9874 222.262 95.2749 222.358 94.5749 222.45C93.8749 222.542 93.2124 222.642 92.5874 222.75C91.9624 222.85 91.3999 222.971 90.8999 223.112C90.5332 223.229 90.1874 223.379 89.8624 223.562C89.5457 223.746 89.2874 223.983 89.0874 224.275C88.8957 224.558 88.7999 224.912 88.7999 225.337C88.7999 225.704 88.8916 226.054 89.0749 226.387C89.2666 226.721 89.5582 226.992 89.9499 227.2C90.3499 227.408 90.8707 227.512 91.5124 227.512ZM111.012 229V222.237C111.012 221.596 110.954 220.979 110.837 220.387C110.729 219.796 110.533 219.267 110.25 218.8C109.975 218.325 109.6 217.95 109.125 217.675C108.658 217.4 108.067 217.262 107.35 217.262C106.792 217.262 106.283 217.358 105.825 217.55C105.375 217.733 104.987 218.017 104.662 218.4C104.337 218.783 104.083 219.267 103.9 219.85C103.725 220.425 103.637 221.104 103.637 221.887L102.175 221.437C102.175 220.129 102.408 219.008 102.875 218.075C103.35 217.133 104.012 216.412 104.862 215.912C105.721 215.404 106.729 215.15 107.887 215.15C108.762 215.15 109.508 215.287 110.125 215.562C110.742 215.837 111.254 216.204 111.662 216.662C112.071 217.112 112.392 217.621 112.625 218.187C112.858 218.746 113.021 219.317 113.112 219.9C113.212 220.475 113.262 221.021 113.262 221.537V229H111.012ZM101.387 229V215.5H103.387V219.112H103.637V229H101.387ZM125.355 229.375C124.346 229.375 123.5 229.192 122.817 228.825C122.142 228.45 121.63 227.958 121.28 227.35C120.938 226.742 120.767 226.075 120.767 225.35C120.767 224.642 120.9 224.029 121.167 223.512C121.442 222.987 121.825 222.554 122.317 222.212C122.809 221.862 123.396 221.587 124.08 221.387C124.721 221.212 125.438 221.062 126.23 220.937C127.03 220.804 127.838 220.683 128.655 220.575C129.471 220.467 130.234 220.362 130.942 220.262L130.142 220.725C130.167 219.525 129.925 218.637 129.417 218.062C128.917 217.487 128.05 217.2 126.817 217.2C126 217.2 125.284 217.387 124.667 217.762C124.059 218.129 123.63 218.729 123.38 219.562L121.267 218.925C121.592 217.742 122.221 216.812 123.155 216.137C124.088 215.462 125.317 215.125 126.842 215.125C128.067 215.125 129.117 215.346 129.992 215.787C130.875 216.221 131.509 216.879 131.892 217.762C132.084 218.179 132.205 218.633 132.255 219.125C132.305 219.608 132.33 220.117 132.33 220.65V229H130.355V225.762L130.817 226.062C130.309 227.154 129.596 227.979 128.68 228.537C127.771 229.096 126.663 229.375 125.355 229.375ZM125.692 227.512C126.492 227.512 127.184 227.371 127.767 227.087C128.359 226.796 128.834 226.417 129.192 225.95C129.55 225.475 129.784 224.958 129.892 224.4C130.017 223.983 130.084 223.521 130.092 223.012C130.109 222.496 130.117 222.1 130.117 221.825L130.892 222.162C130.167 222.262 129.455 222.358 128.755 222.45C128.055 222.542 127.392 222.642 126.767 222.75C126.142 222.85 125.58 222.971 125.08 223.112C124.713 223.229 124.367 223.379 124.042 223.562C123.725 223.746 123.467 223.983 123.267 224.275C123.075 224.558 122.98 224.912 122.98 225.337C122.98 225.704 123.071 226.054 123.255 226.387C123.446 226.721 123.738 226.992 124.13 227.2C124.53 227.408 125.05 227.512 125.692 227.512ZM141.267 229.375C139.9 229.375 138.738 229.071 137.78 228.462C136.83 227.846 136.105 227 135.605 225.925C135.105 224.85 134.846 223.625 134.83 222.25C134.846 220.842 135.109 219.604 135.617 218.537C136.134 217.462 136.871 216.625 137.83 216.025C138.788 215.425 139.942 215.125 141.292 215.125C142.717 215.125 143.942 215.475 144.967 216.175C146 216.875 146.692 217.833 147.042 219.05L144.842 219.712C144.559 218.929 144.096 218.321 143.455 217.887C142.821 217.454 142.092 217.237 141.267 217.237C140.342 217.237 139.58 217.454 138.98 217.887C138.38 218.312 137.934 218.904 137.642 219.662C137.35 220.412 137.2 221.275 137.192 222.25C137.209 223.75 137.555 224.962 138.23 225.887C138.913 226.804 139.925 227.262 141.267 227.262C142.15 227.262 142.884 227.062 143.467 226.662C144.05 226.254 144.492 225.667 144.792 224.9L147.042 225.487C146.575 226.746 145.846 227.708 144.855 228.375C143.863 229.042 142.667 229.375 141.267 229.375ZM154.915 229.375C153.548 229.375 152.385 229.071 151.427 228.462C150.477 227.846 149.752 227 149.252 225.925C148.752 224.85 148.494 223.625 148.477 222.25C148.494 220.842 148.756 219.604 149.265 218.537C149.781 217.462 150.519 216.625 151.477 216.025C152.435 215.425 153.59 215.125 154.94 215.125C156.365 215.125 157.59 215.475 158.615 216.175C159.648 216.875 160.34 217.833 160.69 219.05L158.49 219.712C158.206 218.929 157.744 218.321 157.102 217.887C156.469 217.454 155.74 217.237 154.915 217.237C153.99 217.237 153.227 217.454 152.627 217.887C152.027 218.312 151.581 218.904 151.29 219.662C150.998 220.412 150.848 221.275 150.84 222.25C150.856 223.75 151.202 224.962 151.877 225.887C152.56 226.804 153.573 227.262 154.915 227.262C155.798 227.262 156.531 227.062 157.115 226.662C157.698 226.254 158.14 225.667 158.44 224.9L160.69 225.487C160.223 226.746 159.494 227.708 158.502 228.375C157.51 229.042 156.315 229.375 154.915 229.375ZM168.625 229.375C167.283 229.375 166.125 229.071 165.15 228.462C164.183 227.854 163.437 227.012 162.912 225.937C162.387 224.862 162.125 223.629 162.125 222.237C162.125 220.821 162.391 219.579 162.925 218.512C163.458 217.446 164.212 216.617 165.187 216.025C166.162 215.425 167.308 215.125 168.625 215.125C169.975 215.125 171.137 215.429 172.112 216.037C173.087 216.637 173.833 217.475 174.35 218.55C174.875 219.617 175.137 220.846 175.137 222.237C175.137 223.646 174.875 224.887 174.35 225.962C173.825 227.029 173.075 227.867 172.1 228.475C171.125 229.075 169.966 229.375 168.625 229.375ZM168.625 227.262C170.025 227.262 171.066 226.796 171.75 225.862C172.433 224.929 172.775 223.721 172.775 222.237C172.775 220.712 172.429 219.5 171.737 218.6C171.045 217.692 170.008 217.237 168.625 217.237C167.683 217.237 166.908 217.45 166.3 217.875C165.691 218.3 165.237 218.887 164.937 219.637C164.637 220.387 164.487 221.254 164.487 222.237C164.487 223.754 164.837 224.971 165.537 225.887C166.237 226.804 167.266 227.262 168.625 227.262ZM183.014 229.35C182.147 229.35 181.402 229.213 180.777 228.937C180.16 228.662 179.647 228.296 179.239 227.837C178.831 227.379 178.51 226.871 178.277 226.312C178.043 225.754 177.877 225.183 177.777 224.6C177.685 224.017 177.639 223.471 177.639 222.962V215.5H179.889V222.262C179.889 222.896 179.947 223.508 180.064 224.1C180.181 224.692 180.377 225.225 180.652 225.7C180.935 226.175 181.31 226.55 181.777 226.825C182.252 227.1 182.843 227.237 183.552 227.237C184.11 227.237 184.618 227.142 185.077 226.95C185.535 226.758 185.927 226.475 186.252 226.1C186.577 225.717 186.827 225.233 187.002 224.65C187.177 224.067 187.264 223.387 187.264 222.612L188.727 223.062C188.727 224.362 188.489 225.483 188.014 226.425C187.547 227.367 186.885 228.092 186.027 228.6C185.177 229.1 184.172 229.35 183.014 229.35ZM187.514 229V225.387H187.264V215.5H189.502V229H187.514ZM202.614 229V222.237C202.614 221.596 202.556 220.979 202.439 220.387C202.331 219.796 202.135 219.267 201.851 218.8C201.576 218.325 201.201 217.95 200.726 217.675C200.26 217.4 199.668 217.262 198.951 217.262C198.393 217.262 197.885 217.358 197.426 217.55C196.976 217.733 196.589 218.017 196.264 218.4C195.939 218.783 195.685 219.267 195.501 219.85C195.326 220.425 195.239 221.104 195.239 221.887L193.776 221.437C193.776 220.129 194.01 219.008 194.476 218.075C194.951 217.133 195.614 216.412 196.464 215.912C197.322 215.404 198.331 215.15 199.489 215.15C200.364 215.15 201.11 215.287 201.726 215.562C202.343 215.837 202.856 216.204 203.264 216.662C203.672 217.112 203.993 217.621 204.226 218.187C204.46 218.746 204.622 219.317 204.714 219.9C204.814 220.475 204.864 221.021 204.864 221.537V229H202.614ZM192.989 229V215.5H194.989V219.112H195.239V229H192.989ZM215.651 229C214.851 229.158 214.06 229.221 213.276 229.188C212.501 229.163 211.81 229.008 211.201 228.725C210.593 228.433 210.13 227.983 209.814 227.375C209.547 226.842 209.401 226.304 209.376 225.762C209.36 225.212 209.351 224.592 209.351 223.9V211.75H211.576V223.8C211.576 224.35 211.58 224.821 211.589 225.212C211.605 225.604 211.693 225.942 211.851 226.225C212.151 226.758 212.626 227.071 213.276 227.163C213.935 227.254 214.726 227.229 215.651 227.087V229ZM206.614 217.337V215.5H215.651V217.337H206.614Z" fill="white"/>
</svg>
