<svg width="290" height="261" viewBox="0 0 290 261" fill="none" xmlns="http://www.w3.org/2000/svg">
<path d="M224.6 77.4307L199.084 91.6425L213.685 116.017L184.065 116.224L183.853 144.252L158.093 130.436L143.074 154.581L128.055 130.436L102.296 144.246L102.084 116.224L72.4635 116.017L87.0647 91.6425L61.5485 77.4307L87.0647 63.2248L72.4635 38.8499L102.084 38.6433L102.296 10.621L128.055 24.4315L143.074 0.286743L158.093 24.4315L183.853 10.621L184.065 38.6433L213.685 38.8499L199.084 63.2248L224.6 77.4307Z" fill="white"/>
<path d="M143.074 154.876C143.02 154.875 142.967 154.862 142.92 154.836C142.872 154.81 142.833 154.773 142.806 154.728L127.943 130.861L102.452 144.53C102.404 144.555 102.351 144.569 102.296 144.569C102.241 144.569 102.187 144.555 102.14 144.53C102.093 144.504 102.054 144.467 102.026 144.422C101.999 144.378 101.984 144.327 101.984 144.276L101.772 116.537L72.4574 116.336C72.4027 116.337 72.3488 116.324 72.3015 116.298C72.2542 116.272 72.2154 116.234 72.1892 116.189C72.1629 116.144 72.1492 116.095 72.1492 116.044C72.1492 115.993 72.1629 115.944 72.1892 115.899L86.6407 91.7723L61.3864 77.714C61.34 77.6871 61.3016 77.6493 61.275 77.6044C61.2484 77.5594 61.2344 77.5088 61.2344 77.4572C61.2344 77.4057 61.2484 77.355 61.275 77.3101C61.3016 77.2651 61.34 77.2274 61.3864 77.2005L86.6407 63.1421L72.1892 38.9915C72.1629 38.9473 72.1492 38.8975 72.1492 38.8469C72.1492 38.7962 72.1629 38.7464 72.1892 38.7023C72.2154 38.6569 72.2542 38.6191 72.3015 38.5931C72.3488 38.5671 72.4027 38.5538 72.4574 38.5547L101.772 38.3482L101.984 10.6092C101.984 10.5577 101.999 10.5071 102.026 10.4626C102.054 10.4181 102.093 10.3811 102.14 10.3554C102.187 10.3295 102.241 10.3158 102.296 10.3158C102.351 10.3158 102.404 10.3295 102.452 10.3554L127.943 24.036L142.819 0.139152C142.847 0.0965009 142.887 0.0613928 142.934 0.0370716C142.981 0.0127504 143.033 0 143.087 0C143.14 0 143.193 0.0127504 143.24 0.0370716C143.287 0.0613928 143.326 0.0965009 143.355 0.139152L158.206 24.036L183.697 10.3672C183.744 10.3413 183.798 10.3276 183.853 10.3276C183.908 10.3276 183.961 10.3413 184.009 10.3672C184.056 10.3929 184.095 10.4299 184.123 10.4744C184.15 10.5189 184.164 10.5695 184.165 10.621L184.377 38.36L213.691 38.5606C213.746 38.5597 213.8 38.573 213.847 38.599C213.895 38.625 213.933 38.6628 213.96 38.7082C213.987 38.7519 214.002 38.8019 214.002 38.8528C214.002 38.9037 213.987 38.9536 213.96 38.9974L199.514 63.1244L224.762 77.1533C224.809 77.1802 224.847 77.2179 224.874 77.2629C224.9 77.3078 224.914 77.3585 224.914 77.41C224.914 77.4615 224.9 77.5122 224.874 77.5572C224.847 77.6021 224.809 77.6398 224.762 77.6667L199.508 91.7251L213.953 115.852C213.981 115.896 213.995 115.946 213.995 115.997C213.995 116.048 213.981 116.098 213.953 116.141C213.927 116.187 213.888 116.225 213.841 116.251C213.794 116.277 213.74 116.29 213.685 116.289L184.371 116.49L184.159 144.229C184.158 144.28 184.144 144.331 184.116 144.375C184.089 144.42 184.05 144.457 184.003 144.482C183.955 144.508 183.901 144.522 183.847 144.522C183.792 144.522 183.738 144.508 183.691 144.482L158.206 130.861L143.343 154.752C143.312 154.792 143.272 154.824 143.225 154.846C143.178 154.868 143.127 154.878 143.074 154.876ZM128.055 130.141C128.109 130.141 128.162 130.154 128.209 130.179C128.256 130.204 128.295 130.239 128.324 130.282L143.074 153.996L157.819 130.271C157.862 130.205 157.93 130.157 158.009 130.137C158.088 130.117 158.172 130.127 158.243 130.164L183.541 143.739L183.753 116.212C183.753 116.174 183.761 116.136 183.777 116.1C183.793 116.065 183.816 116.032 183.845 116.006C183.874 115.979 183.908 115.957 183.946 115.943C183.984 115.929 184.024 115.922 184.065 115.923L213.149 115.722L198.803 91.7841C198.782 91.751 198.768 91.7141 198.763 91.6758C198.757 91.6375 198.759 91.5984 198.77 91.561C198.78 91.5236 198.799 91.4885 198.824 91.4579C198.849 91.4273 198.88 91.4017 198.916 91.3828L223.977 77.4307L198.953 63.4785C198.917 63.4596 198.886 63.434 198.861 63.4034C198.836 63.3728 198.818 63.3378 198.807 63.3003C198.797 63.2629 198.794 63.2239 198.8 63.1855C198.806 63.1472 198.82 63.1104 198.841 63.0772L213.186 39.139L184.102 38.9384C184.062 38.9391 184.021 38.9322 183.984 38.9181C183.946 38.9039 183.911 38.8827 183.882 38.8558C183.853 38.8288 183.83 38.7967 183.814 38.7612C183.799 38.7257 183.791 38.6876 183.791 38.6492L183.578 11.1226L158.281 24.697C158.209 24.7342 158.125 24.744 158.046 24.7242C157.967 24.7044 157.899 24.6566 157.856 24.5908L143.074 0.87099L128.324 24.5849C128.282 24.6503 128.215 24.6979 128.137 24.7178C128.059 24.7376 127.976 24.728 127.906 24.6911L102.602 11.1167L102.396 38.6374C102.394 38.7152 102.361 38.7893 102.303 38.8444C102.244 38.8994 102.166 38.9309 102.084 38.9325L72.9938 39.1331L87.3392 63.0713C87.3801 63.1387 87.3913 63.2187 87.3703 63.2938C87.3493 63.3689 87.2977 63.4332 87.2269 63.4726L62.1661 77.4307L87.2269 91.3828C87.2977 91.4222 87.3493 91.4865 87.3703 91.5616C87.3913 91.6368 87.3801 91.7167 87.3392 91.7841L72.9938 115.722L102.084 115.923C102.165 115.924 102.243 115.955 102.3 116.009C102.358 116.063 102.393 116.135 102.396 116.212L102.602 143.739L127.906 130.164C127.953 130.145 128.004 130.137 128.055 130.141Z" fill="#263238"/>
<path d="M216.118 77.4307L193.252 90.1611L206.331 112.004L179.799 112.187L179.605 137.294L156.528 124.918L143.074 146.548L129.621 124.918L106.543 137.294L106.35 112.187L79.8109 112.004L92.8902 90.1611L70.031 77.4307L92.8902 64.7061L79.8109 42.8631L106.35 42.6802L106.543 17.5734L129.621 29.9497L143.074 8.31921L156.528 29.9497L179.605 17.5734L179.799 42.6802L206.331 42.8631L193.252 64.7061L216.118 77.4307Z" fill="#92E3A9"/>
<path d="M181.554 115.842C202.806 95.7318 202.806 63.1275 181.554 43.0177C160.302 22.908 125.846 22.908 104.594 43.0177C83.3417 63.1275 83.3417 95.7318 104.594 115.842C125.846 135.951 160.302 135.951 181.554 115.842Z" fill="#263238"/>
<path d="M143.074 131.215C132.249 131.216 121.666 128.179 112.665 122.489C103.664 116.799 96.6476 108.711 92.5044 99.2472C88.3612 89.7837 87.2768 79.3701 89.3884 69.3234C91.5 59.2767 96.7128 50.0482 104.367 42.8049C112.022 35.5617 121.775 30.6291 132.392 28.631C143.009 26.6329 154.015 27.659 164.016 31.5795C174.017 35.5001 182.564 42.139 188.578 50.6566C194.591 59.1742 197.8 69.188 197.799 79.4314C197.781 93.16 192.009 106.321 181.751 116.029C171.492 125.736 157.583 131.198 143.074 131.215ZM143.074 28.2323C132.373 28.2311 121.911 31.2329 113.012 36.858C104.113 42.4831 97.1774 50.479 93.0812 59.8343C88.985 69.1896 87.9126 79.4842 89.9997 89.4163C92.0867 99.3483 97.2394 108.472 104.806 115.633C112.373 122.794 122.014 127.67 132.51 129.646C143.006 131.622 153.885 130.609 163.773 126.734C173.66 122.859 182.111 116.297 188.056 107.877C194.002 99.457 197.175 89.5579 197.175 79.4314C197.159 65.8584 191.454 52.8456 181.312 43.2475C171.17 33.6494 157.418 28.2495 143.074 28.2323Z" fill="#263238"/>
<path d="M143.074 128.925C173.129 128.925 197.494 105.87 197.494 77.4306C197.494 48.9912 173.129 25.9364 143.074 25.9364C113.019 25.9364 88.6552 48.9912 88.6552 77.4306C88.6552 105.87 113.019 128.925 143.074 128.925Z" fill="#92E3A9"/>
<path d="M143.074 129.22C132.249 129.221 121.666 126.185 112.665 120.494C103.664 114.804 96.6476 106.716 92.5044 97.2523C88.3612 87.7888 87.2768 77.3752 89.3884 67.3285C91.5 57.2818 96.7128 48.0533 104.367 40.8101C112.022 33.5668 121.775 28.6343 132.392 26.6361C143.009 24.638 154.015 25.6641 164.016 29.5847C174.017 33.5052 182.564 40.1441 188.578 48.6617C194.591 57.1793 197.8 67.1931 197.799 77.4365C197.781 91.1651 192.009 104.326 181.751 114.034C171.492 123.742 157.583 129.203 143.074 129.22ZM143.074 26.2374C132.373 26.2362 121.911 29.238 113.012 34.8632C104.113 40.4883 97.1774 48.4841 93.0812 57.8394C88.985 67.1947 87.9126 77.4893 89.9997 87.4214C92.0867 97.3534 97.2394 106.477 104.806 113.638C112.373 120.799 122.014 125.675 132.51 127.651C143.006 129.627 153.885 128.614 163.773 124.739C173.66 120.864 182.111 114.302 188.056 105.882C194.002 97.4621 197.175 87.563 197.175 77.4365C197.159 63.8635 191.454 50.8508 181.312 41.2526C171.17 31.6545 157.418 26.2546 143.074 26.2374Z" fill="#263238"/>
<path opacity="0.34" d="M143.074 114.383C164.641 114.383 182.125 97.8386 182.125 77.4307C182.125 57.0227 164.641 40.4788 143.074 40.4788C121.507 40.4788 104.023 57.0227 104.023 77.4307C104.023 97.8386 121.507 114.383 143.074 114.383Z" fill="white"/>
<path opacity="0.34" d="M170.374 69.9832C173.249 58.2639 165.54 46.558 153.155 43.8373C140.77 41.1166 128.399 48.4114 125.524 60.1307C122.649 71.85 130.358 83.5559 142.743 86.2766C155.128 88.9973 167.499 81.7025 170.374 69.9832Z" fill="white"/>
<path d="M147.627 71.9183C143.715 71.923 139.888 70.8344 136.627 68.7891C133.366 66.7438 130.816 63.8328 129.296 60.4214C129.261 60.3495 129.241 60.2715 129.238 60.1922C129.234 60.1128 129.248 60.0336 129.278 59.9594C129.308 59.8852 129.354 59.8175 129.412 59.7604C129.47 59.7032 129.54 59.6578 129.617 59.6268C129.695 59.5958 129.778 59.5798 129.862 59.58C129.946 59.5801 130.029 59.5962 130.106 59.6274C130.183 59.6586 130.253 59.7043 130.311 59.7616C130.369 59.8189 130.414 59.8867 130.444 59.961C131.702 62.7862 133.715 65.253 136.285 67.1187C138.856 68.9844 141.895 70.1848 145.105 70.6016C148.315 71.0185 151.584 70.6375 154.59 69.4962C157.597 68.3549 160.238 66.4925 162.254 64.0924C162.361 63.9848 162.507 63.9193 162.663 63.9088C162.819 63.8983 162.973 63.9435 163.095 64.0355C163.218 64.1275 163.299 64.2596 163.323 64.4056C163.348 64.5517 163.313 64.7011 163.227 64.8242C161.363 67.0465 158.991 68.8397 156.289 70.0686C153.587 71.2974 150.625 71.9299 147.627 71.9183Z" fill="#263238"/>
<path d="M145.638 53.4512C145.422 53.4501 145.214 53.3792 145.047 53.2504C144.88 53.1215 144.765 52.9424 144.721 52.7429C144.458 51.5423 143.779 50.459 142.792 49.6644C141.805 48.8699 140.566 48.4094 139.271 48.3559C137.976 48.3024 136.7 48.6589 135.643 49.369C134.587 50.0792 133.811 51.1023 133.438 52.2767C133.41 52.395 133.356 52.5066 133.281 52.6046C133.205 52.7026 133.109 52.7848 132.999 52.8462C132.888 52.9076 132.766 52.9469 132.638 52.9616C132.511 52.9763 132.382 52.9661 132.259 52.9317C132.136 52.8973 132.022 52.8393 131.924 52.7614C131.826 52.6835 131.746 52.5874 131.688 52.4789C131.631 52.3705 131.598 52.252 131.591 52.131C131.584 52.0099 131.603 51.8887 131.648 51.775C132.134 50.2192 133.155 48.8616 134.549 47.9178C135.944 46.9741 137.632 46.4983 139.345 46.5661C141.058 46.6339 142.697 47.2414 144.004 48.2921C145.31 49.3428 146.208 50.7764 146.555 52.3652C146.579 52.4791 146.58 52.5965 146.557 52.7107C146.533 52.8249 146.486 52.9336 146.418 53.0306C146.351 53.1276 146.263 53.211 146.162 53.2761C146.06 53.3412 145.945 53.3866 145.825 53.4098C145.764 53.4295 145.701 53.4434 145.638 53.4512Z" fill="#263238"/>
<path d="M128.317 40.7798H128.267C128.021 40.7736 127.778 40.7216 127.553 40.6265C127.328 40.5315 127.126 40.3953 126.956 40.2259C126.787 40.0564 126.655 39.857 126.567 39.6391C126.48 39.4212 126.439 39.1891 126.446 38.9561C126.505 36.9962 127.086 35.0821 128.134 33.3911C129.183 31.7001 130.665 30.2868 132.445 29.2822C134.224 28.2776 136.243 27.7142 138.313 27.6442C140.384 27.5741 142.44 27.9997 144.291 28.8815C144.718 29.1005 145.039 29.4684 145.185 29.9073C145.331 30.3462 145.29 30.8216 145.072 31.2329C144.854 31.6441 144.476 31.9589 144.016 32.1104C143.557 32.262 143.054 32.2385 142.613 32.0449C141.324 31.432 139.893 31.1364 138.452 31.1855C137.011 31.2346 135.606 31.6267 134.368 32.3256C133.129 33.0246 132.097 34.0077 131.367 35.1842C130.636 36.3607 130.231 37.6924 130.188 39.0564C130.175 39.5177 129.972 39.9561 129.623 40.278C129.273 40.5999 128.805 40.7799 128.317 40.7798Z" fill="#263238"/>
<path d="M166.283 42.7156H166.339C166.834 42.7017 167.303 42.5025 167.644 42.1617C167.984 41.821 168.167 41.3664 168.154 40.8978C168.095 38.9372 167.514 37.0225 166.465 35.3308C165.416 33.6392 163.933 32.2253 162.153 31.2202C160.373 30.2151 158.354 29.6512 156.283 29.5808C154.211 29.5103 152.155 29.9357 150.303 30.8173C150.084 30.9219 149.888 31.0665 149.728 31.2426C149.567 31.4188 149.445 31.6231 149.368 31.844C149.291 32.0648 149.261 32.2979 149.279 32.5298C149.297 32.7618 149.363 32.9881 149.474 33.1958C149.584 33.4035 149.737 33.5886 149.923 33.7404C150.109 33.8923 150.325 34.008 150.559 34.0809C150.792 34.1537 151.038 34.1824 151.283 34.1652C151.529 34.1481 151.768 34.0854 151.987 33.9807C153.276 33.369 154.707 33.0745 156.147 33.1245C157.588 33.1746 158.992 33.5675 160.23 34.2669C161.468 34.9664 162.499 35.9498 163.229 37.1263C163.959 38.3029 164.363 39.6345 164.405 40.9981C164.42 41.4595 164.624 41.8972 164.975 42.218C165.326 42.5388 165.795 42.7173 166.283 42.7156Z" fill="#263238"/>
<path d="M166.158 53.4512C165.942 53.4512 165.733 53.3807 165.566 53.2517C165.399 53.1226 165.284 52.9429 165.241 52.7429C164.978 51.5423 164.299 50.459 163.312 49.6644C162.325 48.8699 161.086 48.4094 159.791 48.3559C158.497 48.3024 157.22 48.6589 156.164 49.369C155.107 50.0792 154.331 51.1023 153.958 52.2767C153.934 52.3986 153.883 52.5144 153.809 52.6166C153.735 52.7187 153.638 52.805 153.526 52.8697C153.415 52.9344 153.29 52.9761 153.16 52.9922C153.03 53.0083 152.898 52.9983 152.772 52.963C152.646 52.9276 152.53 52.8677 152.43 52.787C152.331 52.7064 152.25 52.6069 152.194 52.4948C152.137 52.3828 152.107 52.2609 152.103 52.1369C152.1 52.0129 152.124 51.8896 152.174 51.775C152.66 50.2192 153.681 48.8616 155.076 47.9178C156.47 46.9741 158.158 46.4983 159.871 46.5661C161.584 46.6339 163.224 47.2414 164.53 48.2921C165.837 49.3428 166.734 50.7764 167.081 52.3652C167.106 52.4791 167.106 52.5965 167.083 52.7107C167.06 52.8249 167.013 52.9336 166.945 53.0306C166.877 53.1276 166.79 53.211 166.688 53.2761C166.586 53.3412 166.472 53.3866 166.351 53.4098L166.158 53.4512Z" fill="#263238"/>
<path d="M126.602 61.7079C126.459 61.705 126.322 61.656 126.213 61.5689C126.104 61.4819 126.03 61.3621 126.003 61.2296C125.976 61.097 125.998 60.9597 126.065 60.8406C126.132 60.7214 126.24 60.6276 126.371 60.5748L131.405 58.6684C131.555 58.6206 131.719 58.6289 131.864 58.6917C132.008 58.7545 132.122 58.8669 132.181 59.0062C132.241 59.1455 132.242 59.301 132.185 59.4412C132.127 59.5813 132.016 59.6954 131.872 59.7603L126.839 61.6666C126.764 61.6948 126.683 61.7089 126.602 61.7079Z" fill="#263238"/>
<path d="M236.862 105.134C232.353 105.559 161.836 154.805 161.836 154.805L235.889 238.087C251.582 225.769 263.514 208.577 268.784 186.858C269.879 182.368 270.667 177.816 271.142 173.231C272.092 163.857 271.96 154.413 270.749 145.067C270.418 142.411 270.05 139.873 269.639 137.424C255.798 122.232 239.395 104.892 236.862 105.134Z" fill="#92E3A9"/>
<path opacity="0.7" d="M236.862 105.134C232.353 105.559 161.836 154.805 161.836 154.805L235.889 238.087C251.582 225.769 263.514 208.577 268.784 186.858C269.879 182.368 270.667 177.816 271.142 173.231C272.092 163.857 271.96 154.413 270.749 145.067C270.418 142.411 270.05 139.873 269.639 137.424C255.798 122.232 239.395 104.892 236.862 105.134Z" fill="white"/>
<path d="M97.9112 220.747C107.354 231.134 120.365 244.526 138.259 252.723H210.18C219.372 249.123 227.949 244.254 235.634 238.276C214.346 213.688 113.386 97.6388 101.691 95.7325C92.3352 94.2098 44.6396 118.355 18.113 132.277C30.8181 186.982 81.9191 203.153 97.9112 220.747Z" fill="#92E3A9"/>
<path opacity="0.7" d="M97.9112 220.747C107.354 231.134 120.365 244.526 138.259 252.723H210.18C219.372 249.123 227.949 244.254 235.634 238.276C214.346 213.688 113.386 97.6388 101.691 95.7325C92.3352 94.2098 44.6396 118.355 18.113 132.277C30.8181 186.982 81.9191 203.153 97.9112 220.747Z" fill="white"/>
<path d="M0.312175 142.074C0.256818 142.074 0.202384 142.061 0.154253 142.035C0.106122 142.009 0.0659616 141.972 0.0377404 141.927C-0.0010322 141.858 -0.0103497 141.778 0.0117348 141.704C0.0338193 141.629 0.0855971 141.565 0.156247 141.525C0.224855 141.484 7.47243 137.542 17.9758 132.041C18.0489 132.005 18.1339 131.997 18.2131 132.019C18.2922 132.041 18.3592 132.091 18.3999 132.159C18.4403 132.227 18.4505 132.308 18.4283 132.383C18.4061 132.458 18.3533 132.522 18.2814 132.56C7.79676 138.061 0.536713 142.004 0.468104 142.063C0.417699 142.077 0.364433 142.081 0.312175 142.074Z" fill="#263238"/>
<path d="M158.543 151.659C158.498 151.66 158.453 151.652 158.412 151.635C158.371 151.617 158.335 151.591 158.305 151.559C117.153 106.604 104.772 96.5529 101.653 96.0394C92.8029 94.5935 48.2697 116.909 22.5102 130.341C22.4742 130.36 22.4346 130.372 22.3938 130.376C22.353 130.38 22.3116 130.377 22.2722 130.366C22.2328 130.355 22.1961 130.337 22.1641 130.312C22.1322 130.288 22.1057 130.257 22.0861 130.223C22.0665 130.19 22.0541 130.153 22.0498 130.115C22.0454 130.076 22.0492 130.038 22.0608 130.001C22.0724 129.964 22.0917 129.93 22.1174 129.9C22.1432 129.87 22.1749 129.846 22.2108 129.828C53.7584 113.373 93.1709 94.0564 101.759 95.4551C106.475 96.2224 125.66 114.967 158.792 151.169C158.832 151.211 158.859 151.263 158.868 151.319C158.877 151.374 158.869 151.432 158.845 151.483C158.82 151.534 158.78 151.578 158.73 151.608C158.679 151.638 158.621 151.654 158.561 151.653L158.543 151.659Z" fill="#263238"/>
<path d="M239.563 243.139C239.517 243.139 239.471 243.129 239.429 243.111C239.387 243.093 239.35 243.066 239.32 243.033C238.908 242.549 197.531 194.489 160.332 153.778C160.279 153.718 160.252 153.641 160.259 153.563C160.265 153.485 160.304 153.413 160.367 153.362C160.43 153.311 160.511 153.286 160.594 153.292C160.676 153.298 160.753 153.335 160.807 153.394C197.98 194.117 239.395 242.177 239.806 242.661C239.858 242.721 239.882 242.798 239.874 242.876C239.866 242.953 239.826 243.024 239.763 243.074C239.705 243.114 239.635 243.137 239.563 243.139Z" fill="#263238"/>
<path d="M289.579 159.998C289.532 159.999 289.487 159.99 289.444 159.971C289.402 159.953 289.365 159.926 289.336 159.892L286.086 156.239C286.034 156.179 286.01 156.101 286.018 156.024C286.026 155.947 286.066 155.875 286.13 155.826C286.161 155.801 286.196 155.781 286.235 155.769C286.274 155.757 286.315 155.753 286.356 155.756C286.397 155.76 286.436 155.771 286.472 155.789C286.508 155.807 286.54 155.831 286.566 155.861L289.816 159.544C289.869 159.605 289.894 159.682 289.887 159.761C289.88 159.839 289.841 159.912 289.778 159.963C289.717 159.993 289.648 160.006 289.579 159.998Z" fill="#263238"/>
<path d="M162.36 154.852C162.294 154.852 162.23 154.832 162.177 154.796C162.124 154.76 162.084 154.709 162.064 154.65C162.043 154.591 162.042 154.528 162.062 154.469C162.081 154.41 162.12 154.358 162.172 154.321C165.035 152.32 232.291 105.27 236.831 104.839C240.349 104.497 267.917 134.844 284.021 152.957C284.048 152.987 284.068 153.022 284.081 153.059C284.093 153.096 284.098 153.135 284.094 153.174C284.091 153.213 284.079 153.251 284.061 153.286C284.042 153.32 284.016 153.351 283.984 153.376C283.953 153.402 283.916 153.421 283.877 153.433C283.837 153.444 283.796 153.449 283.755 153.446C283.714 153.442 283.674 153.431 283.637 153.413C283.6 153.395 283.568 153.371 283.541 153.341C256.846 123.3 239.457 105.423 236.937 105.423H236.894C233.395 105.754 186.734 137.884 162.547 154.793C162.493 154.832 162.427 154.853 162.36 154.852Z" fill="#263238"/>
<path d="M265.553 61.1591C265.553 61.1591 258.156 47.9742 243.349 45.5013C228.542 43.0284 222.885 58.2672 218.968 61.9854C215.051 65.7036 213.741 58.6862 206.774 59.0993C199.807 59.5125 198.042 63.632 196.764 65.6918C195.485 67.7515 190.614 60.9702 187.807 61.885C185 62.7998 183.741 65.7331 183.741 65.7331L173.686 67.3384H287.327C287.327 67.3384 288.2 60.3328 280.797 58.6862C273.393 57.0396 268.603 61.9854 265.553 61.1591Z" fill="white"/>
<path d="M287.327 67.6334H173.686C173.608 67.6337 173.532 67.6058 173.474 67.5555C173.416 67.5052 173.381 67.4361 173.374 67.362C173.367 67.288 173.391 67.2142 173.439 67.1559C173.488 67.0977 173.559 67.0595 173.636 67.0492L183.522 65.4674C183.834 64.83 185.144 62.4457 187.707 61.6076C189.273 61.0882 191.281 62.6286 193.046 63.9683C194.294 64.9009 195.541 65.8629 196.165 65.7389C196.236 65.7256 196.303 65.6968 196.36 65.6548C196.418 65.6128 196.464 65.5588 196.496 65.4969C196.62 65.3022 196.745 65.0838 196.882 64.8536C198.161 62.7171 200.294 59.1465 206.756 58.7629C210.205 58.5622 212.301 60.1026 213.985 61.3361C215.8 62.6758 216.897 63.4844 218.75 61.7315C219.85 60.5301 220.835 59.2384 221.694 57.8717C225.685 52.0347 231.717 43.2172 243.405 45.1707C257.445 47.5315 264.979 59.5478 265.765 60.8639C266.857 61.0941 268.26 60.5452 269.982 59.8547C272.807 58.7392 276.325 57.3464 280.866 58.3556C288.45 60.0495 287.645 67.2616 287.639 67.3324C287.639 67.4113 287.606 67.4869 287.548 67.5432C287.49 67.5995 287.41 67.6319 287.327 67.6334ZM177.404 67.0432H287.04C287.115 65.7743 287.04 60.38 280.722 58.9753C276.356 58.0074 272.963 59.359 270.219 60.4449C268.304 61.2003 266.795 61.7964 265.472 61.4423C265.391 61.4177 265.322 61.3651 265.279 61.2948C265.204 61.1649 257.794 48.2102 243.293 45.7904C232.022 43.9136 226.116 52.5304 222.218 58.2317C221.336 59.6361 220.322 60.9616 219.186 62.1919C216.947 64.3107 215.4 63.1657 213.604 61.8437C212.001 60.6633 210.005 59.2055 206.793 59.3944C200.668 59.7544 198.716 63.024 197.437 65.19C197.3 65.4202 197.169 65.6445 197.044 65.8452C196.966 65.9787 196.857 66.0941 196.725 66.1829C196.593 66.2717 196.443 66.3317 196.284 66.3586C195.367 66.5121 194.113 65.556 192.666 64.4464C191.026 63.1834 189.167 61.7551 187.926 62.1624C185.294 63.0299 184.052 65.8156 184.04 65.8452C184.021 65.8919 183.988 65.9329 183.947 65.964C183.905 65.9951 183.856 66.0152 183.803 66.0222L177.404 67.0432Z" fill="#263238"/>
<path d="M84.8942 87.7236C84.8942 87.7236 79.7048 78.4694 69.3013 76.7342C58.8977 74.9991 54.9558 85.6992 52.1865 88.302C49.4172 90.9047 48.5316 86.0061 43.6479 86.2776C38.7642 86.5491 37.5355 89.4588 36.6186 90.9047C35.7017 92.3507 32.3025 87.582 30.3316 88.2312C28.3606 88.8804 27.4812 90.9342 27.4812 90.9342L20.4207 92.0615H100.175C100.175 92.0615 100.799 87.1452 95.5909 85.9884C90.3829 84.8317 87.0335 88.302 84.8942 87.7236Z" fill="white"/>
<path d="M100.175 92.3566H20.4207C20.338 92.3629 20.256 92.3378 20.1929 92.2869C20.1297 92.2359 20.0905 92.1634 20.0839 92.0851C20.0773 92.0069 20.1038 91.9293 20.1576 91.8695C20.2114 91.8098 20.2881 91.7727 20.3708 91.7664L27.2317 90.6687C27.8209 89.4397 28.8824 88.469 30.2005 87.9538C31.3482 87.5702 32.7765 88.6738 34.0364 89.6417C34.8347 90.2319 35.7391 90.9401 36.1508 90.8752C36.2007 90.8752 36.2568 90.8457 36.3192 90.7513C36.3816 90.6568 36.4938 90.4621 36.5936 90.3027C37.498 88.7859 39.0074 86.254 43.5917 85.9825C46.0492 85.835 47.5336 86.9268 48.7311 87.8062C49.9287 88.6856 50.7083 89.264 51.9495 88.0895C52.7185 87.2533 53.4054 86.3525 54.0015 85.3982C56.8207 81.2669 61.0745 75.064 69.3324 76.445C79.1123 78.074 84.4139 86.3721 85.0688 87.4639C85.8048 87.5997 86.7528 87.2219 87.9379 86.7557C89.9338 85.9648 92.4162 84.9851 95.6345 85.6992C101.036 86.8796 100.462 92.0438 100.456 92.091C100.448 92.1588 100.416 92.2221 100.365 92.2703C100.314 92.3186 100.247 92.349 100.175 92.3566ZM24.1443 91.7664H99.882C99.9257 90.7572 99.7635 87.216 95.516 86.2717C92.4972 85.5989 90.1146 86.5432 88.1998 87.2987C86.8963 87.818 85.7673 88.2666 84.8068 88.0069C84.7252 87.9823 84.6562 87.9297 84.6135 87.8593C84.5636 87.7708 79.368 78.7114 69.2514 77.0234C61.3988 75.7132 57.276 81.745 54.5504 85.7169C53.9289 86.7059 53.215 87.6402 52.4173 88.5086C50.7831 90.049 49.6106 89.1873 48.3694 88.2725C47.1282 87.3577 45.8745 86.437 43.6603 86.5727C39.4066 86.8206 38.0469 89.0928 37.1612 90.5919L36.8805 91.0523C36.8159 91.1604 36.7262 91.2533 36.6182 91.3238C36.5101 91.3943 36.3866 91.4407 36.2568 91.4595C35.5707 91.5717 34.6788 90.8693 33.6435 90.0962C32.5083 89.2286 31.2234 88.2371 30.4064 88.5086C28.5976 89.0988 27.7431 91.0228 27.7369 91.0464C27.7151 91.0916 27.6822 91.1312 27.641 91.162C27.5998 91.1928 27.5514 91.2139 27.4999 91.2234L24.1443 91.7664Z" fill="#263238"/>
<path d="M203.893 102.455C203.893 102.455 199.633 94.8708 191.119 93.4485C182.605 92.0261 179.35 100.796 177.123 102.933C174.896 105.069 174.117 101.032 170.112 101.269C166.108 101.505 165.123 103.877 164.349 105.063C163.576 106.25 160.813 102.343 159.197 102.874C158.149 103.304 157.313 104.095 156.858 105.087L151.077 106.014H216.417C216.417 106.014 216.916 101.983 212.675 101.032C208.433 100.082 205.645 102.933 203.893 102.455Z" fill="white"/>
<path d="M216.417 106.309H151.045C150.967 106.309 150.891 106.281 150.833 106.231C150.776 106.18 150.74 106.111 150.734 106.037C150.728 105.963 150.751 105.889 150.8 105.83C150.848 105.771 150.918 105.731 150.996 105.719L156.609 104.821C157.101 103.814 157.976 103.019 159.06 102.596C160.033 102.272 161.162 103.145 162.26 103.989C162.884 104.456 163.632 105.046 163.944 104.993C163.944 104.993 164 104.993 164.044 104.91C164.087 104.827 164.187 104.674 164.268 104.544C165.017 103.293 166.264 101.204 170.056 101.003C172.09 100.885 173.318 101.782 174.304 102.508C175.289 103.234 175.882 103.688 176.867 102.744C177.495 102.059 178.056 101.322 178.545 100.543C180.859 97.1608 184.358 92.0438 191.169 93.1829C199.14 94.5167 203.494 101.239 204.092 102.219C204.672 102.313 205.433 102.012 206.381 101.629C207.941 101.038 210.068 100.171 212.725 100.761C217.203 101.758 216.723 106.014 216.723 106.073C216.707 106.139 216.669 106.198 216.613 106.241C216.558 106.284 216.489 106.308 216.417 106.309ZM154.763 105.719H216.124C216.202 104.704 215.886 103.697 215.235 102.887C214.584 102.077 213.642 101.52 212.587 101.322C210.13 100.773 208.19 101.54 206.631 102.16C205.546 102.591 204.616 102.956 203.806 102.75C203.765 102.741 203.728 102.723 203.695 102.699C203.663 102.674 203.637 102.643 203.618 102.608C203.575 102.532 199.327 95.1305 191.063 93.7554C184.657 92.693 181.296 97.6034 179.069 100.838C178.559 101.652 177.973 102.42 177.316 103.133C175.944 104.432 174.965 103.724 173.923 102.945C172.975 102.248 171.896 101.451 170.1 101.558C166.645 101.764 165.547 103.612 164.817 104.827C164.736 104.963 164.661 105.093 164.586 105.211C164.532 105.303 164.457 105.383 164.367 105.444C164.276 105.505 164.172 105.547 164.062 105.565C163.47 105.665 162.765 105.122 161.873 104.438C160.981 103.753 159.915 102.933 159.272 103.145C158.307 103.546 157.538 104.278 157.12 105.193C157.1 105.239 157.067 105.279 157.026 105.31C156.984 105.341 156.935 105.362 156.883 105.37L154.763 105.719Z" fill="#263238"/>
<path d="M80.0729 15.8383C80.0729 15.8383 77.3161 10.922 71.7962 10.0013C66.2763 9.08056 64.1682 14.7641 62.7087 16.1452C61.2492 17.5262 60.7564 14.9176 58.1618 15.071C55.5671 15.2245 54.9185 16.759 54.4195 17.5262C53.9205 18.2935 52.1242 15.7556 51.0826 16.1097C50.4055 16.3894 49.8659 16.902 49.5732 17.5439L45.8309 18.1341H88.1937C88.2826 17.4072 88.083 16.6749 87.6335 16.0795C87.184 15.484 86.5167 15.0678 85.7612 14.9117C82.9919 14.3038 81.2081 16.1452 80.0729 15.8383Z" fill="white"/>
<path d="M88.1874 18.4351H45.8246C45.7467 18.4353 45.6717 18.4072 45.6149 18.3568C45.5581 18.3063 45.5238 18.2372 45.519 18.1636C45.5117 18.0905 45.534 18.0175 45.5815 17.9594C45.629 17.9013 45.6981 17.8625 45.7747 17.8508L49.3611 17.2607C49.6965 16.6051 50.2764 16.09 50.989 15.8147C51.6751 15.5845 52.4672 16.1924 53.1658 16.7295C53.4838 16.9715 54.0078 17.3728 54.1762 17.361C54.2137 17.2794 54.2575 17.2005 54.3071 17.1249C54.6423 16.4264 55.1815 15.8331 55.861 15.4149C56.5406 14.9966 57.3323 14.7709 58.143 14.7641C58.6611 14.7474 59.1775 14.828 59.6625 15.0012C60.1474 15.1744 60.5913 15.4369 60.9684 15.7734C61.6919 16.3045 61.9414 16.4521 62.4841 15.9386C62.8852 15.4995 63.2442 15.0274 63.5568 14.5281C65.0725 12.3148 67.3677 8.96256 71.8523 9.7121C77.0229 10.5738 79.7922 14.7759 80.2724 15.5727C80.7528 15.5395 81.2204 15.4108 81.6446 15.195C82.9289 14.5625 84.3999 14.3547 85.8235 14.6048C88.8173 15.2717 88.4992 18.1459 88.4992 18.1459C88.496 18.2227 88.462 18.2954 88.404 18.3492C88.346 18.4029 88.2685 18.4337 88.1874 18.4351ZM54.5442 17.8449H87.888C87.9195 17.2242 87.7137 16.6135 87.3082 16.1247C86.9027 15.6359 86.3247 15.3016 85.68 15.1832C84.3881 14.9521 83.0516 15.1414 81.8878 15.7203C81.3141 16.0387 80.6462 16.1713 79.9855 16.098C79.9454 16.0865 79.9082 16.0676 79.8761 16.0422C79.8439 16.0169 79.8175 15.9856 79.7984 15.9504C79.7984 15.9032 77.0416 11.1522 71.74 10.2669C67.6671 9.58816 65.5028 12.7398 64.0808 14.8232C63.7487 15.3701 63.3623 15.8859 62.9269 16.3636C61.9726 17.2725 61.2366 16.7295 60.588 16.2514C60.2688 15.9609 59.8912 15.7339 59.4777 15.5839C59.0642 15.4338 58.6231 15.3638 58.1804 15.3779C57.474 15.3821 56.7839 15.5793 56.193 15.9458C55.6021 16.3122 55.1357 16.8323 54.8498 17.4436L54.6939 17.6915C54.654 17.7507 54.6033 17.8026 54.5442 17.8449ZM49.5544 17.8449H53.7209C53.3866 17.6607 53.0713 17.4473 52.779 17.2075C52.2676 16.8121 51.5316 16.2691 51.201 16.3872C50.607 16.6353 50.136 17.0894 49.885 17.6561C49.8641 17.7019 49.8315 17.742 49.7901 17.7729C49.7488 17.8038 49.6999 17.8245 49.648 17.8331L49.5544 17.8449Z" fill="#263238"/>
<path d="M112.3 186.079C112.3 201.766 102.489 214.485 90.3891 214.485C78.2891 214.485 68.4843 201.766 68.4843 186.079C68.4843 170.392 78.2953 116.466 90.3891 116.466C102.483 116.466 112.3 170.404 112.3 186.079Z" fill="#92E3A9"/>
<path d="M102.676 194.283L96.04 196.608L97.3747 192.831L94.2 197.251L91.0315 198.361L90.807 185.949L102.333 171.466L96.1585 177.309L97.2001 173.242L94.2499 179.115L90.7446 182.432L90.3891 163.044L89.1354 191.314L78.2142 180.366L84.2143 188.08L78.5572 187.49L85.5428 189.791L89.0044 194.247L88.3994 207.875L84.3702 205.29L88.2747 210.696L86.4285 252.358H92.017L91.0689 200.338L102.676 194.283Z" fill="#263238"/>
<path d="M102.446 163.109C102.614 164.278 102.291 165.463 101.545 166.409C100.8 167.355 99.6921 167.986 98.46 168.167C98.2916 166.998 98.6149 165.813 99.3602 164.867C100.106 163.921 101.213 163.29 102.446 163.109Z" fill="white"/>
<path d="M109.044 171.885C109.213 173.055 108.89 174.24 108.145 175.187C107.399 176.134 106.291 176.766 105.059 176.949C104.889 175.779 105.211 174.592 105.957 173.645C106.702 172.698 107.811 172.066 109.044 171.885Z" fill="white"/>
<path d="M109.044 188.977C108.787 190.133 108.061 191.146 107.021 191.8C105.982 192.453 104.713 192.694 103.487 192.471C103.744 191.315 104.471 190.302 105.51 189.648C106.55 188.994 107.819 188.753 109.044 188.977Z" fill="white"/>
<path d="M72.7816 188.977C73.0388 190.131 73.7644 191.144 74.8025 191.797C75.8406 192.451 77.1082 192.693 78.3327 192.471C78.0755 191.317 77.3498 190.304 76.3118 189.65C75.2737 188.997 74.0061 188.755 72.7816 188.977Z" fill="white"/>
<path d="M101.416 181.883C101.585 183.052 101.262 184.237 100.516 185.183C99.7709 186.129 98.663 186.76 97.4309 186.941C97.2625 185.772 97.5857 184.587 98.3311 183.641C99.0764 182.695 100.184 182.064 101.416 181.883Z" fill="white"/>
<path d="M99.7074 153.559C99.8758 154.729 99.5525 155.913 98.8072 156.859C98.0619 157.805 96.954 158.436 95.7219 158.617C95.5535 157.448 95.8768 156.263 96.6221 155.318C97.3674 154.372 98.4753 153.74 99.7074 153.559Z" fill="white"/>
<path d="M95.7718 160.842C95.9402 162.012 95.6169 163.196 94.8716 164.142C94.1263 165.088 93.0184 165.719 91.7863 165.9C91.6179 164.731 91.9412 163.546 92.6865 162.601C93.4318 161.655 94.5397 161.023 95.7718 160.842Z" fill="white"/>
<path d="M105.109 155.537C105.279 156.706 104.957 157.891 104.213 158.838C103.469 159.785 102.362 160.418 101.129 160.601C100.959 159.431 101.281 158.246 102.025 157.299C102.769 156.352 103.877 155.719 105.109 155.537Z" fill="white"/>
<path d="M74.7651 155.537C74.5948 156.706 74.9164 157.891 75.6606 158.838C76.4048 159.785 77.5122 160.418 78.7444 160.601C78.918 159.431 78.5977 158.244 77.8529 157.296C77.1081 156.348 75.9988 155.716 74.7651 155.537Z" fill="white"/>
<path d="M100.562 144.654C100.732 145.823 100.41 147.01 99.6641 147.957C98.9186 148.904 97.8097 149.536 96.5764 149.717C96.4079 148.548 96.731 147.362 97.4762 146.415C98.2214 145.468 99.3293 144.836 100.562 144.654Z" fill="white"/>
<path d="M98.6284 135.199C99.1031 136.289 99.1079 137.511 98.6415 138.604C98.1752 139.698 97.2749 140.575 96.1335 141.047C95.6588 139.957 95.6541 138.735 96.1204 137.642C96.5868 136.548 97.487 135.671 98.6284 135.199Z" fill="white"/>
<path d="M84.7757 132.726C85.9002 133.237 86.7682 134.145 87.1938 135.255C87.6193 136.365 87.5685 137.588 87.0523 138.663C85.9266 138.153 85.0576 137.245 84.6319 136.135C84.2062 135.024 84.2578 133.8 84.7757 132.726Z" fill="white"/>
<path d="M91.2374 144.034C92.0578 144.923 92.4768 146.082 92.4045 147.26C92.3322 148.439 91.7743 149.543 90.8507 150.337C90.0303 149.448 89.6112 148.289 89.6836 147.111C89.7559 145.932 90.3137 144.827 91.2374 144.034Z" fill="white"/>
<path d="M90.8944 127.202C91.6477 128.127 92.0577 129.262 92.0607 130.43C91.919 131.59 91.3725 132.672 90.5077 133.505C89.6873 132.615 89.2682 131.457 89.3405 130.278C89.4128 129.1 89.9707 127.995 90.8944 127.202Z" fill="white"/>
<path d="M76.393 163.109C76.2246 164.278 76.5478 165.463 77.2932 166.409C78.0385 167.355 79.1464 167.986 80.3785 168.167C80.5469 166.998 80.2236 165.813 79.4783 164.867C78.733 163.921 77.6251 163.29 76.393 163.109Z" fill="white"/>
<path d="M72.6319 173.467C72.4636 174.636 72.7868 175.821 73.5321 176.766C74.2775 177.712 75.3853 178.344 76.6175 178.525C76.7858 177.356 76.4626 176.171 75.7173 175.225C74.9719 174.279 73.8641 173.648 72.6319 173.467Z" fill="white"/>
<path d="M82.6176 177.226C82.4491 178.396 82.7722 179.582 83.5174 180.528C84.2626 181.475 85.3705 182.108 86.6031 182.29C86.7732 181.12 86.4508 179.934 85.7053 178.986C84.9598 178.039 83.8509 177.407 82.6176 177.226Z" fill="white"/>
<path d="M85.3495 162.873C84.8344 163.948 84.7856 165.172 85.2136 166.281C85.6416 167.39 86.5123 168.296 87.6385 168.804C88.1553 167.729 88.205 166.505 87.7768 165.395C87.3486 164.286 86.4769 163.38 85.3495 162.873Z" fill="white"/>
<path d="M78.2766 201.094C79.5197 201.154 80.7384 200.751 81.6711 199.971C82.6039 199.191 83.1765 198.096 83.2663 196.921C82.0231 196.861 80.8045 197.264 79.8717 198.044C78.9389 198.824 78.3663 199.919 78.2766 201.094Z" fill="white"/>
<path d="M97.6866 198.969C97.9803 200.116 98.7386 201.108 99.7981 201.73C100.858 202.353 102.133 202.557 103.35 202.298C103.056 201.15 102.298 200.159 101.239 199.536C100.179 198.913 98.9034 198.71 97.6866 198.969Z" fill="white"/>
<path d="M80.5344 153.559C80.3661 154.729 80.6893 155.913 81.4347 156.859C82.18 157.805 83.2879 158.436 84.52 158.617C84.6883 157.448 84.3651 156.263 83.6198 155.318C82.8745 154.372 81.7666 153.74 80.5344 153.559Z" fill="white"/>
<path d="M80.497 145.143C80.3286 146.312 80.6518 147.497 81.3972 148.443C82.1425 149.389 83.2504 150.02 84.4825 150.201C84.6509 149.032 84.3276 147.847 83.5823 146.901C82.837 145.956 81.7291 145.324 80.497 145.143Z" fill="white"/>
<path d="M221.588 186.079C221.588 201.766 211.777 214.485 199.677 214.485C187.576 214.485 177.747 201.766 177.747 186.079C177.747 170.392 187.558 116.466 199.652 116.466C211.745 116.466 221.588 170.404 221.588 186.079Z" fill="#92E3A9"/>
<path d="M211.964 194.283L205.327 196.608L206.662 192.831L203.487 197.251L200.319 198.361L200.094 185.949L211.621 171.466L205.446 177.309L206.487 173.242L203.531 179.115L200.032 182.432L199.677 163.044L198.423 191.314L187.502 180.366L193.502 188.08L187.845 187.49L194.83 189.791L198.292 194.247L197.687 207.875L193.658 205.29L197.562 210.696L195.71 252.358H201.304L200.356 200.338L211.964 194.283Z" fill="#263238"/>
<path d="M211.733 163.109C211.901 164.278 211.578 165.463 210.833 166.409C210.087 167.355 208.979 167.986 207.747 168.167C207.579 166.998 207.902 165.813 208.648 164.867C209.393 163.921 210.501 163.29 211.733 163.109Z" fill="white"/>
<path d="M218.332 171.885C218.5 173.055 218.177 174.24 217.432 175.187C216.687 176.134 215.579 176.766 214.346 176.949C214.176 175.779 214.499 174.592 215.244 173.645C215.99 172.698 217.098 172.066 218.332 171.885Z" fill="white"/>
<path d="M218.332 188.977C218.075 190.133 217.348 191.146 216.309 191.8C215.269 192.453 214 192.694 212.775 192.471C213.032 191.315 213.758 190.302 214.798 189.648C215.837 188.994 217.106 188.753 218.332 188.977Z" fill="white"/>
<path d="M182.069 188.977C182.326 190.131 183.052 191.144 184.09 191.797C185.128 192.451 186.396 192.693 187.62 192.471C187.363 191.317 186.637 190.304 185.599 189.65C184.561 188.997 183.293 188.755 182.069 188.977Z" fill="white"/>
<path d="M210.704 181.883C210.872 183.052 210.549 184.237 209.804 185.183C209.058 186.129 207.95 186.76 206.718 186.941C206.55 185.772 206.873 184.587 207.618 183.641C208.364 182.695 209.472 182.064 210.704 181.883Z" fill="white"/>
<path d="M208.995 153.559C209.163 154.729 208.84 155.913 208.095 156.859C207.349 157.805 206.241 158.436 205.009 158.617C204.841 157.448 205.164 156.263 205.91 155.318C206.655 154.372 207.763 153.74 208.995 153.559Z" fill="white"/>
<path d="M205.059 160.842C205.228 162.012 204.904 163.196 204.159 164.142C203.414 165.088 202.306 165.719 201.074 165.9C200.905 164.731 201.229 163.546 201.974 162.601C202.719 161.655 203.827 161.023 205.059 160.842Z" fill="white"/>
<path d="M214.396 155.537C214.566 156.706 214.245 157.891 213.501 158.838C212.756 159.785 211.649 160.418 210.417 160.601C210.247 159.431 210.568 158.246 211.312 157.299C212.057 156.352 213.164 155.719 214.396 155.537Z" fill="white"/>
<path d="M184.052 155.537C183.882 156.706 184.204 157.891 184.948 158.838C185.692 159.785 186.799 160.418 188.032 160.601C188.202 159.431 187.88 158.246 187.136 157.299C186.392 156.352 185.285 155.719 184.052 155.537Z" fill="white"/>
<path d="M209.849 144.654C210.019 145.823 209.697 147.01 208.951 147.957C208.206 148.904 207.097 149.536 205.864 149.717C205.695 148.548 206.018 147.362 206.764 146.415C207.509 145.468 208.617 144.836 209.849 144.654Z" fill="white"/>
<path d="M207.916 135.199C208.391 136.289 208.395 137.511 207.929 138.604C207.463 139.698 206.562 140.575 205.421 141.047C204.946 139.957 204.941 138.735 205.408 137.642C205.874 136.548 206.774 135.671 207.916 135.199Z" fill="white"/>
<path d="M194.063 132.726C195.188 133.237 196.056 134.145 196.481 135.255C196.907 136.365 196.856 137.588 196.34 138.663C195.214 138.153 194.345 137.245 193.919 136.135C193.494 135.024 193.545 133.8 194.063 132.726Z" fill="white"/>
<path d="M200.525 144.034C201.345 144.923 201.764 146.082 201.692 147.26C201.62 148.439 201.062 149.543 200.138 150.337C199.315 149.449 198.894 148.29 198.966 147.11C199.038 145.931 199.598 144.826 200.525 144.034Z" fill="white"/>
<path d="M200.2 127.202C201.021 128.091 201.44 129.249 201.368 130.428C201.295 131.606 200.737 132.711 199.814 133.505C198.993 132.615 198.574 131.457 198.647 130.278C198.719 129.1 199.277 127.995 200.2 127.202Z" fill="white"/>
<path d="M185.68 163.109C185.512 164.278 185.835 165.463 186.581 166.409C187.326 167.355 188.434 167.986 189.666 168.167C189.834 166.998 189.511 165.813 188.766 164.867C188.02 163.921 186.912 163.29 185.68 163.109Z" fill="white"/>
<path d="M181.919 173.467C181.751 174.636 182.074 175.821 182.82 176.766C183.565 177.712 184.673 178.344 185.905 178.525C186.073 177.356 185.75 176.171 185.005 175.225C184.259 174.279 183.151 173.648 181.919 173.467Z" fill="white"/>
<path d="M191.905 177.226C191.737 178.396 192.06 179.582 192.805 180.528C193.55 181.475 194.658 182.108 195.891 182.29C196.061 181.12 195.738 179.934 194.993 178.986C194.247 178.039 193.138 177.407 191.905 177.226Z" fill="white"/>
<path d="M194.637 162.873C194.122 163.948 194.073 165.172 194.501 166.281C194.929 167.39 195.8 168.296 196.926 168.804C197.443 167.729 197.492 166.505 197.064 165.395C196.636 164.286 195.764 163.38 194.637 162.873Z" fill="white"/>
<path d="M187.564 201.094C188.807 201.154 190.026 200.751 190.959 199.971C191.891 199.191 192.464 198.096 192.554 196.921C191.31 196.861 190.092 197.264 189.159 198.044C188.226 198.824 187.654 199.919 187.564 201.094Z" fill="white"/>
<path d="M206.974 198.969C207.268 200.116 208.026 201.108 209.085 201.73C210.145 202.353 211.421 202.557 212.637 202.298C212.344 201.15 211.585 200.159 210.526 199.536C209.466 198.913 208.191 198.71 206.974 198.969Z" fill="white"/>
<path d="M189.822 153.559C189.653 154.729 189.977 155.913 190.722 156.859C191.467 157.805 192.575 158.436 193.807 158.617C193.976 157.448 193.652 156.263 192.907 155.318C192.162 154.372 191.054 153.74 189.822 153.559Z" fill="white"/>
<path d="M189.784 145.143C189.616 146.312 189.939 147.497 190.685 148.443C191.43 149.389 192.538 150.02 193.77 150.201C193.938 149.032 193.615 147.847 192.87 146.901C192.124 145.956 191.016 145.324 189.784 145.143Z" fill="white"/>
<path d="M141.247 209.356C141.247 219.537 134.885 227.794 127.032 227.794C119.18 227.794 112.812 219.531 112.812 209.356C112.812 199.181 119.18 164.177 127.032 164.177C134.885 164.177 141.247 199.158 141.247 209.356Z" fill="#92E3A9"/>
<path d="M135.003 214.668L130.7 216.173L131.561 213.718L129.502 216.592L127.45 217.312L127.301 209.256L134.779 199.854L130.775 203.649L131.448 201.011L129.533 204.818L127.263 206.972L127.032 194.389L126.215 212.738L119.13 205.632L123.022 210.643L119.348 210.253L123.883 211.752L126.134 214.638L125.741 223.485L123.128 221.809L125.66 225.321L124.456 252.358H128.086L127.475 218.593L135.003 214.668Z" fill="#263238"/>
<path d="M134.854 194.43C134.957 195.189 134.744 195.955 134.261 196.569C133.778 197.182 133.063 197.594 132.265 197.718C132.163 196.959 132.375 196.192 132.858 195.579C133.341 194.966 134.056 194.554 134.854 194.43Z" fill="white"/>
<path d="M139.139 200.126C139.25 200.885 139.041 201.656 138.556 202.271C138.072 202.886 137.351 203.296 136.55 203.413C136.448 202.654 136.66 201.888 137.143 201.275C137.626 200.661 138.341 200.249 139.139 200.126Z" fill="white"/>
<path d="M139.139 211.221C138.926 211.952 138.463 212.595 137.823 213.051C137.133 213.434 136.327 213.588 135.534 213.488C135.743 212.757 136.204 212.113 136.843 211.658C137.537 211.277 138.344 211.124 139.139 211.221Z" fill="white"/>
<path d="M115.6 211.221C115.812 211.951 116.272 212.594 116.909 213.051C117.602 213.434 118.41 213.588 119.205 213.488C119.038 212.738 118.566 212.08 117.892 211.657C117.218 211.233 116.395 211.076 115.6 211.221Z" fill="white"/>
<path d="M134.186 206.618C134.297 207.376 134.089 208.145 133.606 208.759C133.123 209.373 132.404 209.782 131.604 209.899C131.493 209.141 131.702 208.372 132.185 207.758C132.668 207.144 133.387 206.734 134.186 206.618Z" fill="white"/>
<path d="M133.076 188.233C133.179 188.991 132.968 189.757 132.486 190.37C132.004 190.983 131.29 191.395 130.494 191.521C130.381 190.761 130.589 189.991 131.072 189.376C131.556 188.76 132.275 188.35 133.076 188.233Z" fill="white"/>
<path d="M130.525 192.961C130.626 193.718 130.413 194.483 129.93 195.095C129.448 195.707 128.733 196.118 127.937 196.242C127.836 195.485 128.049 194.719 128.532 194.107C129.014 193.496 129.729 193.084 130.525 192.961Z" fill="white"/>
<path d="M136.581 189.52C136.683 190.277 136.469 191.043 135.987 191.655C135.504 192.267 134.789 192.678 133.993 192.801C133.881 192.042 134.089 191.271 134.574 190.657C135.059 190.042 135.78 189.634 136.581 189.52Z" fill="white"/>
<path d="M116.891 189.52C116.826 190.275 117.031 191.029 117.471 191.662C117.988 192.24 118.691 192.64 119.473 192.801C119.584 192.043 119.375 191.274 118.892 190.66C118.409 190.046 117.69 189.637 116.891 189.52Z" fill="white"/>
<path d="M133.631 182.455C133.734 183.213 133.523 183.979 133.041 184.592C132.56 185.205 131.845 185.617 131.049 185.743C130.936 184.983 131.144 184.213 131.627 183.598C132.111 182.982 132.831 182.572 133.631 182.455Z" fill="white"/>
<path d="M132.378 176.305C132.678 177.014 132.676 177.806 132.373 178.514C132.069 179.221 131.487 179.79 130.75 180.1C130.449 179.391 130.451 178.6 130.755 177.892C131.058 177.184 131.64 176.616 132.378 176.305Z" fill="white"/>
<path d="M123.384 174.712C124.11 175.048 124.67 175.637 124.946 176.356C125.221 177.075 125.191 177.868 124.862 178.566C124.136 178.23 123.576 177.64 123.3 176.922C123.024 176.203 123.054 175.41 123.384 174.712Z" fill="white"/>
<path d="M127.581 182.054C128.107 182.634 128.375 183.384 128.329 184.147C128.282 184.909 127.925 185.625 127.332 186.144C126.798 185.568 126.525 184.816 126.572 184.051C126.619 183.286 126.981 182.568 127.581 182.054Z" fill="white"/>
<path d="M127.357 171.129C127.89 171.706 128.163 172.458 128.117 173.223C128.07 173.988 127.707 174.705 127.107 175.22C126.574 174.643 126.301 173.891 126.347 173.126C126.394 172.361 126.757 171.644 127.357 171.129Z" fill="white"/>
<path d="M117.945 194.43C117.842 195.189 118.055 195.955 118.537 196.569C119.02 197.182 119.736 197.594 120.533 197.718C120.636 196.959 120.424 196.192 119.941 195.579C119.458 194.966 118.742 194.554 117.945 194.43Z" fill="white"/>
<path d="M115.506 201.153C115.403 201.91 115.615 202.676 116.096 203.289C116.578 203.902 117.292 204.315 118.088 204.44C118.191 203.682 117.98 202.916 117.498 202.303C117.017 201.69 116.303 201.278 115.506 201.153Z" fill="white"/>
<path d="M121.987 203.596C121.874 204.355 122.083 205.126 122.568 205.74C123.052 206.355 123.774 206.763 124.575 206.877C124.676 206.12 124.463 205.355 123.98 204.743C123.497 204.131 122.783 203.72 121.987 203.596Z" fill="white"/>
<path d="M123.758 194.277C123.431 194.975 123.403 195.767 123.68 196.484C123.956 197.202 124.517 197.79 125.242 198.125C125.579 197.428 125.612 196.633 125.335 195.913C125.057 195.192 124.49 194.605 123.758 194.277Z" fill="white"/>
<path d="M119.167 219.065C119.977 219.109 120.772 218.849 121.38 218.342C121.988 217.835 122.361 217.121 122.417 216.356C121.61 216.321 120.82 216.584 120.214 217.09C119.608 217.595 119.233 218.303 119.167 219.065Z" fill="white"/>
<path d="M131.766 217.707C131.956 218.453 132.449 219.098 133.138 219.502C133.826 219.907 134.656 220.038 135.446 219.868C135.256 219.122 134.764 218.477 134.075 218.073C133.386 217.668 132.557 217.537 131.766 217.707Z" fill="white"/>
<path d="M120.633 188.233C120.522 188.993 120.731 189.764 121.216 190.379C121.7 190.994 122.42 191.404 123.222 191.521C123.324 190.762 123.112 189.995 122.629 189.382C122.146 188.769 121.431 188.357 120.633 188.233Z" fill="white"/>
<path d="M120.608 182.798C120.505 183.556 120.718 184.323 121.201 184.936C121.683 185.549 122.399 185.961 123.197 186.085C123.308 185.325 123.098 184.555 122.614 183.94C122.13 183.325 121.409 182.914 120.608 182.798Z" fill="white"/>
<path d="M260.389 209.356C260.389 219.537 254.021 227.794 246.168 227.794C238.316 227.794 231.954 219.531 231.954 209.356C231.954 199.181 238.316 164.177 246.168 164.177C254.021 164.177 260.389 199.158 260.389 209.356Z" fill="#92E3A9"/>
<path d="M254.139 214.668L249.836 216.173L250.703 213.718L248.644 216.592L246.586 217.312L246.443 209.256L253.921 199.854L249.911 203.649L250.59 201.011L248.669 204.818L246.399 206.972L246.168 194.389L245.351 212.738L238.266 205.632L242.158 210.643L238.49 210.253L243.025 211.752L245.27 214.638L244.877 223.485L242.264 221.809L244.796 225.321L243.592 252.358H247.222L246.611 218.593L254.139 214.668Z" fill="#263238"/>
<path d="M253.99 194.43C254.093 195.188 253.881 195.954 253.399 196.567C252.918 197.18 252.204 197.592 251.407 197.718C251.295 196.958 251.502 196.188 251.986 195.573C252.469 194.957 253.189 194.547 253.99 194.43Z" fill="white"/>
<path d="M258.275 200.126C258.377 200.883 258.166 201.649 257.684 202.262C257.203 202.875 256.489 203.288 255.692 203.413C255.589 202.655 255.801 201.889 256.283 201.276C256.764 200.663 257.478 200.251 258.275 200.126Z" fill="white"/>
<path d="M258.275 211.221C258.062 211.951 257.602 212.594 256.965 213.051C256.272 213.434 255.465 213.588 254.669 213.488C254.836 212.738 255.308 212.08 255.982 211.657C256.656 211.233 257.48 211.076 258.275 211.221Z" fill="white"/>
<path d="M234.742 211.221C234.909 211.97 235.379 212.626 236.052 213.05C236.725 213.474 237.547 213.631 238.341 213.488C238.174 212.739 237.703 212.083 237.03 211.659C236.357 211.235 235.536 211.078 234.742 211.221Z" fill="white"/>
<path d="M253.322 206.618C253.387 207.373 253.183 208.127 252.742 208.76C252.225 209.338 251.522 209.738 250.74 209.899C250.629 209.141 250.838 208.372 251.321 207.758C251.804 207.144 252.523 206.734 253.322 206.618Z" fill="white"/>
<path d="M252.212 188.233C252.315 188.991 252.103 189.757 251.622 190.37C251.14 190.983 250.426 191.395 249.63 191.521C249.517 190.761 249.725 189.991 250.208 189.376C250.691 188.76 251.411 188.35 252.212 188.233Z" fill="white"/>
<path d="M249.661 192.961C249.772 193.719 249.563 194.488 249.08 195.102C248.597 195.716 247.878 196.125 247.079 196.242C247.014 195.487 247.219 194.733 247.659 194.1C248.176 193.522 248.879 193.122 249.661 192.961Z" fill="white"/>
<path d="M255.711 189.52C255.824 190.279 255.615 191.05 255.13 191.664C254.645 192.279 253.924 192.687 253.123 192.801C253.022 192.044 253.235 191.279 253.718 190.667C254.2 190.055 254.915 189.644 255.711 189.52Z" fill="white"/>
<path d="M236.027 189.52C235.916 190.278 236.124 191.047 236.607 191.661C237.091 192.275 237.809 192.685 238.609 192.801C238.72 192.043 238.511 191.274 238.028 190.66C237.545 190.046 236.826 189.637 236.027 189.52Z" fill="white"/>
<path d="M252.767 182.455C252.87 183.213 252.659 183.979 252.177 184.592C251.695 185.205 250.981 185.617 250.185 185.743C250.072 184.983 250.28 184.213 250.763 183.598C251.247 182.982 251.966 182.572 252.767 182.455Z" fill="white"/>
<path d="M251.513 176.305C251.814 177.014 251.812 177.806 251.509 178.514C251.205 179.221 250.623 179.79 249.886 180.1C249.585 179.391 249.587 178.6 249.89 177.892C250.194 177.184 250.776 176.616 251.513 176.305Z" fill="white"/>
<path d="M242.526 174.712C243.258 175.042 243.822 175.632 244.098 176.353C244.373 177.074 244.337 177.869 243.998 178.566C243.273 178.229 242.714 177.639 242.439 176.92C242.165 176.201 242.196 175.41 242.526 174.712Z" fill="white"/>
<path d="M246.717 182.054C247.251 182.63 247.524 183.382 247.477 184.147C247.43 184.912 247.068 185.629 246.468 186.144C245.934 185.568 245.661 184.816 245.708 184.051C245.754 183.286 246.117 182.568 246.717 182.054Z" fill="white"/>
<path d="M246.492 171.129C247.026 171.706 247.299 172.458 247.252 173.223C247.206 173.988 246.843 174.705 246.243 175.22C245.717 174.64 245.449 173.89 245.495 173.127C245.542 172.364 245.899 171.648 246.492 171.129Z" fill="white"/>
<path d="M237.087 194.43C236.984 195.188 237.196 195.954 237.677 196.567C238.159 197.18 238.873 197.592 239.669 197.718C239.782 196.958 239.574 196.188 239.091 195.573C238.608 194.957 237.888 194.547 237.087 194.43Z" fill="white"/>
<path d="M234.642 201.153C234.531 201.912 234.74 202.683 235.225 203.298C235.709 203.913 236.429 204.323 237.23 204.44C237.333 203.681 237.121 202.915 236.638 202.301C236.155 201.688 235.44 201.276 234.642 201.153Z" fill="white"/>
<path d="M241.122 203.596C241.021 204.354 241.235 205.119 241.717 205.731C242.2 206.343 242.914 206.754 243.711 206.877C243.823 206.118 243.615 205.347 243.13 204.733C242.645 204.118 241.924 203.71 241.122 203.596Z" fill="white"/>
<path d="M242.9 194.277C242.563 194.973 242.529 195.768 242.805 196.488C243.082 197.208 243.647 197.796 244.378 198.125C244.669 197.42 244.702 196.643 244.472 195.918C244.152 195.223 243.599 194.646 242.9 194.277Z" fill="white"/>
<path d="M238.309 219.065C239.116 219.1 239.906 218.836 240.512 218.331C241.118 217.826 241.493 217.118 241.559 216.356C240.757 216.363 239.979 216.618 239.345 217.082C238.777 217.616 238.413 218.314 238.309 219.065Z" fill="white"/>
<path d="M250.902 217.707C251.092 218.453 251.585 219.098 252.274 219.502C252.962 219.907 253.792 220.038 254.582 219.868C254.392 219.122 253.9 218.477 253.211 218.073C252.522 217.668 251.693 217.537 250.902 217.707Z" fill="white"/>
<path d="M239.769 188.233C239.666 188.992 239.878 189.758 240.361 190.372C240.844 190.985 241.56 191.397 242.357 191.521C242.472 190.76 242.264 189.988 241.779 189.372C241.294 188.757 240.571 188.347 239.769 188.233Z" fill="white"/>
<path d="M239.75 182.798C239.647 183.555 239.859 184.321 240.34 184.934C240.822 185.547 241.536 185.96 242.332 186.085C242.435 185.327 242.224 184.561 241.742 183.948C241.261 183.335 240.547 182.923 239.75 182.798Z" fill="white"/>
<path d="M61.667 209.356C61.667 219.537 55.2989 227.794 47.4463 227.794C39.5937 227.794 33.2256 219.531 33.2256 209.356C33.2256 199.181 39.5937 164.177 47.4463 164.177C55.2989 164.177 61.667 199.158 61.667 209.356Z" fill="#92E3A9"/>
<path d="M55.4174 214.668L51.1138 216.173L51.9745 213.718L49.9163 216.592L47.8642 217.312L47.7146 209.256L55.1991 199.854L51.1886 203.649L51.8623 201.011L49.9475 204.818L47.6771 206.972L47.4464 194.389L46.6293 212.738L39.5439 205.632L43.4359 210.643L39.7684 210.253L44.3028 211.752L46.5482 214.638L46.1553 223.485L43.5419 221.809L46.0742 225.321L44.8704 252.358H48.5004L47.8892 218.593L55.4174 214.668Z" fill="#263238"/>
<path d="M55.2677 194.43C55.3787 195.19 55.1694 195.961 54.6851 196.576C54.2009 197.191 53.4804 197.601 52.6793 197.718C52.5765 196.959 52.7889 196.192 53.2717 195.579C53.7546 194.966 54.4702 194.554 55.2677 194.43Z" fill="white"/>
<path d="M59.5527 200.126C59.6556 200.883 59.444 201.649 58.9625 202.262C58.4809 202.875 57.7668 203.288 56.9705 203.413C56.8675 202.655 57.0791 201.889 57.5607 201.276C58.0422 200.663 58.7563 200.251 59.5527 200.126Z" fill="white"/>
<path d="M59.5526 211.221C59.3405 211.951 58.8801 212.594 58.2428 213.051C57.5505 213.434 56.7427 213.588 55.9475 213.488C56.1144 212.738 56.5858 212.08 57.2601 211.657C57.9344 211.233 58.7577 211.076 59.5526 211.221Z" fill="white"/>
<path d="M36.0136 211.221C36.2265 211.952 36.6893 212.595 37.3297 213.051C38.0196 213.434 38.8255 213.588 39.6187 213.488C39.4092 212.757 38.9483 212.113 38.3089 211.658C37.6154 211.277 36.8086 211.124 36.0136 211.221Z" fill="white"/>
<path d="M54.6003 206.618C54.7113 207.376 54.5027 208.145 54.0196 208.759C53.5365 209.373 52.8176 209.782 52.0182 209.899C51.9072 209.141 52.1158 208.372 52.5989 207.758C53.082 207.144 53.8009 206.734 54.6003 206.618Z" fill="white"/>
<path d="M53.4901 188.233C53.593 188.991 53.3815 189.757 52.8999 190.37C52.4184 190.983 51.7043 191.395 50.9079 191.521C50.7952 190.761 51.0029 189.991 51.4862 189.376C51.9695 188.76 52.6894 188.35 53.4901 188.233Z" fill="white"/>
<path d="M50.9392 192.961C51.0402 193.718 50.827 194.483 50.3443 195.095C49.8616 195.707 49.147 196.118 48.3507 196.242C48.2497 195.485 48.4629 194.719 48.9456 194.107C49.4283 193.496 50.1429 193.084 50.9392 192.961Z" fill="white"/>
<path d="M57.0017 189.52C57.1027 190.277 56.8895 191.043 56.4068 191.655C55.9241 192.267 55.2095 192.678 54.4132 192.801C54.3122 192.044 54.5254 191.279 55.0081 190.667C55.4908 190.055 56.2054 189.644 57.0017 189.52Z" fill="white"/>
<path d="M37.3047 189.52C37.2455 189.899 37.2658 190.285 37.3645 190.657C37.4632 191.028 37.6384 191.378 37.8799 191.685C38.1215 191.993 38.4247 192.252 38.7723 192.449C39.1199 192.645 39.505 192.775 39.9056 192.831C40.0166 192.073 39.808 191.304 39.3249 190.69C38.8418 190.076 38.1229 189.666 37.3234 189.549L37.3047 189.52Z" fill="white"/>
<path d="M54.0453 182.455C54.15 183.214 53.9392 183.981 53.4575 184.596C52.9758 185.21 52.2607 185.623 51.4631 185.749C51.3503 184.989 51.5581 184.219 52.0414 183.603C52.5247 182.988 53.2446 182.578 54.0453 182.461V182.455Z" fill="white"/>
<path d="M52.7915 176.305C53.092 177.014 53.0902 177.806 52.7866 178.514C52.483 179.221 51.9012 179.79 51.1636 180.1C50.8632 179.391 50.865 178.6 51.1686 177.892C51.4721 177.184 52.0539 176.616 52.7915 176.305Z" fill="white"/>
<path d="M43.7975 174.712C44.5237 175.048 45.0837 175.637 45.3594 176.356C45.6352 177.075 45.6052 177.868 45.2757 178.566C44.5496 178.23 43.9896 177.64 43.7138 176.922C43.4381 176.203 43.4681 175.41 43.7975 174.712Z" fill="white"/>
<path d="M48.0139 182.054C48.5476 182.63 48.8205 183.382 48.7738 184.147C48.7271 184.912 48.3646 185.629 47.7645 186.144C47.2308 185.568 46.9579 184.816 47.0046 184.051C47.0513 183.286 47.4138 182.568 48.0139 182.054Z" fill="white"/>
<path d="M47.7707 171.129C48.3043 171.706 48.5772 172.458 48.5305 173.223C48.4839 173.988 48.1214 174.705 47.5212 175.22C46.9875 174.643 46.7146 173.891 46.7613 173.126C46.808 172.361 47.1705 171.644 47.7707 171.129Z" fill="white"/>
<path d="M38.3588 194.43C38.256 195.189 38.4685 195.955 38.9513 196.569C39.4342 197.182 40.1497 197.594 40.9473 197.718C41.0616 196.957 40.8536 196.185 40.3688 195.569C39.8839 194.954 39.1614 194.544 38.3588 194.43Z" fill="white"/>
<path d="M35.9201 201.153C35.8171 201.91 36.0287 202.676 36.5103 203.289C36.9918 203.902 37.7059 204.315 38.5022 204.44C38.6052 203.682 38.3936 202.916 37.912 202.303C37.4305 201.69 36.7164 201.278 35.9201 201.153Z" fill="white"/>
<path d="M42.4005 203.596C42.2994 204.354 42.5126 205.119 42.9953 205.731C43.478 206.343 44.1926 206.754 44.9889 206.877C45.09 206.12 44.8767 205.355 44.394 204.743C43.9113 204.131 43.1968 203.72 42.4005 203.596Z" fill="white"/>
<path d="M44.1718 194.277C43.839 194.977 43.8078 195.773 44.085 196.495C44.3622 197.217 44.9258 197.808 45.6562 198.143C45.9932 197.445 46.0264 196.651 45.7485 195.93C45.4707 195.21 44.9042 194.622 44.1718 194.295V194.277Z" fill="white"/>
<path d="M39.5813 219.065C40.3906 219.109 41.1856 218.849 41.7939 218.342C42.4022 217.835 42.7747 217.121 42.8309 216.356C42.0239 216.321 41.2342 216.584 40.6281 217.09C40.022 217.595 39.6467 218.303 39.5813 219.065Z" fill="white"/>
<path d="M52.1803 217.707C52.3701 218.453 52.8628 219.098 53.5516 219.502C54.2404 219.907 55.0699 220.038 55.8602 219.868C55.6704 219.122 55.1777 218.477 54.4889 218.073C53.8001 217.668 52.9706 217.537 52.1803 217.707Z" fill="white"/>
<path d="M41.047 188.233C40.9445 188.994 41.1586 189.762 41.644 190.375C42.1294 190.989 42.8481 191.4 43.6479 191.521C43.7507 190.762 43.5383 189.995 43.0554 189.382C42.5726 188.769 41.857 188.357 41.0595 188.233H41.047Z" fill="white"/>
<path d="M41.0283 182.798C40.9253 183.555 41.1369 184.321 41.6185 184.934C42.1 185.547 42.8141 185.96 43.6105 186.085C43.7134 185.327 43.5018 184.561 43.0203 183.948C42.5387 183.335 41.8246 182.923 41.0283 182.798Z" fill="white"/>
<path d="M289.067 252.653H6.92355C6.84084 252.653 6.76152 252.622 6.70304 252.566C6.64455 252.511 6.61169 252.436 6.61169 252.358C6.61169 252.279 6.64455 252.204 6.70304 252.149C6.76152 252.094 6.84084 252.062 6.92355 252.062H289.067C289.15 252.062 289.229 252.094 289.288 252.149C289.346 252.204 289.379 252.279 289.379 252.358C289.379 252.436 289.346 252.511 289.288 252.566C289.229 252.622 289.15 252.653 289.067 252.653Z" fill="#263238"/>
</svg>
