<svg width="103" height="152" viewBox="0 0 103 152" fill="none" xmlns="http://www.w3.org/2000/svg">
<path d="M43.8174 69.6157C46.4834 69.6157 48.0386 68.1875 49.9111 65.2993L55.3384 56.7935H63.3364C73.0483 56.7935 78.9834 50.7949 78.9834 41.1782V15.8511C78.9834 6.23438 73.0483 0.23584 63.3364 0.23584H23.6318C13.9517 0.23584 8.0166 6.20264 8.0166 15.8511V41.1782C8.0166 50.8267 13.9517 56.7935 23.6318 56.7935H32.2329L37.7236 65.3311C39.5327 68.1558 41.1514 69.6157 43.8174 69.6157Z" fill="white"/>
<path d="M33.9847 39V21.72H36.4927V29.172H45.1327V21.72H47.6527V39H45.1327V31.536H36.4927V39H33.9847ZM51.2638 23.916V21.48H53.7718V23.916H51.2638ZM51.2638 39V26.04H53.7718V39H51.2638Z" fill="#3AB091"/>
<path d="M5.388 112L0.396 94.72H2.232L6.276 108.988L10.296 94.732L12.144 94.72L16.188 108.988L20.208 94.72H22.056L17.076 112H15.3L11.22 97.828L7.164 112H5.388ZM28.1874 112.36C26.9234 112.36 25.8274 112.08 24.8994 111.52C23.9794 110.96 23.2634 110.172 22.7514 109.156C22.2394 108.14 21.9834 106.948 21.9834 105.58C21.9834 104.164 22.2354 102.94 22.7394 101.908C23.2434 100.876 23.9514 100.08 24.8634 99.52C25.7834 98.96 26.8674 98.68 28.1154 98.68C29.3954 98.68 30.4874 98.976 31.3914 99.568C32.2954 100.152 32.9794 100.992 33.4434 102.088C33.9074 103.184 34.1194 104.492 34.0794 106.012H32.2794V105.388C32.2474 103.708 31.8834 102.44 31.1874 101.584C30.4994 100.728 29.4914 100.3 28.1634 100.3C26.7714 100.3 25.7034 100.752 24.9594 101.656C24.2234 102.56 23.8554 103.848 23.8554 105.52C23.8554 107.152 24.2234 108.42 24.9594 109.324C25.7034 110.22 26.7554 110.668 28.1154 110.668C29.0434 110.668 29.8514 110.456 30.5394 110.032C31.2354 109.6 31.7834 108.98 32.1834 108.172L33.8274 108.808C33.3154 109.936 32.5594 110.812 31.5594 111.436C30.5674 112.052 29.4434 112.36 28.1874 112.36ZM23.2314 106.012V104.536H33.1314V106.012H23.2314ZM36.9825 112V94.36H38.7465V112H36.9825ZM47.7201 112.36C46.4161 112.36 45.3121 112.068 44.4081 111.484C43.5041 110.9 42.8161 110.096 42.3441 109.072C41.8801 108.04 41.6401 106.856 41.6241 105.52C41.6401 104.16 41.8881 102.968 42.3681 101.944C42.8481 100.912 43.5401 100.112 44.4441 99.544C45.3481 98.968 46.4441 98.68 47.7321 98.68C49.0441 98.68 50.1841 99 51.1521 99.64C52.1281 100.28 52.7961 101.156 53.1561 102.268L51.4281 102.82C51.1241 102.044 50.6401 101.444 49.9761 101.02C49.3201 100.588 48.5681 100.372 47.7201 100.372C46.7681 100.372 45.9801 100.592 45.3561 101.032C44.7321 101.464 44.2681 102.068 43.9641 102.844C43.6601 103.62 43.5041 104.512 43.4961 105.52C43.5121 107.072 43.8721 108.32 44.5761 109.264C45.2801 110.2 46.3281 110.668 47.7201 110.668C48.6001 110.668 49.3481 110.468 49.9641 110.068C50.5881 109.66 51.0601 109.068 51.3801 108.292L53.1561 108.82C52.6761 109.972 51.9721 110.852 51.0441 111.46C50.1161 112.06 49.0081 112.36 47.7201 112.36ZM60.6936 112.36C59.4056 112.36 58.3056 112.068 57.3936 111.484C56.4816 110.9 55.7816 110.092 55.2936 109.06C54.8056 108.028 54.5616 106.844 54.5616 105.508C54.5616 104.148 54.8096 102.956 55.3056 101.932C55.8016 100.908 56.5056 100.112 57.4176 99.544C58.3376 98.968 59.4296 98.68 60.6936 98.68C61.9896 98.68 63.0936 98.972 64.0056 99.556C64.9256 100.132 65.6256 100.936 66.1056 101.968C66.5936 102.992 66.8376 104.172 66.8376 105.508C66.8376 106.868 66.5936 108.064 66.1056 109.096C65.6176 110.12 64.9136 110.92 63.9936 111.496C63.0736 112.072 61.9736 112.36 60.6936 112.36ZM60.6936 110.668C62.1336 110.668 63.2056 110.192 63.9096 109.24C64.6136 108.28 64.9656 107.036 64.9656 105.508C64.9656 103.94 64.6096 102.692 63.8976 101.764C63.1936 100.836 62.1256 100.372 60.6936 100.372C59.7256 100.372 58.9256 100.592 58.2936 101.032C57.6696 101.464 57.2016 102.068 56.8896 102.844C56.5856 103.612 56.4336 104.5 56.4336 105.508C56.4336 107.068 56.7936 108.32 57.5136 109.264C58.2336 110.2 59.2936 110.668 60.6936 110.668ZM84.9407 112L84.9527 103.492C84.9527 102.492 84.6727 101.708 84.1127 101.14C83.5607 100.564 82.8567 100.276 82.0007 100.276C81.5127 100.276 81.0367 100.388 80.5727 100.612C80.1087 100.836 79.7247 101.196 79.4207 101.692C79.1247 102.188 78.9767 102.836 78.9767 103.636L77.9327 103.336C77.9087 102.408 78.0887 101.596 78.4727 100.9C78.8647 100.204 79.4007 99.664 80.0807 99.28C80.7687 98.888 81.5447 98.692 82.4087 98.692C83.7127 98.692 84.7567 99.096 85.5407 99.904C86.3247 100.704 86.7167 101.788 86.7167 103.156L86.7047 112H84.9407ZM69.4727 112V99.04H71.0567V102.232H71.2487V112H69.4727ZM77.2247 112L77.2367 103.612C77.2367 102.58 76.9607 101.768 76.4087 101.176C75.8647 100.576 75.1447 100.276 74.2487 100.276C73.3527 100.276 72.6287 100.584 72.0767 101.2C71.5247 101.808 71.2487 102.62 71.2487 103.636L70.1927 103.06C70.1927 102.228 70.3887 101.484 70.7807 100.828C71.1727 100.164 71.7087 99.644 72.3887 99.268C73.0687 98.884 73.8407 98.692 74.7047 98.692C75.5287 98.692 76.2607 98.868 76.9007 99.22C77.5487 99.572 78.0567 100.084 78.4247 100.756C78.7927 101.428 78.9767 102.244 78.9767 103.204L78.9647 112H77.2247ZM95.2421 112.36C93.9781 112.36 92.8821 112.08 91.9541 111.52C91.0341 110.96 90.3181 110.172 89.8061 109.156C89.2941 108.14 89.0381 106.948 89.0381 105.58C89.0381 104.164 89.2901 102.94 89.7941 101.908C90.2981 100.876 91.0061 100.08 91.9181 99.52C92.8381 98.96 93.9221 98.68 95.1701 98.68C96.4501 98.68 97.5421 98.976 98.4461 99.568C99.3501 100.152 100.034 100.992 100.498 102.088C100.962 103.184 101.174 104.492 101.134 106.012H99.3341V105.388C99.3021 103.708 98.9381 102.44 98.2421 101.584C97.5541 100.728 96.5461 100.3 95.2181 100.3C93.8261 100.3 92.7581 100.752 92.0141 101.656C91.2781 102.56 90.9101 103.848 90.9101 105.52C90.9101 107.152 91.2781 108.42 92.0141 109.324C92.7581 110.22 93.8101 110.668 95.1701 110.668C96.0981 110.668 96.9061 110.456 97.5941 110.032C98.2901 109.6 98.8381 108.98 99.2381 108.172L100.882 108.808C100.37 109.936 99.6141 110.812 98.6141 111.436C97.6221 112.052 96.4981 112.36 95.2421 112.36ZM90.2861 106.012V104.536H100.186V106.012H90.2861ZM1.68 145V127.72H8.352C9.32 127.72 10.164 127.92 10.884 128.32C11.604 128.72 12.164 129.26 12.564 129.94C12.964 130.612 13.164 131.356 13.164 132.172C13.164 133.1 12.916 133.928 12.42 134.656C11.924 135.376 11.26 135.876 10.428 136.156L10.404 135.568C11.524 135.888 12.404 136.448 13.044 137.248C13.684 138.048 14.004 139.016 14.004 140.152C14.004 141.152 13.792 142.016 13.368 142.744C12.944 143.464 12.348 144.02 11.58 144.412C10.812 144.804 9.92 145 8.904 145H1.68ZM3.456 143.308H8.472C9.176 143.308 9.808 143.184 10.368 142.936C10.928 142.68 11.368 142.32 11.688 141.856C12.016 141.392 12.18 140.832 12.18 140.176C12.18 139.536 12.032 138.96 11.736 138.448C11.44 137.936 11.036 137.528 10.524 137.224C10.02 136.912 9.444 136.756 8.796 136.756H3.456V143.308ZM3.456 135.088H8.34C8.892 135.088 9.396 134.964 9.852 134.716C10.308 134.46 10.668 134.112 10.932 133.672C11.204 133.232 11.34 132.724 11.34 132.148C11.34 131.332 11.056 130.668 10.488 130.156C9.928 129.644 9.212 129.388 8.34 129.388H3.456V135.088ZM20.1068 145.36C19.1308 145.36 18.3108 145.184 17.6468 144.832C16.9908 144.48 16.4988 144.012 16.1708 143.428C15.8428 142.844 15.6788 142.208 15.6788 141.52C15.6788 140.816 15.8188 140.216 16.0988 139.72C16.3868 139.216 16.7748 138.804 17.2628 138.484C17.7588 138.164 18.3308 137.92 18.9788 137.752C19.6348 137.592 20.3588 137.452 21.1508 137.332C21.9508 137.204 22.7308 137.096 23.4908 137.008C24.2588 136.912 24.9308 136.82 25.5068 136.732L24.8828 137.116C24.9068 135.836 24.6588 134.888 24.1388 134.272C23.6188 133.656 22.7148 133.348 21.4268 133.348C20.5388 133.348 19.7868 133.548 19.1708 133.948C18.5628 134.348 18.1348 134.98 17.8867 135.844L16.1708 135.34C16.4668 134.18 17.0628 133.28 17.9588 132.64C18.8548 132 20.0188 131.68 21.4508 131.68C22.6348 131.68 23.6388 131.904 24.4628 132.352C25.2948 132.792 25.8828 133.432 26.2268 134.272C26.3868 134.648 26.4908 135.068 26.5388 135.532C26.5868 135.996 26.6108 136.468 26.6108 136.948V145H25.0388V141.748L25.4948 141.94C25.0548 143.052 24.3708 143.9 23.4428 144.484C22.5148 145.068 21.4028 145.36 20.1068 145.36ZM20.3108 143.836C21.1348 143.836 21.8548 143.688 22.4708 143.392C23.0868 143.096 23.5828 142.692 23.9588 142.18C24.3348 141.66 24.5788 141.076 24.6908 140.428C24.7868 140.012 24.8388 139.556 24.8468 139.06C24.8548 138.556 24.8588 138.18 24.8588 137.932L25.5308 138.28C24.9308 138.36 24.2788 138.44 23.5748 138.52C22.8788 138.6 22.1908 138.692 21.5108 138.796C20.8388 138.9 20.2308 139.024 19.6868 139.168C19.3188 139.272 18.9628 139.42 18.6188 139.612C18.2748 139.796 17.9908 140.044 17.7668 140.356C17.5508 140.668 17.4428 141.056 17.4428 141.52C17.4428 141.896 17.5348 142.26 17.7188 142.612C17.9108 142.964 18.2148 143.256 18.6308 143.488C19.0548 143.72 19.6148 143.836 20.3108 143.836ZM35.1107 145.36C33.8067 145.36 32.7027 145.068 31.7987 144.484C30.8947 143.9 30.2067 143.096 29.7347 142.072C29.2707 141.04 29.0307 139.856 29.0147 138.52C29.0307 137.16 29.2787 135.968 29.7587 134.944C30.2387 133.912 30.9307 133.112 31.8347 132.544C32.7387 131.968 33.8347 131.68 35.1227 131.68C36.4347 131.68 37.5747 132 38.5427 132.64C39.5187 133.28 40.1867 134.156 40.5467 135.268L38.8187 135.82C38.5147 135.044 38.0307 134.444 37.3667 134.02C36.7107 133.588 35.9587 133.372 35.1107 133.372C34.1587 133.372 33.3707 133.592 32.7467 134.032C32.1227 134.464 31.6587 135.068 31.3547 135.844C31.0507 136.62 30.8947 137.512 30.8867 138.52C30.9027 140.072 31.2627 141.32 31.9667 142.264C32.6707 143.2 33.7187 143.668 35.1107 143.668C35.9907 143.668 36.7387 143.468 37.3547 143.068C37.9787 142.66 38.4507 142.068 38.7707 141.292L40.5467 141.82C40.0667 142.972 39.3627 143.852 38.4347 144.46C37.5067 145.06 36.3987 145.36 35.1107 145.36ZM43.0118 145L43.0238 127.72H44.7998V138.28L50.5838 132.04H52.9358L46.8638 138.52L53.7278 145H51.1598L44.7998 138.76V145H43.0118ZM56.13 145V143.02H57.894V145H56.13ZM56.13 140.68V127.72H57.894V140.68H56.13Z" fill="white"/>
</svg>
