<svg width="336" height="300" viewBox="0 0 336 300" fill="none" xmlns="http://www.w3.org/2000/svg">
<path d="M273.878 148.892V230.789H181.823L182.444 148.892L182.824 148.098L199.687 112.646L207.746 95.6998L209.389 92.254L228.165 52.7693L228.551 53.5841L253.998 107.087L273.878 148.892Z" fill="#DBDBDB"/>
<path d="M276.019 227.274L273.878 227.668L257.043 230.789H215.645L185.6 167.274L182.824 148.098L199.687 112.646L207.746 95.6998L209.389 92.254L228.165 52.7693L228.551 53.5841L216.439 143.616L227.005 119.53L226.583 166.431L240.946 148.263V174.462L235.878 165.589L231.231 205.301L256.58 145.308L273.878 218.249L276.019 227.274Z" fill="#B8B8B8"/>
<path d="M207.746 95.6998L206.302 98.7312L222.779 79.3894L228.275 102.205L234.614 82.773L241.375 91.6118L243.888 85.8321L228.552 53.5841L228.165 52.7693L209.389 92.254L207.746 95.6998Z" fill="white" stroke="#263238" stroke-width="0.213637" stroke-linecap="round" stroke-linejoin="round"/>
<path d="M273.878 148.892V230.789H181.823L182.444 148.892L182.824 148.098L199.687 112.645L207.746 95.6998L209.389 92.254L228.165 52.7693L228.551 53.5841L253.998 107.087L273.878 148.892Z" stroke="#263238" stroke-width="0.213637" stroke-linecap="round" stroke-linejoin="round"/>
<path d="M319.674 244.427L302.294 232.75L299.849 254.474L283.283 247.956L279.216 271.848L250.973 253.39H227.081L228.434 229.222L255.02 172.059L256.221 169.483L271.882 135.813L284.374 159.712L286.515 164.85L289.519 172.059L319.674 244.427Z" fill="#DBDBDB"/>
<path d="M300.754 220.051L302.515 232.895L308.909 237.197L300.754 220.051Z" fill="#B8B8B8"/>
<path d="M283.283 247.956L296.389 253.114L294.829 248.115L290.085 240.208L293.641 235.07L292.964 215.259L280.203 233.095L279.416 195.151L266.766 220.445L273.478 138.865L271.882 135.813L256.221 169.483L255.02 172.059L228.434 229.222L227.081 253.39H250.973L279.216 271.848L283.283 247.956Z" fill="#B8B8B8"/>
<path d="M321.483 248.115L273.36 131.905L218.946 249.171" stroke="#263238" stroke-width="0.213637" stroke-linecap="round" stroke-linejoin="round"/>
<path d="M278.145 175.36L281.702 172.121L290.437 181.823L291.162 174.897L273.36 131.905L252.623 176.603L252.596 176.976L271.033 157.572L278.145 175.36Z" fill="white" stroke="#263238" stroke-width="0.213637" stroke-linecap="round" stroke-linejoin="round"/>
<path d="M240.636 273.347L242.252 292.426L229.187 285.983L212.075 277.545L195.682 269.466L186.947 276.261L163.02 266.234L141.675 286.929L124.854 272.38L104.808 276.578L106.099 257.174L140.557 180.09L145.031 170.07L175.629 101.625L185.655 124.585L195.033 136.876L236.271 236.797L244.054 226.901L269.417 286.28L240.636 273.347Z" fill="#DBDBDB"/>
<path d="M180.525 220.514L172.501 210.377L177.569 159.671L154.333 205.73L174.614 119.109L175.898 102.232L175.629 101.625L145.031 170.07L140.557 180.09L106.099 257.174L104.808 276.578L124.854 272.38L141.675 286.929L163.02 266.234L170.222 269.252L172.079 239.952L186.443 250.518L184.751 210.377L180.525 220.514Z" fill="#B8B8B8"/>
<path d="M272.69 294.077L244.054 226.901L236.271 236.797L177.79 95.5963L108.281 252.707" stroke="#263238" stroke-width="0.213637" stroke-linecap="round" stroke-linejoin="round"/>
<path d="M198.499 145.605L177.79 95.5963L153.552 150.383L172.411 129.384L183.964 137.381L185.738 131.608L198.499 145.605Z" fill="white" stroke="#263238" stroke-width="0.213637" stroke-linecap="round" stroke-linejoin="round"/>
<path d="M229.187 285.983L212.075 277.545L200.309 225.03L229.187 285.983Z" fill="#B8B8B8"/>
<path d="M243.046 95.6999H207.746L209.389 92.2472H209.493C211.136 92.0815 211.302 90.9352 213.601 90.6037C215.901 90.2723 217.551 91.5912 219.36 90.7695C221.17 89.9477 222.323 86.8196 225.941 87.3168C229.56 87.814 234.656 93.0689 234.656 93.0689C236.631 93.0689 237.452 92.5787 239.593 93.4004C240.895 93.9105 242.073 94.6948 243.046 95.6999Z" fill="#263238" stroke="#263238" stroke-width="0.213637" stroke-linecap="round" stroke-linejoin="round"/>
<path d="M236.444 91.2874C236.444 91.2874 231.341 86.0187 227.723 85.5284C224.104 85.0381 222.951 88.1593 221.142 88.9811C219.333 89.8028 217.689 88.4908 215.39 88.8153C213.09 89.1399 212.918 90.3 211.247 90.4657C209.576 90.6314 208.45 89.4782 206.641 89.7752C204.832 90.0721 203.879 92.0816 202.857 92.0816C201.835 92.0816 200.226 90.9284 198.417 90.9284C196.607 90.9284 193.811 92.5718 193.811 92.5718L182.624 93.8907H244.834C243.863 92.882 242.685 92.0952 241.382 91.5844C239.241 90.7903 238.419 91.2874 236.444 91.2874Z" fill="white" stroke="#263238" stroke-width="0.213637" stroke-linecap="round" stroke-linejoin="round"/>
<path d="M299.953 77.96C299.953 77.96 294.857 72.6981 291.238 72.2009C287.62 71.7038 286.467 74.8319 284.657 75.6536C282.848 76.4753 281.205 75.1564 278.898 75.4879C276.592 75.8193 276.433 76.9656 274.79 77.1314C273.146 77.2971 271.993 76.1439 270.184 76.4753C268.375 76.8068 267.387 78.7748 266.4 78.7748C265.412 78.7748 263.769 77.6216 261.96 77.6216C260.15 77.6216 257.354 79.272 257.354 79.272L246.167 80.584H308.315C307.342 79.5789 306.165 78.7947 304.862 78.2845C302.749 77.4697 301.928 77.96 299.953 77.96Z" fill="white" stroke="#263238" stroke-width="0.213637" stroke-linecap="round" stroke-linejoin="round"/>
<path d="M268.526 190.835C268.526 190.835 259.391 181.409 252.9 180.518C246.409 179.627 244.358 185.235 241.112 186.733C237.867 188.231 234.897 185.849 230.796 186.436C226.694 187.023 226.376 189.095 223.428 189.385C220.479 189.675 218.414 187.617 215.176 188.211C211.937 188.805 210.163 192.354 208.395 192.354C206.627 192.354 203.678 190.282 200.44 190.282C197.201 190.282 192.153 193.231 192.153 193.231L172.128 195.593H283.559C281.813 193.777 279.692 192.364 277.345 191.449C273.533 189.951 272.062 190.835 268.526 190.835Z" fill="#263238" stroke="#263238" stroke-width="0.213637" stroke-linecap="round" stroke-linejoin="round"/>
<path d="M272.007 189.095C272.007 189.095 262.871 179.662 256.38 178.778C249.889 177.894 247.838 183.494 244.593 184.993C241.347 186.491 238.378 184.109 234.276 184.696C230.174 185.283 229.857 187.354 226.908 187.644C223.959 187.934 221.895 185.877 218.656 186.471C215.417 187.064 213.643 190.614 211.875 190.614C210.107 190.614 207.159 188.542 203.92 188.542C200.681 188.542 195.634 191.491 195.634 191.491L175.608 193.852H287.04C285.293 192.037 283.172 190.623 280.825 189.709C277.013 188.211 275.542 189.095 272.007 189.095Z" fill="white" stroke="#263238" stroke-width="0.213637" stroke-linecap="round" stroke-linejoin="round"/>
<path d="M289.519 172.059H254.992L256.194 169.484C256.975 169.837 257.795 170.094 258.638 170.25C259.626 170.25 260.613 168.275 262.422 167.951C264.232 167.626 265.385 168.772 267.028 168.607C268.672 168.441 268.837 167.288 271.171 166.963C273.505 166.639 275.114 167.951 276.924 167.122C278.733 166.293 279.886 163.179 283.504 163.669C284.573 163.869 285.595 164.27 286.515 164.85L289.519 172.059Z" fill="#263238" stroke="#263238" stroke-width="0.213637" stroke-linecap="round" stroke-linejoin="round"/>
<path d="M293.773 167.26C293.773 167.26 288.676 161.991 285.058 161.501C281.44 161.011 280.286 164.132 278.477 164.954C276.668 165.775 275.025 164.463 272.718 164.788C270.412 165.112 270.253 166.272 268.609 166.431C266.966 166.59 265.813 165.451 264.004 165.775C262.194 166.1 261.207 168.082 260.219 168.082C259.232 168.082 257.589 166.929 255.779 166.929C253.97 166.929 251.173 168.572 251.173 168.572L239.987 169.891H302.135C301.163 168.882 299.986 168.096 298.682 167.585C296.569 166.763 295.747 167.26 293.773 167.26Z" fill="white" stroke="#263238" stroke-width="0.213637" stroke-linecap="round" stroke-linejoin="round"/>
<path d="M199.445 180.09H140.557L145.031 170.07C146.311 170.245 147.614 170.061 148.795 169.539C152.669 167.785 155.127 161.1 162.868 162.157C170.609 163.213 181.512 174.462 181.512 174.462C185.731 174.462 187.492 173.413 192.064 175.153C194.85 176.249 197.368 177.933 199.445 180.09Z" fill="#263238" stroke="#263238" stroke-width="0.213637" stroke-linecap="round" stroke-linejoin="round"/>
<path d="M184.005 172.322C184.005 172.322 173.102 161.066 165.361 160.009C157.62 158.953 155.162 165.637 151.288 167.398C147.414 169.159 143.906 166.342 138.982 167.046C134.059 167.75 133.707 170.209 130.185 170.561C126.663 170.913 124.205 168.455 120.338 169.18C116.471 169.905 114.358 174.103 112.252 174.103C110.146 174.103 106.624 171.638 102.75 171.638C98.8761 171.638 92.903 175.16 92.903 175.16L68.9967 177.956H201.945C199.866 175.802 197.346 174.122 194.557 173.033C189.985 171.265 188.231 172.322 184.005 172.322Z" fill="white" stroke="#263238" stroke-width="0.213637" stroke-linecap="round" stroke-linejoin="round"/>
<path d="M152.565 51.1949C152.565 51.1949 141.661 39.9392 133.921 38.8827C126.18 37.8262 123.721 44.5106 119.848 46.2714C115.974 48.0323 112.466 45.2149 107.535 45.9192C102.605 46.6236 102.26 49.0819 98.7448 49.4341C95.23 49.7862 92.7648 47.3625 88.8978 48.053C85.0308 48.7435 82.9247 52.9696 80.8116 52.9696C78.6986 52.9696 75.1838 50.5044 71.3168 50.5044C67.4498 50.5044 61.4698 54.0261 61.4698 54.0261L37.5497 56.8366H170.505C168.424 54.6837 165.904 53.0045 163.116 51.9131C158.545 50.1384 156.784 51.1949 152.565 51.1949Z" fill="white" stroke="#263238" stroke-width="0.213637" stroke-linecap="round" stroke-linejoin="round"/>
<path d="M298.516 273.858C298.516 273.858 282.834 257.671 271.703 256.152C260.572 254.633 257.036 264.245 251.47 266.78C245.905 269.314 240.843 265.26 233.765 266.269C226.687 267.277 226.169 270.826 221.115 271.33C216.06 271.834 212.517 268.292 206.952 269.307C201.386 270.322 198.348 276.392 195.316 276.392C192.285 276.392 187.223 272.849 181.657 272.849C176.092 272.849 167.488 277.904 167.488 277.904L133.106 281.951H324.315C321.326 278.853 317.703 276.439 313.694 274.873C307.121 272.338 304.586 273.858 298.516 273.858Z" fill="white" stroke="#263238" stroke-width="0.213637" stroke-linecap="round" stroke-linejoin="round"/>
<path d="M228.165 52.7693V24.4436" stroke="#263238" stroke-width="0.213637" stroke-linecap="round" stroke-linejoin="round"/>
<path d="M246.215 47.97V42.7289C247.303 43.3184 248.227 44.1706 248.902 45.2079C249.018 45.4277 249.11 45.6591 249.178 45.8984C248.513 45.7999 247.835 45.9597 247.284 46.3449C246.734 46.7301 246.351 47.3116 246.215 47.97Z" fill="#263238" stroke="#263238" stroke-width="0.213637" stroke-linecap="round" stroke-linejoin="round"/>
<path d="M234.891 27.5855C230.81 27.7374 228.676 26.1423 228.137 25.7211V33.5241L228.275 42.5701C229.491 44.4829 238.026 44.4829 242.908 44.4829C247.79 44.4829 249.178 45.8639 249.178 45.8639V28.8009C246.568 26.3702 239.593 27.4198 234.891 27.5855Z" fill="#3AB091" stroke="#263238" stroke-width="0.213637" stroke-miterlimit="10"/>
<path d="M249.178 29.5535C248.47 29.0279 247.615 28.738 246.733 28.7249C243.716 28.7249 241.264 32.1775 241.264 36.5003C241.264 40.823 243.716 44.2688 246.733 44.2688C247.615 44.2556 248.47 43.9658 249.178 43.4401V29.5535Z" fill="white" stroke="#263238" stroke-width="0.213637" stroke-linecap="round" stroke-linejoin="round"/>
<path d="M249.178 45.8778C249.178 45.8778 246.132 45.6499 246.215 47.9494C246.257 49.0473 247.596 49.8621 252.485 49.5169C257.374 49.1716 264.874 50.2696 264.874 50.2696L260.164 41.921L267.132 39.1589C264.609 37.2799 261.786 35.8416 258.783 34.9052C255.664 33.9654 252.413 33.5364 249.157 33.6346L249.178 45.8778Z" fill="#3AB091" stroke="#263238" stroke-width="0.213637" stroke-miterlimit="10"/>
<path d="M246.885 43.2261V42.3008C246.53 42.2768 246.186 42.1668 245.883 41.9803C245.58 41.7939 245.327 41.5365 245.145 41.2305C244.741 40.5333 244.525 39.7435 244.517 38.9379L245.656 38.6686C245.68 39.0473 245.733 39.4235 245.815 39.7942C245.877 40.1201 246.009 40.4287 246.202 40.6988C246.291 40.8191 246.406 40.9181 246.539 40.9885C246.672 41.059 246.818 41.0992 246.968 41.1062C247.106 41.1285 247.248 41.1163 247.381 41.0705C247.513 41.0247 247.632 40.9468 247.728 40.8438C247.914 40.5754 248.004 40.2516 247.983 39.9254C248.001 39.5034 247.9 39.085 247.693 38.7169C247.491 38.3754 247.26 38.052 247.003 37.7502L245.449 36.0169C245.263 35.8038 245.098 35.5724 244.959 35.3264C244.819 35.0786 244.719 34.8107 244.662 34.5323C244.592 34.2172 244.56 33.8951 244.565 33.5725C244.519 32.9346 244.717 32.3031 245.117 31.8047C245.312 31.6028 245.55 31.4477 245.813 31.3508C246.076 31.2539 246.358 31.2179 246.637 31.2454V30.3477H247.037V31.2454C247.333 31.2906 247.617 31.3939 247.873 31.5492C248.113 31.7013 248.318 31.9039 248.473 32.143C248.651 32.4113 248.782 32.7079 248.86 33.02C248.963 33.4087 249.028 33.8065 249.053 34.2077L247.955 34.4632C247.936 34.1241 247.89 33.787 247.817 33.4551C247.762 33.172 247.639 32.9066 247.458 32.6817C247.366 32.58 247.253 32.5 247.126 32.4474C247 32.3949 246.863 32.3711 246.726 32.3778C246.453 32.3633 246.185 32.4576 245.981 32.6402C245.881 32.7554 245.806 32.8893 245.76 33.0341C245.714 33.1788 245.697 33.3314 245.711 33.4827C245.702 33.7637 245.751 34.0436 245.856 34.3044C245.976 34.556 246.132 34.7886 246.319 34.995L247.879 36.7282C248.115 36.999 248.33 37.2876 248.522 37.5914C248.726 37.9156 248.891 38.2634 249.012 38.6272C249.14 39.0312 249.203 39.4531 249.198 39.877C249.208 40.3128 249.125 40.7457 248.957 41.1476C248.822 41.4785 248.592 41.7617 248.295 41.9609C247.999 42.1602 247.65 42.2665 247.293 42.2663V43.2054L246.885 43.2261Z" fill="#263238"/>
<path d="M241.927 5.00513V13.8923" stroke="#263238" stroke-width="0.213637" stroke-linecap="round" stroke-linejoin="round"/>
<path d="M241.927 57.465V66.3521" stroke="#263238" stroke-width="0.213637" stroke-linecap="round" stroke-linejoin="round"/>
<path d="M208.927 17.2759L219.077 25.3137" stroke="#263238" stroke-width="0.213637" stroke-linecap="round" stroke-linejoin="round"/>
<path d="M273.236 17.2759L263.078 25.3137" stroke="#263238" stroke-width="0.213637" stroke-linecap="round" stroke-linejoin="round"/>
<path d="M273.236 63.2447L263.078 55.2069" stroke="#263238" stroke-width="0.213637" stroke-linecap="round" stroke-linejoin="round"/>
<path d="M208.505 63.2447L218.656 55.2069" stroke="#263238" stroke-width="0.213637" stroke-linecap="round" stroke-linejoin="round"/>
<path d="M214.851 40.1188H201.31" stroke="#263238" stroke-width="0.213637" stroke-linecap="round" stroke-linejoin="round"/>
<path d="M284.229 40.1188H270.695" stroke="#263238" stroke-width="0.213637" stroke-linecap="round" stroke-linejoin="round"/>
<path d="M100.533 299L105.526 287.42C105.526 287.42 107.521 282.227 108.723 280.632C109.762 279.097 110.696 277.493 111.52 275.832L117.914 266.248L124.308 246.664L106.568 252.582L92.9304 263.071L74.2859 272.249L9.77625 285.369" fill="white"/>
<path d="M100.533 299L105.526 287.42C105.526 287.42 107.521 282.227 108.723 280.632C109.762 279.097 110.696 277.493 111.52 275.832L117.914 266.248L124.308 246.664L106.568 252.582L92.9304 263.071L74.2859 272.249L9.77625 285.369" stroke="#263238" stroke-width="0.213637" stroke-linecap="round" stroke-linejoin="round"/>
<path d="M10.4324 236.279H89.1463L124.308 246.664L120.711 252.258L113.515 254.661L105.526 256.656L99.1315 265.847L93.9386 270.239L76.7581 273.036L8.42981 288.221" fill="white"/>
<path d="M10.4324 236.279H89.1463L124.308 246.664L120.711 252.258L113.515 254.661L105.526 256.656L99.1315 265.847L93.9386 270.239L76.7581 273.036L8.42981 288.221" stroke="#263238" stroke-width="0.213637" stroke-linecap="round" stroke-linejoin="round"/>
<path d="M105.526 256.656L106.327 271.441L101.928 279.831L98.7309 285.024L90.0439 299" fill="white"/>
<path d="M105.526 256.656L106.327 271.441L101.928 279.831L98.7309 285.024L90.0439 299" stroke="#263238" stroke-width="0.213637" stroke-linecap="round" stroke-linejoin="round"/>
<path d="M93.9385 270.239L92.7439 282.627L86.75 286.225L78.7537 291.017" fill="white"/>
<path d="M93.9385 270.239L92.7439 282.627L86.75 286.225L78.7537 291.017" stroke="#263238" stroke-width="0.213637" stroke-linecap="round" stroke-linejoin="round"/>
<path opacity="0.21" d="M83.8778 252.976C83.8778 255.386 70.9096 257.333 54.9099 257.333C38.9102 257.333 25.9075 255.386 25.9075 252.976C25.9075 250.566 38.8826 248.619 54.9099 248.619C70.9372 248.619 83.8778 250.573 83.8778 252.976Z" fill="black"/>
<path d="M100.022 92.1573C100.022 92.1573 101.859 90.652 102.943 89.9062C104.027 89.1604 105.954 87.0612 106.12 86.2257C106.285 85.3901 107.204 80.3768 107.204 80.3768C106.559 80.3398 105.913 80.3956 105.284 80.5426C104.034 80.7981 102.943 81.1295 102.943 81.1295L99.6011 85.1415L100.022 92.1573Z" fill="white" stroke="#263238" stroke-width="0.213637" stroke-miterlimit="10"/>
<path d="M104.532 80.7152C104.532 80.7152 104.283 82.0963 104.78 82.552C105.277 83.0078 108.122 83.0492 108.544 82.2137C108.965 81.3781 109.048 79.9625 108.544 79.9625C108.04 79.9625 104.532 80.7152 104.532 80.7152Z" fill="white" stroke="#263238" stroke-width="0.213637" stroke-miterlimit="10"/>
<path d="M106.624 83.2219C106.624 83.2219 102.695 83.3876 102.529 83.9124C102.363 84.4372 102.108 85.4178 102.363 85.5835C102.619 85.7492 106.707 85.7561 107.121 85.252C107.535 84.7479 108.122 82.7178 106.624 83.2219Z" fill="white" stroke="#263238" stroke-width="0.213637" stroke-miterlimit="10"/>
<path d="M106.369 85.473C106.369 85.473 102.446 85.6388 102.274 86.1636C102.101 86.6884 101.859 87.6689 102.108 87.8347C102.357 88.0004 106.451 88.0004 106.873 87.5032C107.294 87.006 107.874 84.9758 106.369 85.473Z" fill="white" stroke="#263238" stroke-width="0.213637" stroke-miterlimit="10"/>
<path d="M105.222 87.6274C105.222 87.6274 102.253 87.7517 102.129 88.1315C102.004 88.5113 101.811 89.2709 101.997 89.3952C102.184 89.5195 105.284 89.5195 105.595 89.1397C105.906 88.7599 106.355 87.2477 105.222 87.6274Z" fill="white" stroke="#263238" stroke-width="0.213637" stroke-miterlimit="10"/>
<path d="M122.658 77.5733L95.7274 81.6405H95.396H95.1266C94.5875 81.5767 94.0898 81.3196 93.7257 80.9169C93.3616 80.5141 93.1558 79.993 93.1466 79.4502C93.1373 78.9073 93.3251 78.3795 93.6752 77.9646C94.0254 77.5496 94.514 77.2757 95.0507 77.1935L120.884 73.3058L121.982 73.1401C122.275 73.086 122.577 73.0914 122.869 73.1559C123.161 73.2204 123.437 73.3427 123.681 73.5156C123.924 73.6885 124.131 73.9085 124.288 74.1626C124.446 74.4167 124.551 74.6998 124.597 74.9951C124.643 75.2904 124.629 75.5919 124.557 75.8819C124.485 76.1719 124.355 76.4445 124.176 76.6835C123.996 76.9225 123.771 77.1232 123.513 77.2737C123.254 77.4241 122.968 77.5213 122.672 77.5595L122.658 77.5733Z" fill="white" stroke="#263238" stroke-width="0.213637" stroke-miterlimit="10"/>
<path d="M120.745 77.7873L95.1266 81.6543C94.5875 81.5905 94.0898 81.3334 93.7257 80.9306C93.3616 80.5279 93.1558 80.0068 93.1466 79.464C93.1373 78.9211 93.3251 78.3933 93.6752 77.9784C94.0254 77.5634 94.514 77.2895 95.0507 77.2073L120.884 73.3196C121.403 73.4325 121.867 73.7244 122.194 74.1442C122.521 74.564 122.69 75.0852 122.672 75.6168C122.654 76.1485 122.45 76.657 122.095 77.0537C121.74 77.4503 121.258 77.71 120.732 77.7873H120.745Z" fill="#B5B5B5" stroke="#263238" stroke-width="0.213637" stroke-miterlimit="10"/>
<path d="M76.8756 83.8158C76.4683 83.8227 76.0738 83.6735 75.773 83.3988C75.4721 83.1241 75.2878 82.7447 75.2578 82.3384C75.2277 81.9322 75.3543 81.5298 75.6115 81.2139C75.8686 80.8979 76.2369 80.6923 76.6409 80.6393L95.1264 77.8288C95.3401 77.7834 95.5608 77.7822 95.775 77.8252C95.9892 77.8682 96.1923 77.9546 96.3719 78.079C96.5515 78.2034 96.7037 78.3633 96.8192 78.5487C96.9347 78.7341 97.0111 78.9412 97.0436 79.1572C97.0762 79.3732 97.0642 79.5936 97.0084 79.8048C96.9527 80.0161 96.8543 80.2136 96.7194 80.3854C96.5844 80.5572 96.4158 80.6996 96.2238 80.8038C96.0318 80.9081 95.8205 80.9719 95.6029 80.9915L77.0897 83.7536L76.8756 83.8158Z" fill="#B5B5B5" stroke="#263238" stroke-width="0.213637" stroke-miterlimit="10"/>
<path d="M95.3406 93.3312C95.3406 93.3312 97.5158 85.977 97.6815 84.6374C97.8472 83.2978 99.3526 82.1308 99.3526 82.1308C99.3526 82.1308 102.115 79.8796 102.805 78.6781C103.496 77.4766 104.062 78.9267 104.062 79.9349C104.062 80.9431 100.803 84.0297 100.803 84.0297C101.097 85.3947 101.291 86.7795 101.383 88.1729C101.251 89.3489 100.882 90.4859 100.299 91.5151L98.7104 96.1072L95.3406 93.3312Z" fill="white" stroke="#263238" stroke-width="0.213637" stroke-miterlimit="10"/>
<path d="M94.5052 92.2402L100.775 96.8392L98.5172 100.679L92.7512 95.8379L94.5052 92.2402Z" fill="white" stroke="#263238" stroke-width="0.213637" stroke-miterlimit="10"/>
<path d="M92.9169 95.0024L100.692 101.266C100.692 101.266 84.3957 125.331 83.3944 126.001C82.4751 126.499 81.4892 126.865 80.4666 127.085L76.6272 115.221L92.9169 95.0024Z" fill="#3AB091" stroke="#263238" stroke-width="0.213637" stroke-miterlimit="10"/>
<path d="M70.5297 97.9233L74.3691 100.347H72.3666L71.3653 101.266L69.5216 101.1L68.8586 98.9246L70.5297 97.9233Z" fill="white" stroke="#263238" stroke-width="0.213637" stroke-linecap="round" stroke-linejoin="round"/>
<path d="M75.3705 72.857C75.3705 72.857 77.7114 78.7058 77.3799 79.2927C77.0485 79.8797 76.5444 80.7981 76.6894 81.3643C76.8344 81.9306 79.196 84.817 78.9474 85.2935C78.3746 86.1323 77.7592 86.9413 77.1037 87.7173C77.1037 87.7173 76.2682 91.4738 76.4132 91.8121C76.5582 92.1505 77.3316 93.062 76.8275 93.9804C76.3234 94.8988 75.039 95.0922 74.2035 95.0922C73.5607 95.077 72.9196 95.0216 72.2838 94.9264L69.86 99.5185L56.2427 94.3395L58.3143 89.7405C57.3885 87.3137 57.2412 84.6589 57.8931 82.1446C58.9841 77.884 67.1738 72.9536 70.5989 72.4772C74.0239 72.0007 75.3705 72.857 75.3705 72.857Z" fill="white" stroke="#263238" stroke-width="0.213637" stroke-linecap="round" stroke-linejoin="round"/>
<path d="M72.2008 73.9411C72.2008 73.9411 74.369 76.7862 73.9547 77.6217C73.213 78.6467 72.3736 79.5972 71.4481 80.4598C71.4481 80.4598 72.1386 83.3877 71.7795 83.7191C71.5622 83.9021 71.3072 84.0347 71.0326 84.1075C70.758 84.1804 70.4707 84.1916 70.1913 84.1403C69.8599 83.9677 67.7675 79.9971 66.4348 80.881C65.1021 81.7649 64.8466 83.9677 65.4266 85.2245C65.7299 85.8969 66.0951 86.5396 66.5177 87.1442C66.5177 87.1442 63.1755 90.2378 61.3387 90.5968C59.5018 90.9559 58.0793 91.1009 57.5753 90.3482C57.0712 89.5956 53.9845 82.8283 53.9016 78.0636C53.8188 73.299 56.9883 69.2939 58.9149 68.3962C60.8415 67.4985 64.5082 67.3949 64.5082 67.3949C64.5082 67.3949 64.7637 65.2197 67.3532 65.3233C69.9427 65.4269 72.6151 67.4985 72.6151 67.4985C72.6151 67.4985 71.7795 64.4877 73.7821 66.2417C75.7846 67.9957 77.2348 69.0038 76.7928 71.766C76.3509 74.5281 72.2008 73.9411 72.2008 73.9411Z" fill="#263238" stroke="#263238" stroke-width="0.213637" stroke-linecap="round" stroke-linejoin="round"/>
<path d="M66.5177 87.1442L68.3545 87.6483L69.1072 89.1536" stroke="#263238" stroke-width="0.213637" stroke-linecap="round" stroke-linejoin="round"/>
<path d="M74.2035 95.0922C73.6235 94.7982 73.0651 94.4636 72.5324 94.0909C71.8418 93.5868 70.3572 92.5027 70.3572 92.5027L71.1927 96.5078L72.2838 94.9265L74.2035 95.0922Z" fill="#263238" stroke="#263238" stroke-width="0.213637" stroke-linecap="round" stroke-linejoin="round"/>
<path d="M52.9833 93.0758L52.2306 96.5837L68.7689 101.183L76.7929 108.116L70.3571 100.43L69.3558 98.0062L52.9833 93.0758Z" fill="white" stroke="#263238" stroke-width="0.213637" stroke-linecap="round" stroke-linejoin="round"/>
<path d="M71.3652 101.266C71.3652 101.266 75.9987 102.868 79.5343 112.445C83.0698 122.023 92.9928 160.161 92.9928 160.161L87.5168 161.542C85.8449 152.328 83.5986 143.228 80.791 134.294C76.4821 120.994 71.3652 101.266 71.3652 101.266Z" fill="#3AB091" stroke="#263238" stroke-width="0.213637" stroke-linecap="round" stroke-linejoin="round"/>
<path d="M88.311 158.159C88.311 158.159 86.4396 178.419 85.6524 188.128C84.8652 197.837 77.1243 224.084 76.2059 227.626C75.2875 231.169 74.8939 242.059 74.8939 242.059L76.2059 242.977V244.027L80.6668 246.913C80.6668 246.913 87.2268 249.282 85.7836 250.725C84.3404 252.168 81.7164 251.643 78.0427 251.643C74.3691 251.643 70.4469 250.331 69.2522 250.331C68.2881 250.37 67.3224 250.326 66.3658 250.2C65.841 250.069 64.6602 250.594 64.6602 249.413C64.4506 247.515 64.1441 245.63 63.7418 243.764C63.7418 243.764 62.6714 242.176 62.6714 241.14C62.6714 240.104 62.9338 236.548 63.4587 235.236C63.9835 233.924 64.7707 228.676 64.7707 228.676L65.5579 214.9L60.9658 224.871L57.0298 241.403C57.0298 241.403 58.9978 242.059 58.9978 242.583C58.9978 243.108 58.6042 245.47 58.6042 245.47C58.6042 245.47 61.097 247.963 62.2778 248.922C64.6072 250.409 67.0162 251.767 69.4939 252.99C69.8875 253.121 71.5655 254.564 70.5435 255.22C69.5215 255.876 64.2459 256.27 60.0474 256.27C55.849 256.27 50.4628 254.433 50.4628 254.433L49.282 255.22L44.9523 254.171C44.4275 254.039 44.1651 251.678 44.2618 250.759C44.3283 249.927 44.3283 249.091 44.2618 248.26C44.2618 247.735 43.8682 244.98 44.1306 244.061C44.393 243.143 45.3114 240.65 45.3114 240.65C45.3114 240.65 47.2794 219.395 47.8042 216.115C48.3291 212.835 51.9267 205.578 51.9267 205.578C51.9267 205.578 53.7705 192.713 53.9983 190.22C54.2262 187.727 54.3919 178.281 54.3919 178.281C53.1311 175.084 52.1199 171.794 51.3674 168.441C50.5802 164.242 51.2362 163.324 51.2362 163.324L53.004 156.764L88.311 158.159Z" fill="#263238" stroke="#263238" stroke-width="0.213637" stroke-linecap="round" stroke-linejoin="round"/>
<path d="M68.1335 211.454C68.1335 211.454 72.1317 198.134 72.7946 194.136C73.4576 190.137 77.9046 175.035 77.9046 175.035L82.1238 172.149" stroke="#8C8C8C" stroke-width="0.213637" stroke-linecap="round" stroke-linejoin="round"/>
<path d="M52.8107 209.458C52.8107 209.458 62.3608 203.686 67.9126 193.694" stroke="#8C8C8C" stroke-width="0.213637" stroke-linecap="round" stroke-linejoin="round"/>
<path d="M69.2385 187.693C69.2385 187.693 63.4656 196.58 59.4674 200.122" stroke="#8C8C8C" stroke-width="0.213637" stroke-linecap="round" stroke-linejoin="round"/>
<path d="M79.3824 114.551C79.3824 114.551 86.1496 146.758 87.0611 151.088C87.9726 155.417 88.311 158.159 88.311 158.159C86.9199 158.434 85.5131 158.623 84.0987 158.725C82.842 158.725 80.1074 158.614 80.1074 158.614L75.9642 112.784L79.3824 114.551Z" fill="white" stroke="#263238" stroke-width="0.213637" stroke-linecap="round" stroke-linejoin="round"/>
<path d="M50.2418 95.3339V98.8418C50.2418 98.8418 46.4025 114.22 46.8997 119.061C47.3968 123.901 52.1684 139.452 52.1684 139.452C52.1684 139.452 50.9945 141.372 50.9117 141.62C50.9876 142.356 51.1286 143.084 51.3329 143.796L47.0516 164.836C47.0516 164.836 63.3413 168.289 74.0376 167.343C84.734 166.397 85.4591 165.851 85.4591 165.851C85.4591 165.851 84.078 145.971 84.1471 141.289C84.2161 136.607 80.3008 116.809 79.3824 114.551C78.464 112.293 76.7929 108.116 76.7929 108.116L68.7689 101.21L50.2418 95.3339Z" fill="#3AB091" stroke="#263238" stroke-width="0.213637" stroke-linecap="round" stroke-linejoin="round"/>
<path d="M62.5887 120.4C62.5887 120.4 53.736 128.424 52.4792 128.928" stroke="#263238" stroke-width="0.213637" stroke-linecap="round" stroke-linejoin="round"/>
<path d="M65.1781 120.152C65.1781 120.152 62.6714 124.246 61.5873 126.083" stroke="#263238" stroke-width="0.213637" stroke-linecap="round" stroke-linejoin="round"/>
<path d="M64.094 126.498L61.4216 131.594" stroke="#263238" stroke-width="0.213637" stroke-linecap="round" stroke-linejoin="round"/>
<path d="M80.3008 89.5679C80.3008 89.5679 80.5563 83.6362 80.8049 82.6626C81.523 80.8686 82.332 79.1124 83.2286 77.4007C83.2286 77.4007 84.5614 76.3097 85.1483 76.7102C85.7353 77.1107 85.6524 78.0912 85.6524 78.0912C85.6524 78.0912 86.6537 76.7102 87.2407 76.8414C87.8276 76.9726 88.4077 78.181 88.4077 78.181C89.0032 78.0005 89.6341 77.9697 90.2445 78.0912C90.935 78.3467 91.4184 78.181 91.2458 78.9268C91.0731 79.6726 89.4089 83.7605 89.4089 83.7605C89.4089 83.7605 92.9168 82.4278 92.9168 83.07C92.9168 83.7122 92.3368 83.9953 91.5841 84.4925C90.8314 84.9897 88.0762 86.4122 88.0762 86.4122L86.0046 88.4838L85.6731 90.4035L80.3008 89.5679Z" fill="white" stroke="#263238" stroke-width="0.213637" stroke-linecap="round" stroke-linejoin="round"/>
<path d="M80.6252 92.6615L80.2869 89.5679C81.0706 89.3226 81.8899 89.2106 82.7106 89.2364C83.9878 89.4409 85.2463 89.748 86.474 90.1548L86.6398 93.3313L80.6252 92.6615Z" fill="white" stroke="#263238" stroke-width="0.213637" stroke-linecap="round" stroke-linejoin="round"/>
<path d="M52.2305 105.36C52.2305 105.36 55.5727 104.442 56.574 104.359C57.5753 104.276 79.1337 106.279 79.1337 106.279L80.2179 91.5773C81.0226 91.433 81.8487 91.4613 82.6417 91.6602L88.7391 93.4142C88.7391 93.4142 89.0774 108.606 89.0774 112.059V117.659C88.4235 117.903 87.7517 118.097 87.068 118.239C86.1496 118.412 63.3412 120.31 59.1635 120.31C54.9858 120.31 50.5594 120.642 49.5513 116.388" fill="#3AB091"/>
<path d="M52.2305 105.36C52.2305 105.36 55.5727 104.442 56.574 104.359C57.5753 104.276 79.1337 106.279 79.1337 106.279L80.2179 91.5773C81.0226 91.433 81.8487 91.4613 82.6417 91.6602L88.7391 93.4142C88.7391 93.4142 89.0774 108.606 89.0774 112.059V117.659C88.4235 117.903 87.7517 118.097 87.068 118.239C86.1496 118.412 63.3412 120.31 59.1635 120.31C54.9858 120.31 50.5594 120.642 49.5513 116.388" stroke="#263238" stroke-width="0.213637" stroke-linecap="round" stroke-linejoin="round"/>
</svg>
